<svg width="64" height="64" viewBox="0 0 64 64" fill="none" xmlns="http://www.w3.org/2000/svg">
<path d="M30.6666 53.3333H14.6666C13.9594 53.3333 13.2811 53.0524 12.781 52.5523C12.2809 52.0522 12 51.3739 12 50.6667V13.3333C12 12.6261 12.2809 11.9478 12.781 11.4477C13.2811 10.9476 13.9594 10.6667 14.6666 10.6667H28V18.6667C28 20.7884 28.8428 22.8232 30.3431 24.3235C31.8434 25.8238 33.8782 26.6667 36 26.6667H44V40C44 40.7072 44.2809 41.3855 44.781 41.8856C45.2811 42.3857 45.9594 42.6667 46.6666 42.6667C47.3739 42.6667 48.0522 42.3857 48.5522 41.8856C49.0523 41.3855 49.3333 40.7072 49.3333 40V24C49.3333 24 49.3333 24 49.3333 23.84C49.3055 23.595 49.2519 23.3537 49.1733 23.12V22.88C49.0451 22.6058 48.8741 22.3538 48.6666 22.1333L32.6666 6.13333C32.4462 5.9259 32.1941 5.75488 31.92 5.62666C31.8317 5.61122 31.7415 5.61122 31.6533 5.62666C31.394 5.488 31.1153 5.38912 30.8266 5.33333H14.6666C12.5449 5.33333 10.5101 6.17618 9.00977 7.67647C7.50948 9.17677 6.66663 11.2116 6.66663 13.3333V50.6667C6.66663 52.7884 7.50948 54.8232 9.00977 56.3235C10.5101 57.8238 12.5449 58.6667 14.6666 58.6667H30.6666C31.3739 58.6667 32.0521 58.3857 32.5522 57.8856C33.0523 57.3855 33.3333 56.7072 33.3333 56C33.3333 55.2928 33.0523 54.6145 32.5522 54.1144C32.0521 53.6143 31.3739 53.3333 30.6666 53.3333ZM33.3333 14.4267L40.24 21.3333H36C35.2927 21.3333 34.6144 21.0524 34.1143 20.5523C33.6142 20.0522 33.3333 19.3739 33.3333 18.6667V14.4267ZM20 37.3333H36C36.7072 37.3333 37.3855 37.0524 37.8856 36.5523C38.3857 36.0522 38.6666 35.3739 38.6666 34.6667C38.6666 33.9594 38.3857 33.2811 37.8856 32.781C37.3855 32.2809 36.7072 32 36 32H20C19.2927 32 18.6144 32.2809 18.1143 32.781C17.6142 33.2811 17.3333 33.9594 17.3333 34.6667C17.3333 35.3739 17.6142 36.0522 18.1143 36.5523C18.6144 37.0524 19.2927 37.3333 20 37.3333ZM30.6666 42.6667H20C19.2927 42.6667 18.6144 42.9476 18.1143 43.4477C17.6142 43.9478 17.3333 44.6261 17.3333 45.3333C17.3333 46.0406 17.6142 46.7189 18.1143 47.2189C18.6144 47.719 19.2927 48 20 48H30.6666C31.3739 48 32.0521 47.719 32.5522 47.2189C33.0523 46.7189 33.3333 46.0406 33.3333 45.3333C33.3333 44.6261 33.0523 43.9478 32.5522 43.4477C32.0521 42.9476 31.3739 42.6667 30.6666 42.6667ZM20 26.6667H22.6666C23.3739 26.6667 24.0521 26.3857 24.5522 25.8856C25.0523 25.3855 25.3333 24.7072 25.3333 24C25.3333 23.2928 25.0523 22.6145 24.5522 22.1144C24.0521 21.6143 23.3739 21.3333 22.6666 21.3333H20C19.2927 21.3333 18.6144 21.6143 18.1143 22.1144C17.6142 22.6145 17.3333 23.2928 17.3333 24C17.3333 24.7072 17.6142 25.3855 18.1143 25.8856C18.6144 26.3857 19.2927 26.6667 20 26.6667ZM56.56 43.44C56.3121 43.1901 56.0171 42.9917 55.6922 42.8563C55.3672 42.7209 55.0187 42.6512 54.6666 42.6512C54.3146 42.6512 53.966 42.7209 53.6411 42.8563C53.3161 42.9917 53.0212 43.1901 52.7733 43.44L44 52.24L40.56 48.7733C40.3113 48.5247 40.0162 48.3275 39.6913 48.1929C39.3664 48.0583 39.0183 47.9891 38.6666 47.9891C38.315 47.9891 37.9668 48.0583 37.642 48.1929C37.3171 48.3275 37.0219 48.5247 36.7733 48.7733C36.5247 49.022 36.3274 49.3171 36.1929 49.642C36.0583 49.9669 35.989 50.315 35.989 50.6667C35.989 51.0183 36.0583 51.3665 36.1929 51.6913C36.3274 52.0162 36.5247 52.3114 36.7733 52.56L42.1066 57.8933C42.3545 58.1433 42.6495 58.3417 42.9744 58.477C43.2994 58.6124 43.6479 58.6821 44 58.6821C44.352 58.6821 44.7005 58.6124 45.0255 58.477C45.3505 58.3417 45.6454 58.1433 45.8933 57.8933L56.56 47.2267C56.8099 46.9788 57.0083 46.6838 57.1437 46.3589C57.2791 46.0339 57.3488 45.6854 57.3488 45.3333C57.3488 44.9813 57.2791 44.6327 57.1437 44.3078C57.0083 43.9828 56.8099 43.6879 56.56 43.44Z" fill="#1ECBE1"/>
</svg>
