<svg width="64" height="64" viewBox="0 0 64 64" fill="none" xmlns="http://www.w3.org/2000/svg">
<path d="M32 40C34.8289 40 37.542 38.8762 39.5424 36.8758C41.5428 34.8754 42.6666 32.1623 42.6666 29.3333V13.3333C42.6666 10.5044 41.5428 7.79125 39.5424 5.79087C37.542 3.79048 34.8289 2.66667 32 2.66667C29.171 2.66667 26.4579 3.79048 24.4575 5.79087C22.4571 7.79125 21.3333 10.5044 21.3333 13.3333V29.3333C21.3333 32.1623 22.4571 34.8754 24.4575 36.8758C26.4579 38.8762 29.171 40 32 40ZM26.6666 13.3333C26.6666 11.9188 27.2285 10.5623 28.2287 9.5621C29.2289 8.56191 30.5855 8 32 8C33.4144 8 34.771 8.56191 35.7712 9.5621C36.7714 10.5623 37.3333 11.9188 37.3333 13.3333V29.3333C37.3333 30.7478 36.7714 32.1044 35.7712 33.1046C34.771 34.1048 33.4144 34.6667 32 34.6667C30.5855 34.6667 29.2289 34.1048 28.2287 33.1046C27.2285 32.1044 26.6666 30.7478 26.6666 29.3333V13.3333ZM53.3333 29.3333C53.3333 28.6261 53.0523 27.9478 52.5522 27.4477C52.0521 26.9476 51.3739 26.6667 50.6666 26.6667C49.9594 26.6667 49.2811 26.9476 48.781 27.4477C48.2809 27.9478 48 28.6261 48 29.3333C48 33.5768 46.3143 37.6465 43.3137 40.647C40.3131 43.6476 36.2434 45.3333 32 45.3333C27.7565 45.3333 23.6868 43.6476 20.6863 40.647C17.6857 37.6465 16 33.5768 16 29.3333C16 28.6261 15.719 27.9478 15.2189 27.4477C14.7188 26.9476 14.0405 26.6667 13.3333 26.6667C12.626 26.6667 11.9478 26.9476 11.4477 27.4477C10.9476 27.9478 10.6666 28.6261 10.6666 29.3333C10.6713 34.5261 12.5699 39.5389 16.0064 43.4319C19.4428 47.325 24.1812 49.8309 29.3333 50.48V56H24C23.2927 56 22.6144 56.281 22.1143 56.781C21.6142 57.2811 21.3333 57.9594 21.3333 58.6667C21.3333 59.3739 21.6142 60.0522 22.1143 60.5523C22.6144 61.0524 23.2927 61.3333 24 61.3333H40C40.7072 61.3333 41.3855 61.0524 41.8856 60.5523C42.3857 60.0522 42.6666 59.3739 42.6666 58.6667C42.6666 57.9594 42.3857 57.2811 41.8856 56.781C41.3855 56.281 40.7072 56 40 56H34.6666V50.48C39.8187 49.8309 44.5571 47.325 47.9936 43.4319C51.43 39.5389 53.3286 34.5261 53.3333 29.3333Z" fill="#00C470"/>
</svg>
