<svg width="64" height="64" viewBox="0 0 64 64" fill="none" xmlns="http://www.w3.org/2000/svg">
<path d="M58.6667 45.3333H5.33335C4.62611 45.3333 3.94783 45.6143 3.44774 46.1144C2.94764 46.6145 2.66669 47.2928 2.66669 48C2.66669 48.7072 2.94764 49.3855 3.44774 49.8856C3.94783 50.3857 4.62611 50.6667 5.33335 50.6667H58.6667C59.3739 50.6667 60.0522 50.3857 60.5523 49.8856C61.0524 49.3855 61.3334 48.7072 61.3334 48C61.3334 47.2928 61.0524 46.6145 60.5523 46.1144C60.0522 45.6143 59.3739 45.3333 58.6667 45.3333ZM58.6667 56H5.33335C4.62611 56 3.94783 56.281 3.44774 56.781C2.94764 57.2811 2.66669 57.9594 2.66669 58.6667C2.66669 59.3739 2.94764 60.0522 3.44774 60.5523C3.94783 61.0524 4.62611 61.3333 5.33335 61.3333H58.6667C59.3739 61.3333 60.0522 61.0524 60.5523 60.5523C61.0524 60.0522 61.3334 59.3739 61.3334 58.6667C61.3334 57.9594 61.0524 57.2811 60.5523 56.781C60.0522 56.281 59.3739 56 58.6667 56ZM16 18.6667C15.4726 18.6667 14.957 18.8231 14.5185 19.1161C14.08 19.4091 13.7382 19.8256 13.5363 20.3128C13.3345 20.8001 13.2817 21.3363 13.3846 21.8536C13.4875 22.3709 13.7415 22.846 14.1144 23.219C14.4873 23.5919 14.9625 23.8459 15.4798 23.9488C15.9971 24.0517 16.5332 23.9988 17.0205 23.797C17.5078 23.5952 17.9243 23.2534 18.2173 22.8149C18.5103 22.3763 18.6667 21.8608 18.6667 21.3333C18.6667 20.6261 18.3857 19.9478 17.8856 19.4477C17.3855 18.9476 16.7073 18.6667 16 18.6667ZM53.3334 2.66667H10.6667C8.54495 2.66667 6.51012 3.50953 5.00983 5.00982C3.50954 6.51011 2.66669 8.54494 2.66669 10.6667V32C2.66669 34.1217 3.50954 36.1566 5.00983 37.6569C6.51012 39.1572 8.54495 40 10.6667 40H53.3334C55.4551 40 57.4899 39.1572 58.9902 37.6569C60.4905 36.1566 61.3334 34.1217 61.3334 32V10.6667C61.3334 8.54494 60.4905 6.51011 58.9902 5.00982C57.4899 3.50953 55.4551 2.66667 53.3334 2.66667ZM56 32C56 32.7072 55.7191 33.3855 55.219 33.8856C54.7189 34.3857 54.0406 34.6667 53.3334 34.6667H10.6667C9.95944 34.6667 9.28117 34.3857 8.78107 33.8856C8.28097 33.3855 8.00002 32.7072 8.00002 32V10.6667C8.00002 9.95943 8.28097 9.28115 8.78107 8.78105C9.28117 8.28096 9.95944 8 10.6667 8H53.3334C54.0406 8 54.7189 8.28096 55.219 8.78105C55.7191 9.28115 56 9.95943 56 10.6667V32ZM32 13.3333C30.4178 13.3333 28.871 13.8025 27.5555 14.6816C26.2399 15.5606 25.2145 16.8101 24.609 18.2719C24.0035 19.7337 23.8451 21.3422 24.1537 22.8941C24.4624 24.4459 25.2243 25.8714 26.3432 26.9902C27.462 28.109 28.8874 28.8709 30.4393 29.1796C31.9911 29.4883 33.5997 29.3299 35.0615 28.7244C36.5233 28.1189 37.7727 27.0935 38.6518 25.7779C39.5308 24.4623 40 22.9156 40 21.3333C40 19.2116 39.1572 17.1768 37.6569 15.6765C36.1566 14.1762 34.1217 13.3333 32 13.3333ZM32 24C31.4726 24 30.957 23.8436 30.5185 23.5506C30.08 23.2576 29.7382 22.8411 29.5363 22.3538C29.3345 21.8666 29.2817 21.3304 29.3846 20.8131C29.4875 20.2958 29.7415 19.8207 30.1144 19.4477C30.4873 19.0748 30.9625 18.8208 31.4798 18.7179C31.9971 18.615 32.5332 18.6678 33.0205 18.8697C33.5078 19.0715 33.9243 19.4133 34.2173 19.8518C34.5103 20.2903 34.6667 20.8059 34.6667 21.3333C34.6667 22.0406 34.3857 22.7189 33.8856 23.219C33.3855 23.7191 32.7073 24 32 24ZM48 18.6667C47.4726 18.6667 46.957 18.8231 46.5185 19.1161C46.08 19.4091 45.7382 19.8256 45.5363 20.3128C45.3345 20.8001 45.2817 21.3363 45.3846 21.8536C45.4875 22.3709 45.7415 22.846 46.1144 23.219C46.4873 23.5919 46.9625 23.8459 47.4798 23.9488C47.9971 24.0517 48.5332 23.9988 49.0205 23.797C49.5078 23.5952 49.9243 23.2534 50.2173 22.8149C50.5103 22.3763 50.6667 21.8608 50.6667 21.3333C50.6667 20.6261 50.3857 19.9478 49.8856 19.4477C49.3855 18.9476 48.7073 18.6667 48 18.6667Z" fill="#10ABED" fill-opacity="0.91"/>
</svg>
