<svg width="64" height="64" viewBox="0 0 64 64" fill="none" xmlns="http://www.w3.org/2000/svg">
<path d="M50.3333 32H31.6667V13.3333C31.6667 11.7333 30.6 10.6667 29 10.6667C15.6667 10.6667 5 21.3333 5 34.6667C5 48 15.6667 58.6667 29 58.6667C42.3333 58.6667 53 48 53 34.6667C53 33.0667 51.9333 32 50.3333 32ZM31.6667 53.0667C21.5333 54.6667 11.9333 47.4667 10.6 37.3333C9 27.2 16.2 17.6 26.3333 16.2667V34.6667C26.3333 36.2667 27.4 37.3333 29 37.3333H47.4C46.3333 45.6 39.9333 52 31.6667 53.0667ZM39.6667 5.33333C38.0667 5.33333 37 6.39999 37 7.99999V24C37 25.6 38.0667 26.6667 39.6667 26.6667H55.6667C57.2667 26.6667 58.3333 25.6 58.3333 24C58.3333 13.6 50.0667 5.33333 39.6667 5.33333ZM42.3333 21.3333V10.9333C47.6667 12 51.6667 16 52.7333 21.3333H42.3333Z" fill="#AC3DF0"/>
</svg>
