<svg width="414" height="30" viewBox="0 0 414 30" fill="none" xmlns="http://www.w3.org/2000/svg">
<path d="M2.61526 29.8755C1.82523 29.8755 1.18504 29.6404 0.694678 29.1701C0.231559 28.6722 0 28.0083 0 27.1784V2.90456C0 2.10235 0.217938 1.47995 0.653815 1.03735C1.11693 0.594745 1.74351 0.373444 2.53353 0.373444H12.5859C15.6643 0.373444 18.0616 1.16183 19.7779 2.73859C21.4942 4.28769 22.3523 6.47303 22.3523 9.29461C22.3523 12.1162 21.4942 14.3154 19.7779 15.8921C18.0616 17.4689 15.6643 18.2573 12.5859 18.2573H5.27138V27.1784C5.27138 28.0083 5.0262 28.6722 4.53584 29.1701C4.07272 29.6404 3.43253 29.8755 2.61526 29.8755ZM11.9321 14.1494C15.5554 14.1494 17.367 12.545 17.367 9.3361C17.367 6.12725 15.5554 4.52282 11.9321 4.52282H5.27138V14.1494H11.9321Z" fill="#333333"/>
<path d="M62.2743 26.4315C62.4378 26.7912 62.5195 27.1508 62.5195 27.5104C62.5195 28.1466 62.2607 28.686 61.7431 29.1286C61.2527 29.5712 60.6806 29.7925 60.0268 29.7925C59.5909 29.7925 59.1823 29.6819 58.8009 29.4606C58.4195 29.2116 58.1198 28.8382 57.9019 28.3403L55.4501 22.7801H41.0662L38.6144 28.3403C38.3964 28.8382 38.0968 29.2116 37.7154 29.4606C37.334 29.6819 36.9117 29.7925 36.4486 29.7925C35.822 29.7925 35.2499 29.5712 34.7323 29.1286C34.2147 28.686 33.9559 28.1466 33.9559 27.5104C33.9559 27.1508 34.0377 26.7912 34.2011 26.4315L45.4794 1.82573C45.7246 1.27248 46.0924 0.857538 46.5827 0.580913C47.1003 0.276626 47.6452 0.124482 48.2173 0.124482C48.7894 0.124482 49.3206 0.276626 49.8109 0.580913C50.3285 0.857538 50.7099 1.27248 50.9551 1.82573L62.2743 26.4315ZM42.8642 18.6307H53.6521L48.2581 6.30705L42.8642 18.6307Z" fill="#333333"/>
<path d="M112.12 1.78423C112.31 1.23098 112.61 0.816045 113.019 0.53942C113.455 0.262795 113.931 0.124482 114.449 0.124482C115.103 0.124482 115.661 0.331951 116.124 0.746888C116.615 1.16183 116.86 1.71508 116.86 2.40664C116.86 2.6556 116.792 3.01522 116.656 3.48548L107.87 28.1743C107.652 28.7275 107.284 29.1563 106.767 29.4606C106.276 29.7649 105.731 29.917 105.132 29.917C104.533 29.917 103.974 29.7649 103.457 29.4606C102.939 29.1563 102.585 28.7275 102.394 28.1743L95.6109 8.63071L88.705 28.1743C88.487 28.7275 88.1193 29.1563 87.6017 29.4606C87.1113 29.7649 86.5664 29.917 85.9671 29.917C85.3678 29.917 84.8093 29.7649 84.2917 29.4606C83.8013 29.1563 83.4608 28.7275 83.2701 28.1743L74.4845 3.48548C74.3483 3.07054 74.2802 2.71093 74.2802 2.40664C74.2802 1.71508 74.5254 1.16183 75.0157 0.746888C75.5333 0.331951 76.1326 0.124482 76.8137 0.124482C77.3585 0.124482 77.8489 0.262795 78.2848 0.53942C78.7207 0.816045 79.034 1.23098 79.2246 1.78423L86.1714 22.0747L93.3225 1.90871C93.5132 1.35546 93.8265 0.926695 94.2624 0.622406C94.6983 0.290457 95.175 0.124482 95.6926 0.124482C96.2102 0.124482 96.687 0.290457 97.1228 0.622406C97.586 0.926695 97.9129 1.3693 98.1036 1.95021L105.05 22.3237L112.12 1.78423Z" fill="#333333"/>
<path d="M136.244 29.8755C135.453 29.8755 134.813 29.6266 134.323 29.1286C133.86 28.6307 133.628 27.9806 133.628 27.1784V2.90456C133.628 2.10235 133.846 1.47995 134.282 1.03735C134.745 0.594745 135.372 0.373444 136.162 0.373444H150.505C152.167 0.373444 152.998 1.09267 152.998 2.53112C152.998 3.94191 152.167 4.6473 150.505 4.6473H138.818V12.6141H149.688C151.349 12.6141 152.18 13.3333 152.18 14.7718C152.18 16.1826 151.349 16.888 149.688 16.888H138.818V27.1784C138.818 27.9806 138.586 28.6307 138.123 29.1286C137.66 29.6266 137.034 29.8755 136.244 29.8755Z" fill="#333333"/>
<path d="M171.566 29.6266C170.776 29.6266 170.15 29.4053 169.686 28.9627C169.251 28.5201 169.033 27.8977 169.033 27.0954V2.90456C169.033 2.10235 169.251 1.47995 169.686 1.03735C170.15 0.594745 170.776 0.373444 171.566 0.373444H186.318C187.108 0.373444 187.721 0.553251 188.157 0.912864C188.593 1.27248 188.81 1.78423 188.81 2.44813C188.81 3.1397 188.593 3.67911 188.157 4.06639C187.721 4.426 187.108 4.60581 186.318 4.60581H174.181V12.6556H185.501C186.291 12.6556 186.904 12.8354 187.339 13.195C187.775 13.5546 187.993 14.0802 187.993 14.7718C187.993 15.4357 187.775 15.9474 187.339 16.3071C186.904 16.6667 186.291 16.8465 185.501 16.8465H174.181V25.3942H186.318C187.108 25.3942 187.721 25.5878 188.157 25.9751C188.593 26.3347 188.81 26.8603 188.81 27.5519C188.81 28.2158 188.593 28.7275 188.157 29.0871C187.721 29.4468 187.108 29.6266 186.318 29.6266H171.566Z" fill="#333333"/>
<path d="M218.147 30C215.368 30 212.93 29.3914 210.832 28.1743C208.762 26.9571 207.168 25.2144 206.051 22.9461C204.934 20.6777 204.376 18.0221 204.376 14.9793C204.376 11.9364 204.934 9.29461 206.051 7.05394C207.168 4.78562 208.762 3.04288 210.832 1.82573C212.93 0.608576 215.368 0 218.147 0C219.945 0 221.634 0.276626 223.214 0.829877C224.794 1.35546 226.197 2.13002 227.423 3.15353C227.777 3.43015 228.022 3.72061 228.158 4.0249C228.295 4.32919 228.363 4.70263 228.363 5.14523C228.363 5.7538 228.199 6.26556 227.872 6.6805C227.546 7.09544 227.151 7.30291 226.687 7.30291C226.143 7.30291 225.584 7.10927 225.012 6.72199C223.841 5.83679 222.751 5.22822 221.743 4.89627C220.735 4.53665 219.618 4.35685 218.392 4.35685C215.559 4.35685 213.407 5.25588 211.936 7.05394C210.492 8.85201 209.77 11.4938 209.77 14.9793C209.77 18.4924 210.492 21.148 211.936 22.9461C213.407 24.7441 215.559 25.6432 218.392 25.6432C219.564 25.6432 220.64 25.4634 221.62 25.1037C222.628 24.7441 223.759 24.1355 225.012 23.278C225.284 23.112 225.557 22.9737 225.829 22.8631C226.102 22.7524 226.388 22.6971 226.687 22.6971C227.151 22.6971 227.546 22.9046 227.872 23.3195C228.199 23.7344 228.363 24.2462 228.363 24.8548C228.363 25.2697 228.295 25.6432 228.158 25.9751C228.022 26.2794 227.777 26.5698 227.423 26.8465C226.197 27.87 224.794 28.6584 223.214 29.2116C221.634 29.7372 219.945 30 218.147 30Z" fill="#333333"/>
<path d="M254.269 29.834C253.452 29.834 252.798 29.5989 252.308 29.1286C251.844 28.6307 251.613 27.9806 251.613 27.1784V4.77178H244.176C242.541 4.77178 241.724 4.03873 241.724 2.57262C241.724 1.1065 242.541 0.373444 244.176 0.373444H264.321C265.956 0.373444 266.773 1.1065 266.773 2.57262C266.773 4.03873 265.956 4.77178 264.321 4.77178H256.884V27.1784C256.884 27.9806 256.639 28.6307 256.149 29.1286C255.686 29.5989 255.059 29.834 254.269 29.834Z" fill="#333333"/>
<path d="M284.765 29.8755C283.975 29.8755 283.334 29.6266 282.844 29.1286C282.381 28.6307 282.149 27.9806 282.149 27.1784V2.82158C282.149 2.01937 282.381 1.38313 282.844 0.912864C283.334 0.414938 283.975 0.165975 284.765 0.165975C285.582 0.165975 286.222 0.414938 286.685 0.912864C287.176 1.38313 287.421 2.01937 287.421 2.82158V27.1784C287.421 27.9806 287.176 28.6307 286.685 29.1286C286.222 29.6266 285.582 29.8755 284.765 29.8755Z" fill="#333333"/>
<path d="M318.732 30C315.926 30 313.488 29.3914 311.418 28.1743C309.375 26.9571 307.795 25.2144 306.678 22.9461C305.561 20.6777 305.002 18.0221 305.002 14.9793C305.002 11.9364 305.547 9.29461 306.637 7.05394C307.754 4.78562 309.347 3.04288 311.418 1.82573C313.488 0.608576 315.926 0 318.732 0C321.538 0 323.963 0.608576 326.006 1.82573C328.076 3.04288 329.656 4.78562 330.746 7.05394C331.863 9.29461 332.422 11.9364 332.422 14.9793C332.422 18.0221 331.863 20.6777 330.746 22.9461C329.629 25.2144 328.036 26.9571 325.965 28.1743C323.922 29.3914 321.511 30 318.732 30ZM318.732 25.7261C321.375 25.7261 323.432 24.7994 324.903 22.9461C326.401 21.0927 327.15 18.4371 327.15 14.9793C327.15 11.5214 326.401 8.87967 324.903 7.05394C323.432 5.20055 321.375 4.27386 318.732 4.27386C316.063 4.27386 313.979 5.20055 312.48 7.05394C311.009 8.87967 310.274 11.5214 310.274 14.9793C310.274 18.4371 311.009 21.0927 312.48 22.9461C313.979 24.7994 316.063 25.7261 318.732 25.7261Z" fill="#333333"/>
<path d="M371.826 0.165975C372.589 0.165975 373.188 0.414938 373.624 0.912864C374.087 1.38313 374.319 2.01937 374.319 2.82158V27.1784C374.319 27.9806 374.087 28.6307 373.624 29.1286C373.161 29.6266 372.562 29.8755 371.826 29.8755C370.954 29.8755 370.287 29.5574 369.824 28.9212L354.909 9.21162V27.1784C354.909 27.9806 354.691 28.6307 354.255 29.1286C353.819 29.6266 353.22 29.8755 352.457 29.8755C351.694 29.8755 351.095 29.6266 350.659 29.1286C350.223 28.6307 350.005 27.9806 350.005 27.1784V2.82158C350.005 2.01937 350.237 1.38313 350.7 0.912864C351.163 0.414938 351.776 0.165975 352.538 0.165975C353.383 0.165975 354.037 0.484094 354.5 1.12033L369.374 20.7469V2.82158C369.374 2.01937 369.592 1.38313 370.028 0.912864C370.491 0.414938 371.09 0.165975 371.826 0.165975Z" fill="#333333"/>
<path d="M402.763 30C400.665 30 398.676 29.7234 396.796 29.1701C394.944 28.5892 393.432 27.8147 392.261 26.8465C391.634 26.3762 391.321 25.7123 391.321 24.8548C391.321 24.2739 391.484 23.7759 391.811 23.361C392.165 22.9184 392.574 22.6971 393.037 22.6971C393.527 22.6971 394.086 22.8907 394.712 23.278C395.884 24.1355 397.11 24.758 398.39 25.1452C399.671 25.5325 401.087 25.7261 402.64 25.7261C404.629 25.7261 406.154 25.3804 407.217 24.6888C408.279 23.9696 408.81 22.9322 408.81 21.5768C408.81 20.5256 408.306 19.7234 407.298 19.1701C406.318 18.5892 404.67 18.036 402.354 17.5104C399.957 16.9848 398.009 16.3762 396.51 15.6846C395.012 14.9931 393.882 14.1079 393.119 13.029C392.356 11.9502 391.975 10.5809 391.975 8.92116C391.975 7.20609 392.451 5.67082 393.405 4.31535C394.358 2.95989 395.68 1.90871 397.369 1.16183C399.085 0.387275 401.005 0 403.13 0C407.026 0 410.2 1.05118 412.652 3.15353C413.006 3.45782 413.251 3.7621 413.387 4.06639C413.551 4.34302 413.632 4.70263 413.632 5.14523C413.632 5.72614 413.455 6.2379 413.101 6.6805C412.774 7.09544 412.379 7.30291 411.916 7.30291C411.644 7.30291 411.385 7.26141 411.14 7.17843C410.922 7.09544 410.622 6.94329 410.241 6.72199C409.124 5.89212 408.034 5.28354 406.971 4.89627C405.936 4.48133 404.656 4.27386 403.13 4.27386C401.278 4.27386 399.807 4.66114 398.717 5.43569C397.655 6.18257 397.123 7.23375 397.123 8.58921C397.123 9.72338 397.6 10.5947 398.554 11.2033C399.507 11.8119 401.128 12.379 403.416 12.9046C405.841 13.4578 407.802 14.0802 409.301 14.7718C410.826 15.4357 411.984 16.2932 412.774 17.3444C413.591 18.3956 414 19.7095 414 21.2863C414 23.0014 413.523 24.5228 412.57 25.8506C411.644 27.1508 410.322 28.1743 408.606 28.9212C406.917 29.6404 404.969 30 402.763 30Z" fill="#333333"/>
</svg>
