<svg width="48" height="48" viewBox="0 0 48 48" fill="none" xmlns="http://www.w3.org/2000/svg">
<g clip-path="url(#clip0_112_391)">
<path d="M2.99991 3.26609C-0.77209 7.18409 -8.97646e-05 11.3461 -8.97646e-05 23.9901C-8.97646e-05 34.4901 -1.83209 45.0161 7.75591 47.4941C10.7499 48.2641 37.2779 48.2641 40.2679 47.4901C44.2599 46.4601 47.5079 43.2221 47.9519 37.5761C48.0139 36.7881 48.0139 11.2061 47.9499 10.4021C47.4779 4.38809 43.7759 0.922093 38.8979 0.220093C37.7799 0.0580928 37.5559 0.0100928 31.8199 9.27895e-05C11.4739 0.0100928 7.01391 -0.895907 2.99991 3.26609Z" fill="url(#paint0_linear_112_391)"/>
<path d="M23.9961 6.27809C16.7341 6.27809 9.83812 5.63209 7.20412 12.3921C6.11612 15.1841 6.27412 18.8101 6.27412 24.0021C6.27412 28.5581 6.12812 32.8401 7.20412 35.6101C9.83212 42.3741 16.7841 41.7261 23.9921 41.7261C30.9461 41.7261 38.1161 42.4501 40.7821 35.6101C41.8721 32.7901 41.7121 29.2181 41.7121 24.0021C41.7121 17.0781 42.0941 12.6081 38.7361 9.25209C35.3361 5.85209 30.7381 6.27809 23.9881 6.27809H23.9961ZM22.4081 9.47209C37.5561 9.44809 39.4841 7.76409 38.4201 31.1581C38.0421 39.4321 31.7421 38.5241 23.9981 38.5241C9.87812 38.5241 9.47212 38.1201 9.47212 23.9941C9.47212 9.70409 10.5921 9.48009 22.4081 9.46809V9.47209ZM33.4561 12.4141C32.2821 12.4141 31.3301 13.3661 31.3301 14.5401C31.3301 15.7141 32.2821 16.6661 33.4561 16.6661C34.6301 16.6661 35.5821 15.7141 35.5821 14.5401C35.5821 13.3661 34.6301 12.4141 33.4561 12.4141ZM23.9961 14.9001C18.9701 14.9001 14.8961 18.9761 14.8961 24.0021C14.8961 29.0281 18.9701 33.1021 23.9961 33.1021C29.0221 33.1021 33.0941 29.0281 33.0941 24.0021C33.0941 18.9761 29.0221 14.9001 23.9961 14.9001ZM23.9961 18.0941C31.8061 18.0941 31.8161 29.9101 23.9961 29.9101C16.1881 29.9101 16.1761 18.0941 23.9961 18.0941Z" fill="white"/>
</g>
<defs>
<linearGradient id="paint0_linear_112_391" x1="3.09195" y1="44.9343" x2="47.7029" y2="6.32404" gradientUnits="userSpaceOnUse">
<stop stop-color="#FFDD55"/>
<stop offset="0.5" stop-color="#FF543E"/>
<stop offset="1" stop-color="#C837AB"/>
</linearGradient>
<clipPath id="clip0_112_391">
<rect width="48" height="48" fill="white"/>
</clipPath>
</defs>
</svg>
