<svg width="48" height="48" viewBox="0 0 48 48" fill="none" xmlns="http://www.w3.org/2000/svg">
<path d="M24 48C37.2548 48 48 37.2548 48 24C48 10.7452 37.2548 0 24 0C10.7452 0 0 10.7452 0 24C0 37.2548 10.7452 48 24 48Z" fill="#4D76A1"/>
<path fill-rule="evenodd" clip-rule="evenodd" d="M23.0933 34.5261H24.977C24.977 34.5261 25.546 34.4637 25.8365 34.1505C26.1039 33.863 26.0953 33.3231 26.0953 33.3231C26.0953 33.3231 26.0585 30.7955 27.2316 30.4233C28.388 30.0567 29.873 32.8662 31.447 33.9464C32.6372 34.764 33.5416 34.5847 33.5416 34.5847L37.7501 34.5261C37.7501 34.5261 39.9517 34.3905 38.9078 32.6595C38.8222 32.5179 38.2998 31.3791 35.7787 29.0389C33.1399 26.5896 33.4933 26.9858 36.672 22.749C38.6079 20.1688 39.3818 18.5936 39.1401 17.9189C38.9095 17.2763 37.4857 17.4462 37.4857 17.4462L32.7471 17.4757C32.7471 17.4757 32.3959 17.4278 32.1353 17.5835C31.8808 17.7362 31.7169 18.0922 31.7169 18.0922C31.7169 18.0922 30.967 20.0888 29.9667 21.7869C27.8567 25.3699 27.013 25.559 26.6682 25.3365C25.866 24.818 26.0662 23.2534 26.0662 22.142C26.0662 18.6697 26.5929 17.222 25.0408 16.8472C24.5257 16.7227 24.1466 16.6406 22.8293 16.6273C21.1386 16.6098 19.7075 16.6324 18.8972 17.0295C18.3582 17.2934 17.9423 17.8817 18.1956 17.9155C18.5088 17.9574 19.2181 18.1067 19.5941 18.6188C20.0797 19.2794 20.0626 20.7631 20.0626 20.7631C20.0626 20.7631 20.3416 24.8505 19.411 25.3583C18.7723 25.7066 17.8961 24.9955 16.015 21.7449C15.0511 20.0798 14.3234 18.2394 14.3234 18.2394C14.3234 18.2394 14.183 17.8954 13.9328 17.7114C13.629 17.4885 13.2046 17.4175 13.2046 17.4175L8.70178 17.447C8.70178 17.447 8.02582 17.4658 7.77768 17.7598C7.55693 18.0212 7.76014 18.5619 7.76014 18.5619C7.76014 18.5619 11.2854 26.8095 15.277 30.9658C18.937 34.7764 23.0933 34.5261 23.0933 34.5261Z" fill="white"/>
</svg>
