<svg width="48" height="48" viewBox="0 0 48 48" fill="none" xmlns="http://www.w3.org/2000/svg">
<g clip-path="url(#clip0_122_1097)">
<path d="M23.9871 0.0126382C10.7401 0.015449 0.00357906 10.7566 0.00638989 24.0036C0.00732684 28.5906 1.32364 33.0811 3.79905 36.9428L0.0672913 46.6251C-0.131435 47.1401 0.124914 47.7186 0.639859 47.9174C0.755009 47.9618 0.877281 47.9845 1.00068 47.9843C1.11517 47.9849 1.22882 47.9653 1.33648 47.9263L11.3306 44.3585C22.5751 51.3617 37.3677 47.9234 44.3709 36.6788C51.374 25.4342 47.9357 10.6416 36.6912 3.63852C32.8795 1.26449 28.4778 0.00823454 23.9871 0.0126382Z" fill="#55CD6C"/>
<path d="M35.422 28.098C35.422 28.098 32.9735 26.8987 31.4404 26.0992C29.7054 25.2057 27.6666 26.8787 26.7072 27.8302C25.214 27.2566 23.8502 26.3908 22.6956 25.2837C21.5882 24.1292 20.7225 22.7654 20.1491 21.272C21.1005 20.3106 22.7695 18.2738 21.8801 16.5389C21.0905 15.0038 19.8813 12.5572 19.8813 12.5552C19.7116 12.2185 19.3669 12.0059 18.9898 12.0055H16.991C14.0801 12.5083 11.9636 15.0482 11.994 18.002C11.994 21.1401 15.7497 27.1686 18.2823 29.703C20.8148 32.2375 26.8433 35.9913 29.9833 35.9913C32.9371 36.0217 35.477 33.9051 35.9798 30.9943V28.9955C35.9801 28.6144 35.7638 28.2663 35.422 28.098Z" fill="#FAFAFA"/>
</g>
<defs>
<clipPath id="clip0_122_1097">
<rect width="48" height="48" fill="white"/>
</clipPath>
</defs>
</svg>
