<svg display="none" xmlns="http://www.w3.org/2000/svg">
    <symbol id="iconGh" viewBox="0 0 42 42">
        <g>
          <g clip-path="url(#clip0_112_516)">
<path d="M21 0.875C9.3975 0.875 0 10.115 0 21.511C0 30.6303 6.0165 38.3635 14.3587 41.09C15.4087 41.2843 15.7937 40.6455 15.7937 40.0978C15.7937 39.6078 15.7763 38.3093 15.7675 36.589C9.926 37.8333 8.694 33.8205 8.694 33.8205C7.7385 31.4388 6.35775 30.8018 6.35775 30.8018C4.4555 29.5225 6.50475 29.5488 6.50475 29.5488C8.6135 29.6923 9.72125 31.675 9.72125 31.675C11.5938 34.8303 14.637 33.9185 15.8375 33.3918C16.0265 32.0565 16.5673 31.1483 17.1675 30.632C12.5038 30.1158 7.602 28.3413 7.602 20.4348C7.602 18.1825 8.41575 16.3415 9.76325 14.8977C9.527 14.3763 8.81825 12.278 9.947 9.436C9.947 9.436 11.7058 8.883 15.722 11.5518C17.402 11.0933 19.187 10.8658 20.972 10.8553C22.757 10.8658 24.542 11.0933 26.222 11.5518C30.212 8.883 31.9707 9.436 31.9707 9.436C33.0995 12.278 32.3908 14.3763 32.1807 14.8977C33.5195 16.3415 34.3332 18.1825 34.3332 20.4348C34.3332 28.3623 29.4245 30.107 24.752 30.6145C25.487 31.234 26.1695 32.4993 26.1695 34.433C26.1695 37.1945 26.1432 39.4135 26.1432 40.0838C26.1432 40.6245 26.5107 41.2703 27.587 41.0638C35.9888 38.3548 42 30.6163 42 21.511C42 10.115 32.5972 0.875 21 0.875Z" fill="#212121"/>
</g>
<defs>
<clipPath id="clip0_112_516">
<rect width="42" height="42" fill="white"/>
</clipPath>
</defs>
       </g>
      </symbol>
<symbol id="iconsId" viewBox="0 0 32 32">
  <g>
<g clip-path="url(#clip0_112_518)">
<path d="M7.44897 10.2947H1.02492C0.739808 10.2947 0.508789 10.5258 0.508789 10.8108V31.4485C0.508789 31.7336 0.739808 31.9647 1.02492 31.9647H7.44897C7.73408 31.9647 7.9651 31.7336 7.9651 31.4485V10.8108C7.9651 10.5258 7.73408 10.2947 7.44897 10.2947Z" fill="black"/>
<path d="M4.23907 0.0351562C1.90163 0.0351562 0 1.93472 0 4.26958C0 6.60548 1.90163 8.50576 4.23907 8.50576C6.57466 8.50576 8.47474 6.60538 8.47474 4.26958C8.47484 1.93472 6.57466 0.0351562 4.23907 0.0351562Z" fill="black"/>
<path d="M23.7892 9.78174C21.209 9.78174 19.3017 10.8909 18.1449 12.1512V10.8108C18.1449 10.5258 17.9138 10.2947 17.6287 10.2947H11.4766C11.1915 10.2947 10.9604 10.5258 10.9604 10.8108V31.4485C10.9604 31.7336 11.1915 31.9647 11.4766 31.9647H17.8866C18.1717 31.9647 18.4027 31.7336 18.4027 31.4485V21.2376C18.4027 17.7968 19.3373 16.4563 21.7359 16.4563C24.3481 16.4563 24.5557 18.6053 24.5557 21.4147V31.4486C24.5557 31.7337 24.7867 31.9648 25.0718 31.9648H31.4842C31.7693 31.9648 32.0004 31.7337 32.0004 31.4486V20.1285C32.0004 15.0121 31.0248 9.78174 23.7892 9.78174Z" fill="black"/>
</g>
<defs>
<clipPath id="clip0_112_518">
<rect width="32" height="32" fill="white"/>
</clipPath>
</defs>
  </g>
      </symbol>

<symbol id="iconTg" viewBox="0 0 48 48" >
  <g>
<path d="M24 48C37.2548 48 48 37.2548 48 24C48 10.7452 37.2548 0 24 0C10.7452 0 0 10.7452 0 24C0 37.2548 10.7452 48 24 48Z" fill="#039BE5"/>
<path d="M10.9815 23.48L34.1216 14.558C35.1956 14.17 36.1336 14.82 35.7856 16.444L35.7875 16.442L31.8475 35.004C31.5555 36.32 30.7736 36.64 29.6796 36.02L23.6796 31.598L20.7855 34.386C20.4655 34.706 20.1955 34.976 19.5755 34.976L20.0015 28.87L31.1215 18.824C31.6056 18.398 31.0135 18.158 30.3755 18.582L16.6336 27.234L10.7095 25.386C9.42355 24.978 9.39555 24.1 10.9815 23.48Z" fill="white"/>
  </g>
      </symbol>
      <symbol id="iconVk" viewBox="0 0 48 48" >
  <g>
  <path d="M24 48C37.2548 48 48 37.2548 48 24C48 10.7452 37.2548 0 24 0C10.7452 0 0 10.7452 0 24C0 37.2548 10.7452 48 24 48Z" fill="#4D76A1"/>
<path fill-rule="evenodd" clip-rule="evenodd" d="M23.0933 34.5261H24.977C24.977 34.5261 25.546 34.4637 25.8365 34.1505C26.1039 33.863 26.0953 33.3231 26.0953 33.3231C26.0953 33.3231 26.0585 30.7955 27.2316 30.4233C28.388 30.0567 29.873 32.8662 31.447 33.9464C32.6372 34.764 33.5416 34.5847 33.5416 34.5847L37.7501 34.5261C37.7501 34.5261 39.9517 34.3905 38.9078 32.6595C38.8222 32.5179 38.2998 31.3791 35.7787 29.0389C33.1399 26.5896 33.4933 26.9858 36.672 22.749C38.6079 20.1688 39.3818 18.5936 39.1401 17.9189C38.9095 17.2763 37.4857 17.4462 37.4857 17.4462L32.7471 17.4757C32.7471 17.4757 32.3959 17.4278 32.1353 17.5835C31.8808 17.7362 31.7169 18.0922 31.7169 18.0922C31.7169 18.0922 30.967 20.0888 29.9667 21.7869C27.8567 25.3699 27.013 25.559 26.6682 25.3365C25.866 24.818 26.0662 23.2534 26.0662 22.142C26.0662 18.6697 26.5929 17.222 25.0408 16.8472C24.5257 16.7227 24.1466 16.6406 22.8293 16.6273C21.1386 16.6098 19.7075 16.6324 18.8972 17.0295C18.3582 17.2934 17.9423 17.8817 18.1956 17.9155C18.5088 17.9574 19.2181 18.1067 19.5941 18.6188C20.0797 19.2794 20.0626 20.7631 20.0626 20.7631C20.0626 20.7631 20.3416 24.8505 19.411 25.3583C18.7723 25.7066 17.8961 24.9955 16.015 21.7449C15.0511 20.0798 14.3234 18.2394 14.3234 18.2394C14.3234 18.2394 14.183 17.8954 13.9328 17.7114C13.629 17.4885 13.2046 17.4175 13.2046 17.4175L8.70178 17.447C8.70178 17.447 8.02582 17.4658 7.77768 17.7598C7.55693 18.0212 7.76014 18.5619 7.76014 18.5619C7.76014 18.5619 11.2854 26.8095 15.277 30.9658C18.937 34.7764 23.0933 34.5261 23.0933 34.5261Z" fill="white"/>
  </g>
      </symbol>
      <symbol id="iconFb" viewBox="0 0 48 48" >
  <g>
  <path d="M23.9999 0C37.2555 0 48 10.746 48 24.0001C48 37.2557 37.2555 48 23.9999 48C10.7443 48 0 37.2555 0 24.0001C0 10.746 10.7445 0 23.9999 0Z" fill="#3B5998"/>
<path d="M26.9219 16.5224H30.0149V11.9534H26.379V11.9699C21.9734 12.1259 21.0705 14.6024 20.9909 17.2034H20.9819V19.485H17.9819V23.9594H20.9819V35.9533H25.5029V23.9594H29.2064L29.9218 19.485H25.5044V18.1065C25.5044 17.2275 26.0893 16.5224 26.9219 16.5224Z" fill="white"/>
  </g>
      </symbol>


<symbol id="iconIns" viewBox="0 0 48 48">
        <g>
<g clip-path="url(#clip0_112_391)">
<path d="M2.99991 3.26609C-0.77209 7.18409 -8.97646e-05 11.3461 -8.97646e-05 23.9901C-8.97646e-05 34.4901 -1.83209 45.0161 7.75591 47.4941C10.7499 48.2641 37.2779 48.2641 40.2679 47.4901C44.2599 46.4601 47.5079 43.2221 47.9519 37.5761C48.0139 36.7881 48.0139 11.2061 47.9499 10.4021C47.4779 4.38809 43.7759 0.922093 38.8979 0.220093C37.7799 0.0580928 37.5559 0.0100928 31.8199 9.27895e-05C11.4739 0.0100928 7.01391 -0.895907 2.99991 3.26609Z" fill="url(#paint0_linear_112_391)"/>
<path d="M23.9961 6.27809C16.7341 6.27809 9.83812 5.63209 7.20412 12.3921C6.11612 15.1841 6.27412 18.8101 6.27412 24.0021C6.27412 28.5581 6.12812 32.8401 7.20412 35.6101C9.83212 42.3741 16.7841 41.7261 23.9921 41.7261C30.9461 41.7261 38.1161 42.4501 40.7821 35.6101C41.8721 32.7901 41.7121 29.2181 41.7121 24.0021C41.7121 17.0781 42.0941 12.6081 38.7361 9.25209C35.3361 5.85209 30.7381 6.27809 23.9881 6.27809H23.9961ZM22.4081 9.47209C37.5561 9.44809 39.4841 7.76409 38.4201 31.1581C38.0421 39.4321 31.7421 38.5241 23.9981 38.5241C9.87812 38.5241 9.47212 38.1201 9.47212 23.9941C9.47212 9.70409 10.5921 9.48009 22.4081 9.46809V9.47209ZM33.4561 12.4141C32.2821 12.4141 31.3301 13.3661 31.3301 14.5401C31.3301 15.7141 32.2821 16.6661 33.4561 16.6661C34.6301 16.6661 35.5821 15.7141 35.5821 14.5401C35.5821 13.3661 34.6301 12.4141 33.4561 12.4141ZM23.9961 14.9001C18.9701 14.9001 14.8961 18.9761 14.8961 24.0021C14.8961 29.0281 18.9701 33.1021 23.9961 33.1021C29.0221 33.1021 33.0941 29.0281 33.0941 24.0021C33.0941 18.9761 29.0221 14.9001 23.9961 14.9001ZM23.9961 18.0941C31.8061 18.0941 31.8161 29.9101 23.9961 29.9101C16.1881 29.9101 16.1761 18.0941 23.9961 18.0941Z" fill="white"/>
</g>
<defs>
<linearGradient id="paint0_linear_112_391" x1="3.09195" y1="44.9343" x2="47.7029" y2="6.32404" gradientUnits="userSpaceOnUse">
<stop stop-color="#FFDD55"/>
<stop offset="0.5" stop-color="#FF543E"/>
<stop offset="1" stop-color="#C837AB"/>
</linearGradient>
<clipPath id="clip0_112_391">
<rect width="48" height="48" fill="white"/>
</clipPath>
</defs>
       </g>
      </symbol>

      <symbol id="iconWp" viewBox="0 0 48 48" >
  <g>
  <g clip-path="url(#clip0_122_1097)">
<path d="M23.9871 0.0126382C10.7401 0.015449 0.00357906 10.7566 0.00638989 24.0036C0.00732684 28.5906 1.32364 33.0811 3.79905 36.9428L0.0672913 46.6251C-0.131435 47.1401 0.124914 47.7186 0.639859 47.9174C0.755009 47.9618 0.877281 47.9845 1.00068 47.9843C1.11517 47.9849 1.22882 47.9653 1.33648 47.9263L11.3306 44.3585C22.5751 51.3617 37.3677 47.9234 44.3709 36.6788C51.374 25.4342 47.9357 10.6416 36.6912 3.63852C32.8795 1.26449 28.4778 0.00823454 23.9871 0.0126382Z" fill="#55CD6C"/>
<path d="M35.422 28.098C35.422 28.098 32.9735 26.8987 31.4404 26.0992C29.7054 25.2057 27.6666 26.8787 26.7072 27.8302C25.214 27.2566 23.8502 26.3908 22.6956 25.2837C21.5882 24.1292 20.7225 22.7654 20.1491 21.272C21.1005 20.3106 22.7695 18.2738 21.8801 16.5389C21.0905 15.0038 19.8813 12.5572 19.8813 12.5552C19.7116 12.2185 19.3669 12.0059 18.9898 12.0055H16.991C14.0801 12.5083 11.9636 15.0482 11.994 18.002C11.994 21.1401 15.7497 27.1686 18.2823 29.703C20.8148 32.2375 26.8433 35.9913 29.9833 35.9913C32.9371 36.0217 35.477 33.9051 35.9798 30.9943V28.9955C35.9801 28.6144 35.7638 28.2663 35.422 28.098Z" fill="#FAFAFA"/>
</g>
<defs>
<clipPath id="clip0_122_1097">
<rect width="48" height="48" fill="white"/>
</clipPath>
</defs>
  </g>
      </symbol>
</svg>
