<svg width="280" height="243" viewBox="0 0 280 243" fill="none" xmlns="http://www.w3.org/2000/svg">
<g opacity="0.27">
<path opacity="0.27" fill-rule="evenodd" clip-rule="evenodd" d="M231.456 110.127C224.666 108.099 217.621 107.052 210.534 107.016C201.504 106.991 192.568 108.855 184.301 112.489C190.895 87.907 206.736 45.489 238.293 40.713C239.734 40.4869 241.079 39.8479 242.164 38.8733C243.249 37.8988 244.029 36.6304 244.408 35.222L251.308 10.102C251.596 9.05295 251.66 7.95497 251.496 6.87952C251.332 5.80406 250.943 4.77523 250.355 3.85999C249.774 2.95387 249.005 2.18356 248.1 1.6015C247.195 1.01944 246.174 0.63931 245.109 0.487C242.77 0.163164 240.411 0.000448382 238.05 0C200.172 0 162.659 40.259 146.83 97.9C137.538 131.718 134.814 182.562 157.702 214.565C170.51 232.472 189.196 242.035 213.241 242.99C213.341 242.99 213.436 242.996 213.534 242.996C243.203 242.996 269.511 222.65 277.514 193.523C282.312 176.244 280.124 157.771 271.424 142.09C267.188 134.399 261.477 127.617 254.62 122.133C247.762 116.648 239.891 112.569 231.456 110.127Z" fill="#9EB6D2"/>
<path opacity="0.27" fill-rule="evenodd" clip-rule="evenodd" d="M131.422 142.094C127.187 134.401 121.477 127.618 114.619 122.133C107.762 116.648 99.8903 112.567 91.4551 110.125C84.6652 108.098 77.6209 107.051 70.5351 107.015C61.5039 106.99 52.5672 108.854 44.2991 112.487C50.8931 87.905 66.7351 45.487 98.2991 40.713C99.7398 40.4861 101.084 39.8466 102.169 38.872C103.254 37.8973 104.033 36.6292 104.413 35.221L111.313 10.102C111.601 9.05291 111.665 7.95491 111.501 6.87946C111.336 5.804 110.947 4.77519 110.359 3.86002C109.779 2.95339 109.01 2.18269 108.105 1.60056C107.2 1.01842 106.18 0.638585 105.114 0.48703C102.776 0.16279 100.419 -0.00026753 98.0581 -0.000976562C60.1791 -0.000976562 22.6661 40.258 6.83409 97.899C-2.45491 131.717 -5.17992 182.561 17.7111 214.569C30.5171 232.469 49.2061 242.039 73.2481 242.991C73.3481 242.991 73.4431 242.997 73.5481 242.997C103.213 242.997 129.525 222.652 137.528 193.524C142.316 176.243 140.123 157.773 131.422 142.094Z" fill="#9EB6D2"/>
</g>
</svg>
