<svg width="42" height="42" viewBox="0 0 42 42" fill="none" xmlns="http://www.w3.org/2000/svg">
<g clip-path="url(#clip0_112_516)">
<path d="M21 0.875C9.3975 0.875 0 10.115 0 21.511C0 30.6303 6.0165 38.3635 14.3587 41.09C15.4087 41.2843 15.7937 40.6455 15.7937 40.0978C15.7937 39.6078 15.7763 38.3093 15.7675 36.589C9.926 37.8333 8.694 33.8205 8.694 33.8205C7.7385 31.4388 6.35775 30.8018 6.35775 30.8018C4.4555 29.5225 6.50475 29.5488 6.50475 29.5488C8.6135 29.6923 9.72125 31.675 9.72125 31.675C11.5938 34.8303 14.637 33.9185 15.8375 33.3918C16.0265 32.0565 16.5673 31.1483 17.1675 30.632C12.5038 30.1158 7.602 28.3413 7.602 20.4348C7.602 18.1825 8.41575 16.3415 9.76325 14.8977C9.527 14.3763 8.81825 12.278 9.947 9.436C9.947 9.436 11.7058 8.883 15.722 11.5518C17.402 11.0933 19.187 10.8658 20.972 10.8553C22.757 10.8658 24.542 11.0933 26.222 11.5518C30.212 8.883 31.9707 9.436 31.9707 9.436C33.0995 12.278 32.3908 14.3763 32.1807 14.8977C33.5195 16.3415 34.3332 18.1825 34.3332 20.4348C34.3332 28.3623 29.4245 30.107 24.752 30.6145C25.487 31.234 26.1695 32.4993 26.1695 34.433C26.1695 37.1945 26.1432 39.4135 26.1432 40.0838C26.1432 40.6245 26.5107 41.2703 27.587 41.0638C35.9888 38.3548 42 30.6163 42 21.511C42 10.115 32.5972 0.875 21 0.875Z" fill="#212121"/>
</g>
<defs>
<clipPath id="clip0_112_516">
<rect width="42" height="42" fill="white"/>
</clipPath>
</defs>
</svg>
