<svg width="32" height="32" viewBox="0 0 32 32" fill="none" xmlns="http://www.w3.org/2000/svg">
<g clip-path="url(#clip0_112_518)">
<path d="M7.44897 10.2947H1.02492C0.739808 10.2947 0.508789 10.5258 0.508789 10.8108V31.4485C0.508789 31.7336 0.739808 31.9647 1.02492 31.9647H7.44897C7.73408 31.9647 7.9651 31.7336 7.9651 31.4485V10.8108C7.9651 10.5258 7.73408 10.2947 7.44897 10.2947Z" fill="black"/>
<path d="M4.23907 0.0351562C1.90163 0.0351562 0 1.93472 0 4.26958C0 6.60548 1.90163 8.50576 4.23907 8.50576C6.57466 8.50576 8.47474 6.60538 8.47474 4.26958C8.47484 1.93472 6.57466 0.0351562 4.23907 0.0351562Z" fill="black"/>
<path d="M23.7892 9.78174C21.209 9.78174 19.3017 10.8909 18.1449 12.1512V10.8108C18.1449 10.5258 17.9138 10.2947 17.6287 10.2947H11.4766C11.1915 10.2947 10.9604 10.5258 10.9604 10.8108V31.4485C10.9604 31.7336 11.1915 31.9647 11.4766 31.9647H17.8866C18.1717 31.9647 18.4027 31.7336 18.4027 31.4485V21.2376C18.4027 17.7968 19.3373 16.4563 21.7359 16.4563C24.3481 16.4563 24.5557 18.6053 24.5557 21.4147V31.4486C24.5557 31.7337 24.7867 31.9648 25.0718 31.9648H31.4842C31.7693 31.9648 32.0004 31.7337 32.0004 31.4486V20.1285C32.0004 15.0121 31.0248 9.78174 23.7892 9.78174Z" fill="black"/>
</g>
<defs>
<clipPath id="clip0_112_518">
<rect width="32" height="32" fill="white"/>
</clipPath>
</defs>
</svg>
