<svg width="248" height="262" viewBox="0 0 248 262" fill="none" xmlns="http://www.w3.org/2000/svg">
<path d="M166.613 91.7119C166.933 70.237 140.437 56.5935 119.138 53.7569C97.8397 50.9203 76.2847 57.9183 57.5449 68.4154C45.0232 75.4295 32.587 85.1733 29.0933 99.0946C25.9308 111.702 30.76 125.489 26.6253 137.814C23.3239 147.675 14.8728 154.823 9.42398 163.669C5.51053 170.012 3.16128 177.194 2.57004 184.624C1.97879 192.053 3.16252 199.517 6.02353 206.399C8.88455 213.281 13.3409 219.384 19.0248 224.205C24.7088 229.025 31.4576 232.426 38.7143 234.125C51.9144 237.218 65.9586 234.52 79.1373 237.72C94.095 241.342 106.243 252.111 120.629 257.485C128.872 260.568 137.723 261.823 146.516 261.989C174.098 262.385 200.816 252.371 221.342 233.943C228.286 227.661 234.451 220.39 238.554 211.977C242.042 204.824 243.965 197.019 245.392 189.188C247.197 179.257 248.244 168.995 246.204 159.112C242.966 143.412 231.545 129.635 216.716 123.54C206.331 119.266 194.776 118.657 184.242 114.779C173.707 110.9 166.453 102.401 166.613 91.7119Z" fill="#EBEBEB"/>
<path d="M58.8052 70.1353C55.2612 66.9051 52.5247 62.8882 50.8157 58.4079C49.1067 53.9275 48.4729 49.1086 48.9652 44.3387C55.5198 46.0108 62.55 47.982 66.7434 53.2813C67.1423 53.6965 67.3808 54.2398 67.4165 54.8144C67.3555 55.2833 67.1712 55.7275 66.8823 56.1018C64.0297 60.4075 61.6899 65.039 58.8052 70.1353Z" fill="white"/>
<path d="M117.552 50.4875C122.573 44.9221 129.392 41.3007 136.815 40.2576C137.439 44.579 137.011 48.9871 135.568 53.1078C134.124 57.2286 131.708 60.9403 128.524 63.928C126.43 58.4632 121.9 54.3498 117.552 50.4875Z" fill="white"/>
<path d="M106.114 52.9235C99.9387 61.4707 88.7846 64.7293 81.1188 71.9464C76.8078 76.001 73.7201 81.2041 71.3376 86.6209C65.8727 99.0464 64.003 113.769 69.735 126.077C70.736 128.378 72.1399 130.482 73.8804 132.29C79.0408 137.407 87.011 138.118 94.2762 138.246C101.461 138.369 108.742 138.198 115.644 136.248C117.551 135.714 119.49 134.987 120.874 133.577C122.055 132.365 122.717 130.751 123.305 129.165C127.877 116.835 129.555 102.455 123.246 90.9265C121.44 87.6252 120.18 83.4958 118.059 80.3814C112.113 71.6312 107.225 62.6085 106.114 52.9235Z" fill="white"/>
<path d="M98.6354 30.4282C103.12 23.6789 105.606 15.7991 105.804 7.69793C105.804 6.59214 105.767 5.3795 105.03 4.55683L98.4538 17.4097C95.0938 11.3543 89.892 6.52671 83.603 3.62732C88.6484 11.4854 91.7317 20.4406 92.5936 29.7391C92.5882 29.8653 92.6081 29.9912 92.6521 30.1096C92.6962 30.228 92.7635 30.3363 92.8501 30.4282C93.032 30.5405 93.2473 30.5859 93.459 30.5564C95.6813 30.5084 97.9036 30.4549 98.6354 30.4282Z" fill="#F6DFA8"/>
<path d="M91.5894 41.112C83.5763 40.6259 76.2845 45.8931 70.9638 51.9189C57.502 67.1597 52.1279 87.8707 49.3981 108.01C47.9985 118.342 47.1812 128.876 48.8639 139.159C51.2732 133.443 54.3341 128 57.9453 122.065C57.8545 127.909 57.769 133.817 59.1419 139.512C60.5148 145.207 63.5331 150.73 68.8591 152.488C70.887 145.927 74.6549 140.038 79.7622 135.447C74.1904 134.822 70.2373 129.613 68.2928 124.357C63.4156 111.135 67.1817 96.2256 73.2716 83.5116C75.3229 79.238 77.6787 75.0018 81.0068 71.6096C88.5925 63.8797 100.543 61.1072 107.151 51.8014C105.393 57.293 106.953 63.3508 109.613 68.4685C112.274 73.5861 116.024 78.0841 118.946 83.0201C123.127 90.1459 125.7 98.0994 126.486 106.324C127.271 114.549 126.249 122.845 123.492 130.634C128.732 136.729 131.505 144.875 131.793 152.397C135.159 147.546 136.89 141.75 138.113 135.97C142.19 116.506 141.04 96.3085 134.78 77.4324C131.98 69.0348 128.102 60.8722 122.194 54.2587C116.286 47.6453 108.155 42.7681 99.3353 42.0041C96.6108 41.7477 93.8864 41.2509 91.5894 41.112Z" fill="#F6DFA8"/>
<path d="M219.13 222.773C217.507 223.905 215.611 224.582 213.638 224.732C211.665 224.882 209.688 224.501 207.912 223.628C204.493 221.897 201.779 218.286 197.949 218.286C195.23 218.254 192.89 220.075 190.764 221.774C189.616 222.687 188.371 223.633 186.907 223.772C183.857 224.06 181.565 220.85 178.531 220.321C173.589 219.455 170.448 225.663 165.758 227.436C162.489 228.67 158.749 227.57 155.801 225.684C152.852 223.799 150.459 221.192 147.718 219.017C147.314 218.621 146.782 218.381 146.217 218.339C145.421 218.382 144.892 219.135 144.427 219.781C140.485 225.316 133.102 227.655 126.345 226.934C119.587 226.213 113.38 222.853 107.877 218.868C107.5 218.541 107.049 218.312 106.563 218.2C105.602 218.067 104.779 218.846 104.09 219.536C98.4158 225.197 90.9513 228.711 82.9729 229.477L76.8295 220.182C75.772 222.73 73.9752 224.904 71.671 226.421C69.3668 227.939 66.6608 228.732 63.9019 228.697C66.2149 223.825 67.1071 217.928 67.6413 212.233C68.5671 202.318 68.6386 192.341 67.8549 182.414C67.3207 175.282 66.2897 168.108 67.1498 161.008C68.2738 151.972 72.3442 143.557 78.7313 137.066C81.0444 140.805 86.4291 140.687 90.7936 140.111L116.467 136.713C116.496 135.506 116.521 134.297 116.542 133.086C128.514 131.211 140.522 129.346 152.627 128.882C161.383 128.556 170.256 128.972 178.803 126.974C187.351 124.977 195.737 120.03 199.525 111.969C203.276 118.463 204.695 126.043 203.548 133.454C203.32 134.389 203.289 135.36 203.457 136.307C203.777 137.203 204.271 138.027 204.91 138.732C210.716 146.377 211 156.73 211.042 166.334C211.074 173.434 211.106 180.528 211.331 187.622C211.726 199.861 212.88 212.687 219.13 222.773Z" fill="#F6DFA8"/>
<path d="M91.7283 32.3138C89.6663 28.9888 87.3252 25.8453 84.7302 22.9172C82.8445 20.7804 80.7825 18.7504 78.2771 17.4737C77.0751 16.8593 75.6862 16.4053 74.4041 16.8326C72.3474 17.4844 71.4233 19.947 71.06 22.1747C70.5258 25.5508 70.6006 29.0018 70.7021 32.426C70.7876 35.2893 70.8784 38.1954 71.669 40.9412C72.4596 43.687 74.0355 46.2832 76.6798 47.5386C80.4443 44.6523 84.7689 42.5819 89.3778 41.4593C89.5707 41.3979 89.7779 41.3979 89.9708 41.4593C90.1833 41.5808 90.3502 41.7684 90.4462 41.9935C91.4665 43.7617 93.7155 43.313 95.6921 43.4359C97.6686 43.5588 99.2979 44.1677 100.195 42.3354C104.678 43.5807 109.012 45.3073 113.123 47.4851C114.698 45.3798 116.126 43.1683 117.397 40.8664C119.154 37.6612 120.645 34.1515 120.474 30.4868C120.291 28.4453 119.852 26.435 119.165 24.5038C118.454 22.2014 117.706 19.8349 116.296 18.2376C114.581 18.1094 112.995 19.1351 111.606 20.1981C106.953 23.7452 102.968 28.1364 99.0094 32.4848C97.1825 30.2892 93.4751 30.2732 91.7283 32.3138Z" fill="#EDB24E"/>
<path d="M63.7518 152.734C63.6175 152.735 63.4845 152.706 63.3626 152.65C63.2407 152.594 63.1328 152.511 63.0466 152.408C57.0369 145.404 56.3317 135.607 56.5294 125.858C53.4295 130.277 51.2362 135.266 50.0762 140.538C50.0337 140.731 49.9304 140.906 49.7815 141.037C49.6325 141.168 49.4457 141.247 49.2482 141.264C49.0508 141.283 48.8525 141.238 48.6831 141.135C48.5136 141.032 48.3821 140.877 48.308 140.693C47.1114 137.76 46.9618 134.581 46.9138 131.569C46.6329 112.202 49.9831 92.9534 56.7912 74.8203C59.959 66.4387 63.2496 60.119 67.1546 54.9373C72.1174 48.3506 78.218 43.5481 84.7833 41.048C85.0142 40.9602 85.2706 40.9677 85.496 41.0689C85.7214 41.1701 85.8974 41.3567 85.9853 41.5876C86.0731 41.8185 86.0656 42.0749 85.9644 42.3003C85.8632 42.5257 85.6766 42.7017 85.4457 42.7896C79.1902 45.1667 73.3728 49.7342 68.6237 56.0591C64.8309 61.0967 61.615 67.2774 58.5166 75.4827C51.7865 93.4055 48.4761 112.431 48.7567 131.574C48.751 133.322 48.876 135.069 49.1307 136.798C50.7437 131.559 53.3499 126.678 56.8072 122.423C56.93 122.272 57.0974 122.163 57.2855 122.112C57.4737 122.061 57.6731 122.07 57.8556 122.138C58.0382 122.207 58.1945 122.331 58.3026 122.493C58.4107 122.656 58.465 122.848 58.4579 123.043C58.0839 133.791 58.2656 144.031 64.4409 151.233C64.5562 151.367 64.6304 151.533 64.6548 151.708C64.6792 151.884 64.6527 152.063 64.5786 152.225C64.5044 152.386 64.3856 152.522 64.2363 152.618C64.0869 152.714 63.9133 152.765 63.7358 152.766L63.7518 152.734Z" fill="#333333"/>
<path d="M71.7753 131.216C71.6206 131.216 71.4683 131.177 71.3321 131.103C71.196 131.03 71.0803 130.923 70.9954 130.794C67.0263 124.774 65.0123 116.937 65.3275 108.737C65.5946 101.792 67.4002 94.5858 70.8351 86.6369C74.7401 77.6142 79.3824 71.0916 85.0983 66.7005C87.8342 64.7059 90.7163 62.9202 93.7204 61.3585C98.3252 58.805 102.674 56.3957 105.852 52.5548C105.93 52.4605 106.026 52.3824 106.134 52.325C106.242 52.2676 106.36 52.2321 106.482 52.2204C106.604 52.2088 106.726 52.2212 106.843 52.257C106.96 52.2929 107.069 52.3514 107.164 52.4293C107.258 52.5071 107.336 52.6028 107.393 52.7109C107.451 52.8189 107.486 52.9372 107.498 53.059C107.51 53.1808 107.497 53.3037 107.461 53.4207C107.425 53.5376 107.367 53.6464 107.289 53.7407C103.881 57.8541 99.1745 60.461 94.6178 62.9824C91.698 64.5051 88.8962 66.2444 86.2362 68.1856C80.798 72.3791 76.316 78.6612 72.5446 87.3848C69.1951 95.12 67.4483 102.134 67.2026 108.822C66.9034 116.638 68.8052 124.079 72.5446 129.784C72.6805 129.99 72.7292 130.241 72.6801 130.482C72.631 130.724 72.4882 130.936 72.2828 131.072C72.1305 131.167 71.9547 131.216 71.7753 131.216Z" fill="#333333"/>
<path d="M122.108 133.711C121.966 133.709 121.825 133.677 121.697 133.614C121.587 133.561 121.49 133.485 121.409 133.393C121.329 133.302 121.268 133.195 121.229 133.079C121.19 132.963 121.175 132.841 121.184 132.719C121.192 132.598 121.225 132.479 121.28 132.37C129.128 116.509 127.861 96.7492 118.075 82.0266C117.076 80.5202 115.938 78.9923 114.87 77.5126C110.714 71.8661 106.419 66.0219 106.707 58.9811C106.704 58.8541 106.727 58.7278 106.775 58.61C106.823 58.4922 106.894 58.3854 106.984 58.2963C107.075 58.2072 107.183 58.1376 107.302 58.0918C107.42 58.046 107.547 58.0251 107.674 58.0302C107.801 58.0353 107.925 58.0664 108.04 58.1216C108.154 58.1767 108.256 58.2548 108.339 58.3509C108.423 58.4471 108.485 58.5593 108.523 58.6805C108.561 58.8018 108.574 58.9295 108.561 59.0559C108.304 65.4664 112.402 71.022 116.365 76.4121C117.466 77.9079 118.604 79.4571 119.629 80.9956C129.779 96.2631 131.109 116.75 122.974 133.192C122.893 133.352 122.769 133.486 122.616 133.577C122.463 133.669 122.287 133.715 122.108 133.711Z" fill="#333333"/>
<path d="M130.869 155.506C130.745 155.507 130.621 155.483 130.506 155.437C130.323 155.358 130.17 155.224 130.068 155.053C129.966 154.882 129.922 154.684 129.94 154.486C130.449 149.24 129.852 143.946 128.188 138.946C128.145 138.829 128.126 138.705 128.132 138.581C128.138 138.457 128.169 138.335 128.223 138.223C128.277 138.111 128.353 138.011 128.446 137.928C128.54 137.846 128.649 137.784 128.766 137.744C128.884 137.705 129.009 137.69 129.133 137.7C129.257 137.709 129.378 137.744 129.488 137.801C129.599 137.858 129.696 137.937 129.776 138.033C129.855 138.128 129.915 138.239 129.951 138.358C131.359 142.583 132.043 147.015 131.975 151.468C134.881 146.857 136.211 141.414 137.119 136.547C140.565 118.03 139.598 98.9624 134.299 80.8888C131.628 71.8875 128.305 64.6865 124.09 58.869C120.511 53.9276 114.346 47.3837 105.329 44.2746C105.214 44.2346 105.107 44.1723 105.016 44.0912C104.925 44.0101 104.85 43.9118 104.797 43.8019C104.744 43.692 104.712 43.5727 104.705 43.4508C104.698 43.3289 104.715 43.2067 104.755 43.0913C104.795 42.9759 104.857 42.8696 104.938 42.7782C105.019 42.6869 105.118 42.6125 105.228 42.5592C105.337 42.5058 105.457 42.4747 105.579 42.4674C105.701 42.4602 105.823 42.4771 105.938 42.5171C113.417 45.1026 120.233 50.3805 125.597 57.7739C129.94 63.7676 133.369 71.1556 136.083 80.3653C141.468 98.7194 142.451 118.084 138.952 136.889C137.883 142.562 136.094 149.763 131.58 155.175C131.493 155.279 131.384 155.362 131.261 155.42C131.139 155.477 131.005 155.506 130.869 155.506Z" fill="#333333"/>
<path d="M55.2635 67.7581C55.1241 67.7588 54.9863 67.7279 54.8605 67.6678C54.7347 67.6077 54.6241 67.5198 54.537 67.4109C51.9912 64.1739 50.1398 60.4469 49.0984 56.4625C48.0571 52.4782 47.8481 48.322 48.4845 44.2532C48.525 44.0231 48.6497 43.8162 48.8344 43.673C49.0191 43.5298 49.2505 43.4605 49.4835 43.4787C55.5816 44.036 61.2453 46.8726 65.3439 51.4222C65.4312 51.5121 65.4994 51.6186 65.5445 51.7354C65.5896 51.8523 65.6105 51.977 65.6062 52.1022C65.6019 52.2274 65.5723 52.3503 65.5192 52.4638C65.4662 52.5772 65.3907 52.6788 65.2974 52.7623C65.2041 52.8459 65.0949 52.9098 64.9764 52.9501C64.8578 52.9904 64.7323 53.0063 64.6074 52.9968C64.4825 52.9874 64.3608 52.9529 64.2496 52.8953C64.1384 52.8377 64.04 52.7582 63.9603 52.6616C60.3809 48.6909 55.5043 46.1248 50.2046 45.4231C49.748 49.1065 50.0251 52.8438 51.0199 56.4195C52.0147 59.9953 53.7075 63.3387 56.0007 66.257C56.0769 66.3522 56.1335 66.4616 56.1673 66.5788C56.201 66.696 56.2113 66.8187 56.1974 66.9399C56.1834 67.0611 56.1457 67.1783 56.0863 67.2848C56.0269 67.3913 55.947 67.485 55.8512 67.5605C55.6845 67.6932 55.4765 67.7632 55.2635 67.7581Z" fill="#333333"/>
<path d="M132.221 60.2526C132.011 60.2537 131.807 60.182 131.644 60.0496C131.548 59.9741 131.468 59.8804 131.409 59.7739C131.349 59.6674 131.312 59.5502 131.298 59.429C131.284 59.3079 131.294 59.1851 131.328 59.0679C131.361 58.9507 131.418 58.8414 131.494 58.7462C135.341 53.8656 137.135 47.6781 136.494 41.4968V41.4541C129.582 42.6186 124.379 45.0439 121.003 48.6658C120.835 48.8464 120.602 48.953 120.355 48.962C120.109 48.971 119.869 48.8818 119.688 48.7139C119.508 48.546 119.401 48.3132 119.392 48.0668C119.383 47.8203 119.472 47.5804 119.64 47.3997C123.3 43.4573 128.893 40.8344 136.254 39.6111C136.644 39.5205 137.052 39.5579 137.419 39.7179C137.696 39.8842 137.926 40.1188 138.087 40.3994C138.248 40.68 138.334 40.9971 138.337 41.3205C139.022 47.9862 137.088 54.6569 132.942 59.9214C132.853 60.0259 132.743 60.1096 132.618 60.1668C132.494 60.224 132.358 60.2533 132.221 60.2526Z" fill="#333333"/>
<path d="M96.4292 44.2479C95.8693 44.2417 95.3105 44.1954 94.7572 44.1091C93.3736 43.9007 91.397 43.4413 90.2538 41.8921C89.1106 40.3429 89.2496 38.4946 89.4045 37.1805C89.6716 34.9101 90.2592 33.2594 91.2635 31.9827C92.631 30.2359 94.8159 29.3972 96.6963 29.91C97.7941 30.1937 98.8083 30.7353 99.6547 31.4897C100.501 32.2442 101.155 33.1897 101.563 34.2477C102.289 36.3325 102.236 38.6095 101.413 40.6581C101.025 41.8135 100.276 42.8136 99.2765 43.5108C98.4182 44.0255 97.4295 44.2815 96.4292 44.2479ZM95.5691 31.6194C95.0132 31.6461 94.4702 31.7955 93.9788 32.0569C93.4874 32.3183 93.06 32.6851 92.7272 33.1312C91.9419 34.1248 91.4772 35.4817 91.2528 37.4048C91.1353 38.4038 91.0552 39.8515 91.7496 40.7917C92.3105 41.5502 93.3522 42.0204 95.0349 42.2768C96.066 42.4317 97.3694 42.5332 98.2882 41.9455C98.9454 41.4561 99.4314 40.772 99.6772 39.9904C100.336 38.3659 100.387 36.5586 99.8214 34.8994C99.5183 34.1162 99.0324 33.4167 98.4043 32.8591C97.7761 32.3016 97.0239 31.9022 96.2102 31.6942C96.001 31.6395 95.7853 31.6144 95.5691 31.6194Z" fill="#333333"/>
<path d="M75.3125 46.9668C75.121 46.9665 74.9343 46.9068 74.7783 46.7958C72.5807 45.1076 71.0395 42.707 70.4192 40.0062C69.8334 37.4626 69.5908 34.8521 69.698 32.2442C69.7301 29.3862 69.8476 26.4909 70.0453 23.6329C70.1788 21.7525 70.3604 19.9255 71.1137 18.2268C71.3092 17.6896 71.6117 17.1977 72.0029 16.7808C72.394 16.3639 72.8657 16.0308 73.3894 15.8015C74.0252 15.5794 74.7062 15.5189 75.3712 15.6252C78.5764 15.9991 81.1246 18.1893 83.2027 20.2781C86.6202 23.73 89.6264 27.5662 92.1612 31.71C92.2901 31.9225 92.3294 32.1776 92.2703 32.419C92.2111 32.6604 92.0585 32.8685 91.846 32.9974C91.6335 33.1263 91.3785 33.1656 91.137 33.1065C90.8956 33.0474 90.6875 32.8948 90.5586 32.6822C88.1042 28.6521 85.1912 24.9199 81.8778 21.5602C80.0295 19.6958 77.7858 17.7513 75.1522 17.4468C74.7814 17.3845 74.4012 17.4082 74.0411 17.5163C73.4661 17.8246 73.0277 18.3374 72.8124 18.9533C72.2347 20.4915 71.9275 22.1181 71.9043 23.7611C71.7066 26.5817 71.5891 29.445 71.5624 32.2656C71.5357 34.6481 71.5624 37.1749 72.1874 39.5574C72.7071 41.8325 74.0005 43.8566 75.8467 45.284C76.0052 45.3986 76.1235 45.5603 76.1848 45.7461C76.2461 45.9318 76.2472 46.1322 76.1881 46.3186C76.1289 46.505 76.0124 46.668 75.8552 46.7844C75.698 46.9008 75.5081 46.9646 75.3125 46.9668Z" fill="#333333"/>
<path d="M113.123 46.5877C112.936 46.5893 112.754 46.5352 112.598 46.4322C112.443 46.3293 112.322 46.1822 112.251 46.01C112.179 45.8377 112.161 45.6481 112.199 45.4654C112.236 45.2828 112.327 45.1155 112.46 44.9851C118.929 38.4731 120.473 27.5007 116.039 19.4609C115.971 19.3164 115.879 19.1846 115.767 19.071C115.767 19.071 115.633 18.9962 115.233 19.071C113.817 19.274 112.562 20.1928 111.312 21.2078C107.136 24.5418 103.231 28.2018 99.6341 32.1536C99.5521 32.2441 99.4529 32.3175 99.3425 32.3697C99.232 32.4219 99.1123 32.4518 98.9903 32.4578C98.8683 32.4637 98.7463 32.4456 98.6313 32.4044C98.5163 32.3632 98.4105 32.2997 98.32 32.2177C98.2295 32.1356 98.156 32.0365 98.1039 31.926C98.0517 31.8156 98.0217 31.6959 98.0158 31.5739C98.0098 31.4518 98.028 31.3298 98.0692 31.2148C98.1104 31.0998 98.1738 30.994 98.2559 30.9035C101.919 26.8773 105.897 23.1493 110.153 19.7547C111.563 18.6276 113.096 17.5057 114.96 17.244C115.572 17.1201 116.207 17.2266 116.745 17.5431C117.127 17.8169 117.433 18.1849 117.631 18.6115C122.439 27.3404 120.772 39.2638 113.742 46.342C113.574 46.4981 113.353 46.5857 113.123 46.5877Z" fill="#333333"/>
<path d="M92.9405 31.7102C92.6939 31.7046 92.4594 31.6023 92.2876 31.4255C92.1157 31.2486 92.0202 31.0113 92.0217 30.7646C92.1713 20.759 86.6796 11.1327 82.2191 3.3975C82.1181 3.23338 82.072 3.04141 82.0874 2.84935C82.1027 2.65728 82.1788 2.47509 82.3045 2.3291C82.4223 2.18368 82.5809 2.07693 82.7599 2.02264C82.939 1.96836 83.1302 1.96903 83.3088 2.0246C86.6262 3.12905 89.6568 4.95663 92.1817 7.37526C94.7065 9.79388 96.6626 12.7431 97.9086 16.01C100.211 12.0272 102.125 7.83223 103.625 3.48296C103.686 3.30291 103.802 3.14628 103.956 3.03441C104.11 2.92255 104.294 2.86092 104.485 2.85795C104.676 2.84893 104.866 2.90166 105.026 3.00839C105.185 3.11512 105.306 3.27021 105.371 3.45091C106.36 6.03946 106.78 8.81038 106.603 11.5756C106.426 14.3408 105.656 17.0355 104.346 19.477C104.287 19.5843 104.209 19.6791 104.114 19.756C104.019 19.8329 103.91 19.8903 103.793 19.9251C103.676 19.9598 103.553 19.9711 103.432 19.9584C103.31 19.9457 103.192 19.9091 103.085 19.8509C102.978 19.7927 102.883 19.7139 102.806 19.619C102.729 19.5242 102.672 19.4151 102.637 19.298C102.602 19.1809 102.591 19.0582 102.604 18.9367C102.616 18.8153 102.653 18.6975 102.711 18.5902C104.656 14.9662 105.258 10.7715 104.41 6.74696C102.788 10.9316 100.785 14.9585 98.4268 18.7772C98.3311 18.9314 98.1923 19.0542 98.0277 19.1305C97.863 19.2068 97.6797 19.2332 97.5002 19.2065C97.3207 19.1798 97.1529 19.1011 97.0176 18.9802C96.8823 18.8593 96.7853 18.7015 96.7387 18.5261C95.8994 15.536 94.4284 12.7608 92.4249 10.3877C90.4214 8.01472 87.9322 6.09917 85.1251 4.77041C89.3987 12.2759 94.0089 21.2719 93.87 30.7967C93.8644 31.04 93.7642 31.2715 93.5907 31.4421C93.4171 31.6127 93.1838 31.7089 92.9405 31.7102Z" fill="#333333"/>
<path d="M63.6504 229.942C63.4845 229.942 63.3215 229.898 63.1783 229.814C63.0352 229.73 62.9172 229.609 62.8365 229.464C62.7558 229.319 62.7154 229.155 62.7195 228.989C62.7236 228.823 62.772 228.662 62.8598 228.521C66.6473 222.479 68.5597 211.993 68.095 199.749C67.9294 195.304 67.4806 190.785 67.0266 186.394C66.4015 180.09 65.7552 173.573 65.9582 167.109C66.2039 157.942 68.4048 145.207 77.4916 136.724C77.6715 136.555 77.911 136.465 78.1575 136.473C78.4039 136.481 78.6371 136.586 78.8057 136.766C78.9743 136.946 79.0645 137.186 79.0565 137.432C79.0485 137.679 78.9429 137.912 78.763 138.08C70.1463 146.147 68.0522 158.348 67.8172 167.162C67.6462 173.509 68.2873 179.983 68.8856 186.212C69.3236 190.609 69.7723 195.155 69.954 199.658C70.392 211.207 68.7414 221.298 65.4026 227.789C67.3888 227.338 69.2397 226.423 70.8034 225.118C72.1038 223.955 73.2865 222.667 74.3344 221.272C74.6069 220.93 74.8687 220.593 75.1571 220.257C75.3057 220.013 75.5099 219.809 75.753 219.66C75.9961 219.511 76.2711 219.422 76.5554 219.4C76.8397 219.378 77.1251 219.424 77.3882 219.534C77.6513 219.644 77.8844 219.815 78.0685 220.032C80.5214 222.213 82.6272 224.754 84.3133 227.57C91.2616 227.03 97.7675 223.949 102.588 218.916C102.758 218.737 102.992 218.634 103.239 218.628C103.485 218.622 103.724 218.714 103.903 218.884C104.081 219.054 104.185 219.288 104.191 219.534C104.197 219.781 104.105 220.019 103.935 220.198C98.6574 225.72 91.4842 229.037 83.8593 229.482C83.6894 229.493 83.5199 229.457 83.3699 229.376C83.2198 229.296 83.0951 229.176 83.0099 229.028C81.3718 226.194 79.2927 223.639 76.8505 221.459C76.8033 221.415 76.7533 221.374 76.7009 221.336L76.5941 221.459C76.3217 221.79 76.0599 222.126 75.7821 222.463C74.657 223.953 73.3884 225.329 71.9946 226.571C69.6498 228.521 66.7596 229.698 63.7198 229.942H63.6504Z" fill="#333333"/>
<path d="M164.642 228.633C160.464 228.633 155.678 225.348 151.895 222.757L150.635 221.886C150.394 221.726 150.154 221.555 149.914 221.389C149.096 220.76 148.198 220.242 147.243 219.851C146.361 219.541 145.058 219.445 144.272 220.198C143.956 220.548 143.695 220.945 143.498 221.373C143.402 221.55 143.311 221.721 143.215 221.908C141.703 224.531 138.84 226.459 135.357 227.196C132.071 227.891 128.679 227.474 126.088 227.031C119.747 225.962 117.188 225.22 111.302 222.127C111.083 222.012 110.92 221.815 110.847 221.58C110.773 221.344 110.797 221.089 110.912 220.871C111.026 220.653 111.223 220.489 111.458 220.416C111.694 220.343 111.949 220.366 112.167 220.481C117.867 223.473 120.18 224.14 126.403 225.198C128.829 225.61 131.991 226.005 134.951 225.375C137.91 224.744 140.335 223.147 141.58 220.978C141.671 220.828 141.751 220.674 141.836 220.519C142.121 219.915 142.502 219.361 142.964 218.879C144.112 217.773 146.03 217.474 147.846 218.12C148.95 218.568 149.989 219.163 150.934 219.888L151.628 220.369C152.04 220.642 152.462 220.935 152.9 221.234C157.627 224.477 164.118 228.922 167.825 225.561C168.546 224.871 169.219 224.132 169.839 223.35C171.319 221.566 172.847 219.723 175.256 219.215C177.665 218.708 179.797 219.749 181.864 220.818C182.849 221.35 183.881 221.792 184.947 222.137C187.004 222.713 189.206 222.454 191.074 221.416C191.864 220.941 192.616 220.405 193.323 219.813C194.632 218.745 195.994 217.677 197.725 217.276C200.07 216.742 202.629 217.442 205.567 219.477C206.064 219.824 206.555 220.193 207.052 220.545C208.601 221.699 210.065 222.784 211.769 223.323C212.86 223.654 214.009 223.749 215.139 223.601C216.269 223.452 217.355 223.064 218.323 222.463C210.123 211.576 210.107 182.131 210.193 176.212C210.193 175.266 210.22 174.321 210.241 173.37C210.444 161.922 210.652 150.089 205.022 140.431C204.883 140.185 204.739 139.945 204.594 139.705C203.676 138.177 202.73 136.596 202.559 134.715C202.504 133.639 202.598 132.561 202.837 131.51L202.938 130.938C203.919 125.022 202.886 118.948 200.006 113.689C196.683 119.207 193.061 123.07 188.937 125.441C182.527 129.181 174.893 129.416 167.035 129.336L165.096 129.309C158.781 129.24 152.248 129.154 145.939 130.052C145.817 130.072 145.692 130.068 145.571 130.039C145.45 130.01 145.337 129.957 145.237 129.883C145.138 129.809 145.054 129.716 144.991 129.609C144.928 129.502 144.887 129.384 144.871 129.261C144.852 129.139 144.857 129.014 144.887 128.894C144.916 128.774 144.97 128.661 145.043 128.562C145.117 128.462 145.209 128.379 145.315 128.315C145.421 128.252 145.539 128.21 145.661 128.193C152.114 127.279 158.712 127.359 165.101 127.434H167.04C174.636 127.514 181.96 127.295 187.992 123.796C192.148 121.376 195.807 117.3 199.178 111.333C199.257 111.193 199.37 111.076 199.508 110.994C199.646 110.912 199.803 110.866 199.963 110.863C200.123 110.863 200.281 110.902 200.423 110.978C200.565 111.053 200.686 111.163 200.775 111.296C204.49 117.219 205.907 124.298 204.76 131.195L204.659 131.782C204.453 132.668 204.367 133.577 204.402 134.485C204.53 135.944 205.332 137.279 206.176 138.69C206.325 138.935 206.475 139.186 206.619 139.438C212.495 149.545 212.298 161.644 212.089 173.343C212.089 174.289 212.052 175.24 212.041 176.18C211.956 182.131 211.961 212.313 220.359 221.977C220.441 222.071 220.503 222.18 220.541 222.299C220.58 222.417 220.595 222.542 220.584 222.666C220.574 222.79 220.539 222.911 220.481 223.021C220.423 223.131 220.343 223.228 220.247 223.307C218.993 224.322 217.508 225.011 215.923 225.313C214.339 225.615 212.704 225.521 211.165 225.038C209.173 224.402 207.511 223.174 205.903 221.982C205.428 221.624 204.952 221.272 204.466 220.914C202.025 219.221 199.894 218.574 198.12 218.996C196.784 219.311 195.647 220.219 194.445 221.176C193.662 221.836 192.828 222.432 191.95 222.96C190.811 223.598 189.558 224.005 188.262 224.157C186.965 224.309 185.652 224.204 184.396 223.847C183.223 223.469 182.086 222.986 180.999 222.404C179.134 221.48 177.372 220.604 175.603 220.978C173.835 221.352 172.569 222.869 171.228 224.477C170.555 225.33 169.821 226.133 169.033 226.881C167.844 228 166.274 228.627 164.642 228.633Z" fill="#333333"/>
<path d="M13.1898 116.408L0.903196 116.087C0.781361 116.085 0.661277 116.058 0.549854 116.009C0.438431 115.959 0.337872 115.888 0.253963 115.8C0.170054 115.712 0.104426 115.607 0.0609084 115.494C0.017391 115.38 -0.00316018 115.258 0.000393357 115.137C-0.000510388 115.013 0.0237761 114.891 0.0717985 114.778C0.119821 114.665 0.190553 114.562 0.279623 114.477C0.368693 114.392 0.474225 114.326 0.58973 114.283C0.705235 114.241 0.828264 114.222 0.951255 114.228L13.2379 114.549C13.4844 114.549 13.7209 114.647 13.8952 114.821C14.0695 114.996 14.1674 115.232 14.1674 115.479C14.1674 115.725 14.0695 115.961 13.8952 116.136C13.7209 116.31 13.4844 116.408 13.2379 116.408H13.1898Z" fill="#333333"/>
<path d="M30.6795 116.52H30.6528L22.1056 116.269C21.9837 116.265 21.8638 116.238 21.7526 116.188C21.6414 116.138 21.5413 116.066 21.4578 115.978C21.3744 115.889 21.3094 115.784 21.2665 115.67C21.2237 115.556 21.2038 115.435 21.2081 115.313C21.2205 115.068 21.3268 114.838 21.505 114.669C21.6831 114.501 21.9193 114.408 22.1643 114.41L30.7116 114.661C30.9581 114.661 31.1945 114.759 31.3688 114.933C31.5431 115.108 31.6411 115.344 31.6411 115.591C31.6411 115.837 31.5431 116.073 31.3688 116.248C31.1945 116.422 30.9581 116.52 30.7116 116.52H30.6795Z" fill="#333333"/>
<path d="M17.7464 111.023C17.5012 111.022 17.2664 110.924 17.0925 110.752C16.9187 110.579 16.8197 110.344 16.8169 110.099L16.7314 99.02C16.7314 98.7739 16.8284 98.5377 17.0014 98.3627C17.1745 98.1877 17.4095 98.0879 17.6556 98.0851C17.7774 98.0844 17.8982 98.1078 18.0109 98.1539C18.1236 98.2 18.2261 98.268 18.3125 98.3539C18.3989 98.4398 18.4675 98.5419 18.5143 98.6544C18.561 98.7668 18.5851 98.8874 18.5851 99.0093L18.6706 110.11C18.672 110.232 18.6493 110.353 18.6039 110.467C18.5585 110.58 18.4912 110.683 18.4059 110.77C18.3206 110.858 18.2189 110.927 18.1067 110.975C17.9944 111.023 17.8738 111.049 17.7518 111.05L17.7464 111.023Z" fill="#333333"/>
<path d="M17.8158 134.352C17.5721 134.352 17.3381 134.256 17.1642 134.085C16.9903 133.914 16.8905 133.682 16.8863 133.438L16.7047 120.617C16.7011 120.371 16.7957 120.133 16.9675 119.956C17.1393 119.779 17.3743 119.678 17.6209 119.675C17.8674 119.671 18.1052 119.766 18.282 119.937C18.4588 120.109 18.5602 120.344 18.5637 120.591L18.7453 133.412C18.7468 133.534 18.7241 133.655 18.6787 133.768C18.6333 133.881 18.566 133.985 18.4807 134.072C18.3954 134.159 18.2937 134.229 18.1814 134.277C18.0692 134.325 17.9486 134.35 17.8265 134.352H17.8158Z" fill="#333333"/>
<path d="M161.516 12.698C161.27 12.6966 161.035 12.5982 160.861 12.4242C160.687 12.2502 160.588 12.0145 160.587 11.7684L160.56 0.934853C160.559 0.812339 160.583 0.690892 160.629 0.577501C160.676 0.46411 160.744 0.360991 160.83 0.274111C160.917 0.187231 161.02 0.118288 161.133 0.0712421C161.246 0.0241961 161.367 -2.02321e-06 161.49 1.26869e-10C161.736 1.26929e-10 161.973 0.0979353 162.147 0.272252C162.321 0.44657 162.419 0.682984 162.419 0.929506L162.451 11.7631C162.452 11.8856 162.428 12.0071 162.382 12.1205C162.336 12.2338 162.267 12.337 162.181 12.4238C162.094 12.5107 161.992 12.5797 161.879 12.6267C161.766 12.6738 161.644 12.698 161.522 12.698H161.516Z" fill="#333333"/>
<path d="M155.091 17.4953C152.718 17.4965 150.347 17.3555 147.991 17.0733C147.87 17.0589 147.752 17.0208 147.646 16.961C147.539 16.9013 147.445 16.8212 147.37 16.7252C147.217 16.5313 147.147 16.2847 147.176 16.0396C147.205 15.7945 147.331 15.571 147.524 15.4182C147.718 15.2654 147.965 15.1959 148.21 15.225C151.373 15.6039 154.563 15.7218 157.746 15.5775C157.992 15.5662 158.233 15.6533 158.415 15.8196C158.598 15.9859 158.706 16.2178 158.718 16.4643C158.729 16.7108 158.642 16.9518 158.476 17.1341C158.309 17.3164 158.078 17.4252 157.831 17.4366C156.923 17.474 156.009 17.4953 155.091 17.4953Z" fill="#333333"/>
<path d="M166.196 17.3722C165.964 17.3669 165.742 17.2745 165.574 17.1134C165.406 16.9523 165.305 16.7341 165.29 16.502C165.275 16.2698 165.348 16.0406 165.494 15.8595C165.64 15.6784 165.849 15.5587 166.079 15.5239C168.992 15.1495 171.929 14.9906 174.866 15.0485C174.988 15.0512 175.109 15.078 175.22 15.1273C175.332 15.1766 175.433 15.2474 175.517 15.3357C175.602 15.424 175.668 15.5281 175.712 15.642C175.756 15.7558 175.777 15.8773 175.774 15.9994C175.765 16.2436 175.661 16.4746 175.485 16.6439C175.308 16.8132 175.073 16.9077 174.829 16.9075C171.985 16.8494 169.14 17.003 166.319 17.3669L166.196 17.3722Z" fill="#333333"/>
<path d="M161.569 32.9817C161.448 32.9824 161.327 32.9591 161.214 32.9129C161.101 32.8668 160.999 32.7988 160.912 32.7129C160.826 32.627 160.758 32.5249 160.711 32.4124C160.664 32.3 160.64 32.1794 160.64 32.0576L160.603 20.9355C160.602 20.8137 160.625 20.6929 160.671 20.5802C160.717 20.4674 160.785 20.3649 160.871 20.2785C160.957 20.1921 161.059 20.1236 161.172 20.0768C161.284 20.0301 161.405 20.006 161.527 20.006C161.772 20.0074 162.007 20.105 162.181 20.2779C162.354 20.4507 162.453 20.685 162.456 20.9301L162.494 32.0522C162.494 32.174 162.471 32.2948 162.425 32.4075C162.379 32.5203 162.311 32.6228 162.225 32.7092C162.139 32.7955 162.037 32.8641 161.924 32.9109C161.812 32.9577 161.691 32.9817 161.569 32.9817Z" fill="#333333"/>
<path d="M98.7156 117.647C98.4691 117.647 98.2327 117.549 98.0584 117.375C97.8841 117.201 97.7861 116.964 97.7861 116.718V108.299C97.7861 108.052 97.8841 107.816 98.0584 107.642C98.2327 107.467 98.4691 107.369 98.7156 107.369C98.9622 107.369 99.1986 107.467 99.3729 107.642C99.5472 107.816 99.6451 108.052 99.6451 108.299V116.718C99.6451 116.964 99.5472 117.201 99.3729 117.375C99.1986 117.549 98.9622 117.647 98.7156 117.647Z" fill="#333333"/>
<path d="M201.341 204.348C201.219 204.348 201.098 204.324 200.985 204.277C200.872 204.23 200.77 204.161 200.684 204.074C200.598 203.987 200.53 203.884 200.484 203.77C200.439 203.657 200.416 203.536 200.417 203.413C200.529 191.987 200.642 180.176 199.044 168.69C197.26 155.869 193.473 145.009 187.783 136.366C187.716 136.264 187.67 136.149 187.647 136.029C187.624 135.909 187.625 135.786 187.65 135.667C187.675 135.547 187.723 135.434 187.792 135.333C187.86 135.232 187.948 135.145 188.05 135.078C188.153 135.011 188.267 134.965 188.387 134.942C188.507 134.919 188.63 134.92 188.749 134.945C188.869 134.97 188.982 135.018 189.083 135.087C189.184 135.155 189.271 135.243 189.338 135.345C195.177 144.218 199.06 155.351 200.882 168.434C202.485 180.053 202.388 191.939 202.276 203.429C202.276 203.551 202.251 203.672 202.203 203.784C202.156 203.896 202.087 203.998 202 204.083C201.913 204.169 201.81 204.236 201.697 204.281C201.584 204.327 201.463 204.35 201.341 204.348Z" fill="white"/>
<path d="M189.572 209.113H189.529C189.407 209.108 189.288 209.078 189.177 209.026C189.066 208.975 188.967 208.901 188.884 208.811C188.802 208.721 188.738 208.615 188.697 208.5C188.655 208.385 188.637 208.263 188.643 208.141C189.752 183.812 184.664 159.6 173.856 137.776C173.746 137.555 173.729 137.299 173.807 137.065C173.886 136.832 174.054 136.638 174.275 136.529C174.496 136.419 174.752 136.401 174.986 136.48C175.22 136.559 175.413 136.727 175.523 136.948C186.464 159.057 191.611 183.584 190.48 208.226C190.47 208.462 190.37 208.684 190.201 208.849C190.033 209.014 189.808 209.108 189.572 209.113Z" fill="white"/>
<path d="M172.184 175.571C171.952 175.569 171.729 175.481 171.559 175.324C171.388 175.167 171.281 174.952 171.26 174.721C170.064 161.697 165.875 149.124 159.022 137.984C158.957 137.879 158.915 137.762 158.896 137.64C158.877 137.519 158.882 137.394 158.911 137.274C158.94 137.155 158.992 137.042 159.065 136.942C159.137 136.843 159.229 136.758 159.334 136.694C159.439 136.63 159.556 136.587 159.678 136.568C159.8 136.549 159.924 136.554 160.044 136.583C160.164 136.612 160.277 136.665 160.376 136.737C160.476 136.81 160.56 136.901 160.624 137.007C167.631 148.392 171.913 161.243 173.135 174.556C173.146 174.677 173.133 174.8 173.097 174.917C173.06 175.034 173.001 175.142 172.923 175.236C172.844 175.329 172.748 175.407 172.64 175.463C172.531 175.52 172.413 175.555 172.291 175.565L172.184 175.571Z" fill="white"/>
<path d="M174.775 209.332C174.653 209.33 174.532 209.304 174.419 209.255C174.307 209.206 174.205 209.135 174.121 209.047C174.036 208.958 173.969 208.854 173.925 208.74C173.88 208.626 173.859 208.504 173.862 208.381C174.021 201.182 173.606 193.981 172.622 186.848C172.606 186.727 172.613 186.604 172.644 186.485C172.675 186.367 172.729 186.257 172.803 186.159C172.877 186.062 172.97 185.98 173.075 185.919C173.181 185.857 173.297 185.817 173.418 185.801C173.539 185.784 173.662 185.792 173.78 185.823C173.899 185.854 174.009 185.908 174.107 185.982C174.204 186.056 174.286 186.148 174.347 186.254C174.409 186.359 174.449 186.476 174.465 186.597C175.459 193.828 175.881 201.126 175.726 208.424C175.719 208.67 175.615 208.904 175.437 209.074C175.259 209.244 175.021 209.337 174.775 209.332Z" fill="white"/>
<path d="M157.819 211.624H157.729C157.607 211.612 157.489 211.576 157.381 211.518C157.273 211.46 157.177 211.382 157.1 211.287C157.023 211.192 156.965 211.083 156.93 210.966C156.894 210.848 156.883 210.725 156.895 210.604C159.334 186.07 155.408 161.322 145.495 138.748C145.396 138.522 145.391 138.266 145.481 138.036C145.57 137.806 145.748 137.621 145.974 137.522C146.2 137.423 146.456 137.418 146.686 137.507C146.916 137.597 147.1 137.774 147.2 138C157.242 160.868 161.218 185.938 158.744 210.791C158.72 211.019 158.612 211.231 158.442 211.385C158.271 211.539 158.049 211.624 157.819 211.624Z" fill="white"/>
<path d="M143.033 182.43C142.802 182.431 142.579 182.345 142.408 182.19C142.237 182.035 142.13 181.821 142.109 181.591C141.364 173.977 139.675 166.486 137.082 159.288C136.998 159.056 137.01 158.8 137.116 158.577C137.221 158.353 137.41 158.181 137.643 158.097C137.875 158.013 138.131 158.026 138.355 158.131C138.578 158.236 138.75 158.426 138.834 158.658C141.478 166 143.199 173.643 143.957 181.41C143.981 181.655 143.906 181.899 143.75 182.09C143.594 182.28 143.369 182.4 143.124 182.425L143.033 182.43Z" fill="white"/>
<path d="M144.042 207.703C143.795 207.702 143.559 207.603 143.385 207.427C143.211 207.252 143.113 207.015 143.113 206.768C143.113 202.121 142.931 197.414 142.515 192.783C142.492 192.538 142.568 192.294 142.725 192.105C142.882 191.915 143.108 191.796 143.353 191.773C143.475 191.761 143.599 191.773 143.716 191.809C143.833 191.845 143.942 191.904 144.036 191.982C144.13 192.061 144.208 192.158 144.264 192.267C144.32 192.376 144.354 192.495 144.363 192.617C144.785 197.308 144.993 202.067 144.972 206.779C144.97 207.024 144.872 207.26 144.698 207.433C144.524 207.606 144.288 207.703 144.042 207.703Z" fill="white"/>
<path d="M125.955 213.91H125.869C125.748 213.899 125.629 213.864 125.521 213.806C125.413 213.749 125.317 213.671 125.239 213.577C125.161 213.483 125.103 213.374 125.067 213.257C125.031 213.14 125.019 213.017 125.031 212.895C127.039 190.637 124.363 168.205 117.173 147.044C117.126 146.927 117.103 146.802 117.107 146.676C117.11 146.55 117.139 146.426 117.192 146.311C117.244 146.197 117.32 146.094 117.414 146.01C117.507 145.925 117.617 145.861 117.736 145.82C117.856 145.779 117.982 145.764 118.108 145.773C118.234 145.783 118.356 145.818 118.468 145.877C118.579 145.935 118.678 146.016 118.757 146.114C118.837 146.212 118.896 146.325 118.93 146.446C126.206 167.853 128.914 190.548 126.879 213.066C126.858 213.297 126.751 213.511 126.58 213.667C126.409 213.823 126.186 213.91 125.955 213.91Z" fill="white"/>
<path d="M107.519 179.412C107.284 179.411 107.058 179.321 106.887 179.161C106.715 179 106.611 178.781 106.595 178.546C105.831 167.862 104.704 157.013 103.245 146.366C103.229 146.245 103.236 146.122 103.267 146.004C103.299 145.886 103.353 145.775 103.426 145.678C103.5 145.58 103.593 145.499 103.698 145.437C103.804 145.376 103.92 145.335 104.041 145.319C104.162 145.302 104.285 145.31 104.403 145.341C104.522 145.372 104.632 145.426 104.73 145.5C104.827 145.574 104.909 145.666 104.97 145.772C105.032 145.877 105.072 145.994 105.088 146.115C106.552 156.799 107.685 167.67 108.448 178.418C108.466 178.664 108.385 178.907 108.224 179.093C108.063 179.279 107.834 179.394 107.588 179.412H107.519Z" fill="white"/>
<path d="M108.844 209.866C108.608 209.866 108.382 209.775 108.21 209.614C108.039 209.452 107.935 209.231 107.92 208.996L106.766 191.543C106.753 191.419 106.766 191.293 106.802 191.174C106.839 191.055 106.9 190.944 106.98 190.848C107.061 190.753 107.16 190.674 107.271 190.618C107.383 190.562 107.505 190.528 107.629 190.52C107.754 190.512 107.879 190.529 107.997 190.57C108.115 190.611 108.223 190.676 108.316 190.76C108.408 190.844 108.483 190.946 108.535 191.059C108.587 191.173 108.616 191.296 108.62 191.42L109.774 208.873C109.79 209.119 109.708 209.361 109.546 209.546C109.383 209.731 109.154 209.845 108.908 209.861L108.844 209.866Z" fill="white"/>
<path d="M93.2453 215.075C93.0121 215.074 92.7877 214.986 92.6165 214.828C92.4453 214.67 92.3399 214.453 92.3211 214.22C90.5048 192.5 89.6501 170.416 89.7409 148.631C89.7409 148.509 89.765 148.389 89.8118 148.276C89.8585 148.164 89.9271 148.061 90.0135 147.976C90.0999 147.89 90.2024 147.822 90.3151 147.776C90.4279 147.729 90.5486 147.706 90.6704 147.707C90.7922 147.707 90.9129 147.731 91.0253 147.778C91.1378 147.824 91.2399 147.893 91.3258 147.979C91.4117 148.066 91.4797 148.168 91.5258 148.281C91.5719 148.394 91.5953 148.514 91.5946 148.636C91.4931 170.384 92.3585 192.398 94.1694 214.065C94.1797 214.187 94.1658 214.31 94.1287 214.426C94.0915 214.542 94.0318 214.65 93.9529 214.744C93.8741 214.837 93.7775 214.914 93.6689 214.97C93.5604 215.026 93.4418 215.06 93.3201 215.07L93.2453 215.075Z" fill="white"/>
<path d="M77.5983 188.322C77.365 188.323 77.14 188.236 76.9678 188.079C76.7956 187.922 76.6888 187.705 76.6687 187.473C75.5593 174.389 76.058 161.219 78.1538 148.257C78.2052 148.026 78.343 147.823 78.539 147.69C78.735 147.557 78.9744 147.503 79.2084 147.541C79.4423 147.578 79.6531 147.704 79.7977 147.892C79.9422 148.079 80.0096 148.315 79.9861 148.551C77.9188 161.365 77.4273 174.384 78.5224 187.318C78.5327 187.44 78.5188 187.562 78.4817 187.679C78.4445 187.795 78.3848 187.903 78.3059 187.996C78.227 188.089 78.1305 188.166 78.0219 188.222C77.9133 188.278 77.7948 188.312 77.673 188.322H77.5983Z" fill="white"/>
<path d="M78.0101 212.132C77.8883 212.132 77.7675 212.109 77.6548 212.063C77.542 212.017 77.4395 211.949 77.3531 211.863C77.2668 211.777 77.1982 211.675 77.1514 211.562C77.1046 211.45 77.0806 211.329 77.0806 211.208V198.51C77.0806 198.263 77.1785 198.027 77.3528 197.852C77.5271 197.678 77.7636 197.58 78.0101 197.58C78.2566 197.58 78.493 197.678 78.6674 197.852C78.8417 198.027 78.9396 198.263 78.9396 198.51V211.202C78.9403 211.324 78.9169 211.445 78.8708 211.558C78.8247 211.67 78.7567 211.773 78.6708 211.859C78.5849 211.946 78.4828 212.014 78.3703 212.061C78.2579 212.108 78.1372 212.132 78.0154 212.132H78.0101Z" fill="white"/>
<path d="M83.8592 89.8475C83.376 89.6893 82.8556 89.6856 82.3702 89.8369C81.8848 89.9881 81.4586 90.2868 81.1508 90.6915C80.8745 91.1124 80.7687 91.6228 80.855 92.1189C80.9413 92.615 81.2133 93.0596 81.6156 93.3625C81.8943 93.5263 82.2049 93.6287 82.5264 93.6627C82.8479 93.6968 83.173 93.6619 83.4799 93.5602C83.8992 93.4559 84.282 93.239 84.587 92.933C84.8921 92.6271 85.1078 92.2436 85.2108 91.824C85.2422 91.3903 85.1256 90.9587 84.8801 90.5997C84.6347 90.2408 84.2748 89.9756 83.8592 89.8475Z" fill="#333333"/>
<path d="M112.274 89.8475C111.791 89.6893 111.27 89.6856 110.785 89.8369C110.3 89.9881 109.873 90.2868 109.566 90.6915C109.289 91.1118 109.182 91.6217 109.267 92.1178C109.353 92.6138 109.624 93.0588 110.025 93.3625C110.305 93.5261 110.616 93.6283 110.939 93.6624C111.261 93.6965 111.587 93.6616 111.895 93.5602C112.313 93.455 112.695 93.2378 112.999 92.9319C113.303 92.626 113.518 92.2429 113.62 91.824C113.654 91.3906 113.539 90.9587 113.294 90.5994C113.05 90.2401 112.69 89.9749 112.274 89.8475Z" fill="#333333"/>
<path d="M98.0162 109.528L93.8494 107.124C92.6887 106.557 91.6548 105.761 90.8098 104.784C90.0405 103.753 89.7414 102.257 90.4198 101.173C91.0983 100.088 92.5085 99.741 93.7693 99.4953C96.5151 98.9611 99.3303 98.4696 102.092 98.897C103.23 99.0733 104.459 99.4846 105.036 100.5C105.247 100.918 105.36 101.378 105.368 101.846C105.375 102.314 105.276 102.778 105.078 103.203C104.671 104.048 104.13 104.822 103.476 105.494C102.536 106.563 101.576 107.617 100.596 108.657C100.062 109.212 99.1487 110.179 98.0162 109.528Z" fill="#333333"/>
<path d="M80.6916 131.115C80.4258 131.005 80.1392 130.955 79.8519 130.968C79.5647 130.981 79.2838 131.057 79.0291 131.191C78.7744 131.324 78.5521 131.512 78.3778 131.741C78.2036 131.969 78.0816 132.233 78.0205 132.514C77.6461 134.249 77.4545 136.018 77.449 137.792C77.401 138.053 77.4062 138.322 77.4645 138.581C77.5228 138.84 77.6328 139.085 77.7879 139.3C77.9431 139.516 78.1402 139.698 78.3675 139.835C78.5947 139.973 78.8474 140.063 79.1103 140.1C86.8509 142.846 95.4355 142.034 103.491 141.815C107.135 141.72 110.721 140.878 114.026 139.341C114.836 139.027 115.558 138.521 116.13 137.867C117.167 136.483 116.772 134.544 116.328 132.872C116.04 131.804 115.559 130.511 114.453 130.308C113.804 130.268 113.159 130.428 112.605 130.768C102.824 135.404 91.0444 135.549 80.6916 131.115Z" fill="#333333"/>
<path d="M59.473 62.4748C57.9612 61.0057 56.6043 59.2695 56.1182 57.2182C56.0146 56.9205 55.9805 56.603 56.0185 56.29C56.0564 55.9771 56.1655 55.6769 56.3372 55.4126C56.5342 55.2212 56.7723 55.0774 57.0335 54.9922C57.2946 54.907 57.5717 54.8827 57.8437 54.9211C59.489 55.0226 60.8512 56.1712 62.0852 57.261C62.2934 57.4117 62.4381 57.6345 62.4912 57.886C62.5179 58.2225 62.2241 58.4843 61.957 58.7086C60.8584 59.7629 60.0096 61.0498 59.473 62.4748Z" fill="#333333"/>
<path d="M124.293 51.2942C125.265 50.712 126.04 49.8359 127.012 49.2536C127.984 48.6713 129.325 48.4256 130.217 49.1468C130.501 49.4074 130.718 49.7319 130.851 50.0933C130.984 50.4547 131.028 50.8426 130.981 51.2248C130.884 51.9869 130.641 52.7232 130.265 53.3937C129.805 54.3177 129.284 55.2101 128.705 56.0647C127.57 55.2576 126.518 54.3396 125.564 53.3242C124.971 52.7695 124.533 52.0698 124.293 51.2942Z" fill="#333333"/>
</svg>
