<svg width="286" height="241" viewBox="0 0 286 241" fill="none" xmlns="http://www.w3.org/2000/svg">
<path d="M102.871 0.367038C81.4664 1.60039 61.8744 11.9668 52.2234 31.1208C42.5724 50.2748 38.7922 72.3704 26.36 89.8471C17.486 102.322 4.19648 112.572 0.841752 127.508C-0.625942 134.075 0.0278454 140.939 1.2612 147.556C8.53184 186.407 37.0284 220.675 73.9305 234.89C86.6772 239.823 100.916 242.413 114.015 238.51C131.732 233.225 145.743 216.599 164.225 216.266C179.796 215.989 192.999 227.483 208.12 231.202C228.865 236.302 251.343 225.479 264.145 208.385C276.947 191.291 281.289 169.09 280.894 147.728C280.462 124.523 272.371 98.3264 251.114 89.0084C238.164 83.3288 222.131 84.8643 211.08 76.0582C201.984 68.7937 198.9 56.5896 194.066 45.9951C177.273 9.19173 133.81 -1.43366 102.871 0.367038Z" fill="#EBEBEB"/>
<path d="M136.134 175.732C128.484 179.379 120.322 181.835 111.93 183.015C108.816 188.608 105.609 194.313 100.83 198.555C96.0504 202.798 89.2793 205.376 83.1433 203.557C82.8103 202.2 83.5565 200.837 84.2163 199.604C90.6175 187.634 90.3215 171.902 81.7496 160.642C80.595 163.258 79.7666 166.007 79.2829 168.825C72.2135 161.64 66.7339 153.049 63.1999 143.609C61.8741 145.246 60.7689 147.05 59.913 148.974C54.3584 134.371 52.9769 118.511 55.9231 103.168C52.9014 106.399 49.9784 109.717 47.2218 113.034C46.3153 108.822 46.7716 104.444 47.3698 100.183C48.3997 92.8937 49.8364 85.6723 51.4398 78.414C49.2198 78.8581 46.9998 79.3021 44.4468 79.9003C49.2912 67.9529 57.0379 57.4019 66.9862 49.202C68.5153 39.6517 71.5896 30.4143 76.0884 21.8523C79.2458 24.2759 80.7814 28.2041 83.2358 31.3369C84.0816 32.3759 84.9812 33.3701 85.9307 34.3154C87.2165 35.716 88.6125 37.011 90.1055 38.1881C100.225 34.8254 111.097 34.4337 121.433 37.0596C124.917 30.8497 129.049 24.7261 135.117 20.8842C147.688 44.8659 154.334 71.5092 154.499 98.5856C154.585 125.584 148.129 152.551 136.134 175.732Z" fill="white"/>
<path d="M15.5308 46.2848C18.3865 45.2485 20.8486 43.3485 22.5748 40.8486C24.3011 38.3488 25.2059 35.3732 25.1633 32.3356C25.6875 35.1291 26.3042 37.972 27.7719 40.4017C29.2396 42.8314 31.731 44.8295 34.5553 44.9775C32.1446 46.783 30.1967 49.1348 28.8717 51.8395C27.5467 54.5443 26.8822 57.5248 26.9331 60.5362C25.3729 57.6317 25.0831 54.0488 22.9741 51.5204C22.2023 50.6623 21.3355 49.8948 20.3903 49.2326C18.8794 48.067 17.3438 46.8953 15.5308 46.2848Z" fill="white"/>
<path d="M180.918 56.2258C185.673 54.456 189.077 49.06 188.935 43.5778C189.366 46.1123 189.878 48.69 191.099 50.8916C192.32 53.0931 194.38 54.9 196.736 55.0356C192.721 58.2609 190.285 63.6691 190.415 69.1391C189.12 66.5059 188.885 63.2621 187.128 60.9681C186.498 60.1967 185.779 59.5013 184.988 58.8961C183.794 57.7801 182.417 56.877 180.918 56.2258Z" fill="white"/>
<path d="M163.755 55.2268C169.09 68.325 171.119 82.6196 170.872 96.7662C170.625 110.913 168.152 124.936 164.748 138.663C163.829 142.363 162.837 146.064 161.85 149.764L159.383 158.958C158.242 163.232 157.095 167.512 155.541 171.649C154.188 175.2 152.602 178.657 150.793 181.997C147.622 187.895 144.015 193.547 140.001 198.907C146.953 196.855 154.37 197.006 161.233 199.338C164.643 200.51 167.887 202.212 171.427 202.89C177.526 204.056 183.711 202.07 189.748 200.633C199.831 198.228 210.53 197.334 220.502 200.171C223.382 200.991 226.169 202.113 229.062 202.89C234.393 204.354 239.985 204.594 245.422 203.593C246.94 203.298 248.418 202.824 249.825 202.181C250.787 188.892 251.589 174.801 245.391 163.01C243.344 159.125 240.581 155.61 238.959 151.515C235.765 143.498 237.337 134.34 235.222 125.966C232.971 117.08 226.786 109.79 220.669 102.97C219.519 101.591 218.213 100.349 216.777 99.2699C215.149 98.2702 213.446 97.3981 211.684 96.6614C208.125 94.9409 204.9 92.5975 201.712 91.0003C194.115 86.2026 186.443 81.2383 180.566 74.4363C175.195 68.2326 171.273 60.4562 163.755 55.2268Z" fill="#F6DFA8"/>
<path d="M78.7031 168.745L81.5213 161.844C86.2747 167.555 88.6681 174.865 88.2124 182.281C88.1569 183.459 88.0335 184.637 88.0397 185.815C88.0397 187.295 88.274 188.781 88.0397 190.236C87.6203 192.758 85.8874 194.855 83.9881 196.569C80.3841 199.764 76.0634 202.044 71.3918 203.215C66.7201 204.386 61.8351 204.414 57.1502 203.297C54.3758 184.15 54.9749 164.665 58.9201 145.724C59.3313 146.596 59.7548 147.467 60.1905 148.339C61.1731 146.505 62.2009 144.703 63.2739 142.931C65.9942 152.77 71.3255 161.69 78.7031 168.745Z" fill="#F6DFA8"/>
<path d="M47.2096 111.678C48.9733 127.187 45.1684 142.709 42.381 158.07C39.5936 173.432 37.9162 189.743 43.5464 204.475C48.1669 203.064 53.0257 202.604 57.8288 203.125C54.485 186.029 54.5185 168.444 57.9274 151.361C58.6391 148.93 58.607 146.342 57.835 143.93C54.8048 131.085 53.8409 117.839 54.9797 104.691C52.3156 107.015 49.6517 109.34 47.2096 111.678Z" fill="#EDB24E"/>
<path d="M118.553 203.285C145.483 168.708 158.217 123.401 153.574 79.8262C150.946 62.9471 146.434 46.4156 140.124 30.5413C143.134 31.1086 145.748 32.9402 148.079 34.9259C155.56 41.2777 161.202 49.646 164.915 58.7235C168.627 67.801 170.465 77.5877 171.26 87.9602C171.647 102.763 170.226 117.557 167.03 132.016C165.525 138.799 163.626 145.583 161.689 152.261C156.996 168.511 151.822 185.216 140.722 197.618C133.223 199.443 125.793 201.46 118.553 203.285Z" fill="#EDB24E"/>
<path d="M83.1431 29.5112C87.2933 26.9089 92.0909 25.5152 96.8949 24.5778C107.607 22.4503 119.095 22.4379 129.055 26.841C126.373 29.9519 123.887 33.2266 121.611 36.6462C111.239 35.382 100.447 34.5248 90.5617 37.9166C90.3178 38.0323 90.0427 38.0648 89.7785 38.0091C89.6078 37.935 89.4558 37.8233 89.3344 37.6822C87.261 35.5732 85.4019 33.2637 83.7843 30.7878C83.5115 30.3945 83.2957 29.9648 83.1431 29.5112Z" fill="#EDB24E"/>
<path d="M82.0702 75.9596C81.4564 75.7502 80.7912 75.7452 80.1743 75.9453C79.5573 76.1454 79.0218 76.5398 78.6476 77.0696C78.2919 77.6292 78.155 78.3003 78.2631 78.9545C78.3712 79.6087 78.7167 80.2 79.2334 80.6155C79.584 80.8294 79.9777 80.963 80.3861 81.0068C80.7945 81.0505 81.2074 81.0032 81.5954 80.8684C82.1311 80.7201 82.6168 80.4298 83.0011 80.0282C83.3854 79.6265 83.654 79.1284 83.7784 78.5866C83.8328 78.0201 83.6935 77.4519 83.3832 76.9747C83.073 76.4976 82.6101 76.1397 82.0702 75.9596Z" fill="#333333"/>
<path d="M120.804 75.9596C120.189 75.7508 119.524 75.746 118.906 75.946C118.288 76.146 117.751 76.5401 117.376 77.0696C117.023 77.6327 116.891 78.3061 117.005 78.9606C117.119 79.615 117.471 80.2044 117.992 80.6155C118.343 80.8294 118.736 80.963 119.145 81.0068C119.553 81.0505 119.966 81.0032 120.354 80.8684C120.891 80.7211 121.378 80.4312 121.763 80.0295C122.149 79.6278 122.418 79.1292 122.543 78.5866C122.593 78.0166 122.449 77.4463 122.133 76.9691C121.817 76.4919 121.349 76.136 120.804 75.9596Z" fill="#333333"/>
<path d="M117.067 206.368C116.864 206.369 116.665 206.311 116.493 206.203C116.321 206.094 116.184 205.94 116.096 205.756C116.009 205.573 115.976 205.368 116 205.167C116.025 204.965 116.106 204.774 116.234 204.617C152.618 159.717 163.336 96.1619 143.59 42.6959C141.666 38.7122 139.97 34.4509 138.33 30.3623C137.312 27.8093 136.27 25.1823 135.166 22.6169C130.352 26.9335 126.064 31.8017 122.389 37.1212C122.272 37.2876 122.11 37.4173 121.922 37.4948C121.734 37.5724 121.528 37.5946 121.328 37.559C109.463 35.5301 99.2755 36.0666 90.1918 39.2117C90.0027 39.2782 89.7986 39.2896 89.6033 39.2449C89.4079 39.2001 89.2292 39.101 89.0879 38.9588C84.3794 34.138 80.0498 28.961 76.1377 23.4741C71.5995 31.584 68.8375 40.5661 68.0346 49.8247C68.0211 49.9687 67.9785 50.1085 67.9096 50.2356C67.8408 50.3628 67.7469 50.4748 67.6337 50.5647C58.3626 57.9538 51.0149 67.4743 46.2165 78.3152C48.0172 77.9514 49.8487 77.6122 51.7666 77.3841C51.9453 77.3643 52.1261 77.3895 52.2926 77.4574C52.4591 77.5253 52.6061 77.6336 52.72 77.7727C52.834 77.9118 52.9113 78.0771 52.9451 78.2537C52.9789 78.4303 52.9682 78.6126 52.9136 78.7839C49.5572 89.0433 47.7874 99.7552 47.6657 110.549L55.4358 102.748C55.5341 102.644 55.6521 102.561 55.7831 102.503C55.914 102.445 56.0553 102.415 56.1983 102.412C56.3414 102.41 56.4835 102.436 56.6163 102.49C56.749 102.543 56.8697 102.623 56.9713 102.723C57.0729 102.824 57.1532 102.944 57.2077 103.076C57.2622 103.209 57.2896 103.351 57.2885 103.494C57.2874 103.637 57.2576 103.778 57.201 103.91C57.1444 104.041 57.0621 104.16 56.9589 104.259L47.3512 113.904C47.2008 114.052 47.0103 114.153 46.8033 114.195C46.5963 114.236 46.3816 114.217 46.1856 114.138C45.9901 114.059 45.8225 113.923 45.704 113.749C45.5854 113.574 45.5213 113.368 45.5197 113.158C45.3722 101.836 47.0036 90.5614 50.3543 79.7459C48.418 80.0481 46.531 80.4428 44.6933 80.8251C44.5007 80.8675 44.3002 80.8566 44.1133 80.7936C43.9265 80.7306 43.7602 80.6178 43.6326 80.4674C43.5044 80.3201 43.4189 80.1406 43.3852 79.9483C43.3516 79.7559 43.3709 79.558 43.4414 79.3759C48.2802 67.5672 56.025 57.1729 65.9563 49.1587C66.8784 39.1936 70.0111 29.5596 75.1264 20.958C75.2185 20.8071 75.3462 20.6811 75.4984 20.5912C75.6506 20.5012 75.8226 20.45 75.9992 20.4421C76.1758 20.4342 76.3517 20.4698 76.5114 20.5457C76.671 20.6217 76.8095 20.7358 76.9147 20.8778C80.8368 26.2614 85.1473 31.9164 90.1363 36.9608C99.1213 33.9884 109.5 33.4396 121.026 35.3266C124.994 29.6768 129.641 24.5363 134.864 20.0206C134.991 19.9108 135.142 19.8322 135.304 19.7912C135.467 19.7502 135.637 19.7479 135.801 19.7845C135.964 19.8211 136.117 19.8955 136.247 20.0019C136.377 20.1082 136.479 20.2435 136.547 20.3968C137.886 23.4247 139.131 26.5636 140.328 29.5607C141.956 33.6492 143.639 37.8735 145.57 41.8942C165.143 94.8607 155.239 157.484 120.483 202.749C131.212 198.555 142.64 196.435 154.16 196.502C157.909 196.502 161.8 197.945 165.568 199.314C170.15 200.973 174.473 202.545 178.482 201.83C181.744 201.213 188.256 199.85 193.485 198.746L198.764 197.624C207.879 195.731 215.951 197.969 223.752 200.14C232.108 202.465 240.014 204.66 249.036 202.07C249.967 192.271 249.301 171.804 244.546 163.386C243.806 162.072 242.912 160.79 242.043 159.55C240.781 157.844 239.665 156.035 238.706 154.142C236.61 149.714 236.314 144.793 236.024 140.039C235.919 138.355 235.814 136.61 235.629 134.932C234.37 123.689 229.279 113.221 221.211 105.289C215.402 99.5906 208.039 95.1999 200.916 90.951C189.946 84.408 178.599 77.6369 172.956 66.0063C172.892 65.8793 172.854 65.7407 172.844 65.5987C172.833 65.4567 172.851 65.3142 172.897 65.1793C172.942 65.0444 173.014 64.9199 173.109 64.8131C173.203 64.7062 173.317 64.6192 173.445 64.557C173.573 64.4948 173.712 64.4587 173.854 64.4509C173.997 64.443 174.139 64.4635 174.273 64.5111C174.407 64.5588 174.53 64.6326 174.636 64.7284C174.741 64.8242 174.826 64.94 174.886 65.069C180.252 76.126 190.821 82.4285 202.02 89.1195C209.254 93.4362 216.728 97.8948 222.716 103.766C231.139 112.046 236.454 122.973 237.769 134.71C237.96 136.437 238.065 138.213 238.17 139.921C238.46 144.682 238.737 149.172 240.637 153.236C241.544 155.021 242.6 156.727 243.794 158.335C244.688 159.618 245.613 160.944 246.409 162.344C251.743 171.804 252.088 193.862 251.083 203.045C251.062 203.252 250.98 203.449 250.847 203.61C250.714 203.772 250.537 203.89 250.337 203.951C240.415 207.034 231.639 204.568 223.154 202.243C215.599 200.14 207.78 197.969 199.177 199.776C197.858 200.048 196.001 200.442 193.911 200.892C188.663 202.009 182.132 203.408 178.839 203.976C174.264 204.796 169.46 203.051 164.81 201.367C161.215 200.06 157.502 198.709 154.117 198.685C141.502 198.627 129.019 201.24 117.486 206.35C117.349 206.383 117.206 206.389 117.067 206.368Z" fill="#333333"/>
<path d="M193.683 172.365C193.066 172.365 192.449 172.365 191.87 172.365C191.728 172.362 191.589 172.332 191.46 172.275C191.33 172.219 191.214 172.137 191.116 172.035C191.019 171.933 190.942 171.812 190.892 171.681C190.841 171.549 190.817 171.408 190.821 171.267C190.834 170.985 190.955 170.718 191.16 170.523C191.364 170.327 191.636 170.219 191.919 170.219C206.48 170.529 220.814 166.574 233.156 158.841C233.397 158.697 233.683 158.653 233.956 158.718C234.228 158.783 234.465 158.951 234.614 159.188C234.764 159.425 234.815 159.71 234.757 159.984C234.699 160.258 234.536 160.499 234.303 160.654C222.125 168.281 208.052 172.338 193.683 172.365Z" fill="#333333"/>
<path d="M26.7853 68.1585C26.519 68.1582 26.2623 68.059 26.0652 67.88C25.868 67.7011 25.7445 67.4553 25.7184 67.1903C25.3114 62.9784 24.8921 58.6246 23.0976 54.7889C21.673 51.7055 18.7808 48.3199 14.7971 47.5861C14.5581 47.5719 14.3209 47.5368 14.088 47.4813C13.8193 47.4205 13.5845 47.2582 13.4328 47.0284C13.281 46.7985 13.2242 46.5188 13.2739 46.2479C13.3222 45.9787 13.4705 45.7377 13.6889 45.573C13.9072 45.4084 14.1796 45.3323 14.4517 45.3599L15.0192 45.4401C16.8692 45.5449 18.8364 43.6393 20.1068 41.6105C22.4563 37.8672 23.7513 33.1373 23.8993 27.8154C23.8561 26.7979 23.8437 25.7865 23.8684 24.769C23.8748 24.4908 23.9889 24.226 24.1868 24.0304C24.3847 23.8349 24.6509 23.7238 24.9291 23.7206C25.0678 23.7157 25.2062 23.7384 25.336 23.7873C25.4659 23.8362 25.5848 23.9105 25.6858 24.0057C25.7867 24.1009 25.8677 24.2153 25.9241 24.3421C25.9805 24.4689 26.0113 24.6056 26.0144 24.7443C26.0638 25.7742 26.0761 26.7917 26.0515 27.7907C26.1564 30.0521 26.4514 32.3006 26.9333 34.5125C27.5993 37.5959 28.475 39.6679 29.7639 41.296C31.3364 43.257 33.5996 44.3239 35.647 44.0895C35.8933 44.0657 36.1401 44.1276 36.3459 44.2649C36.5517 44.4022 36.7038 44.6064 36.7763 44.8429C36.8489 45.0794 36.8375 45.3337 36.7441 45.5628C36.6507 45.7918 36.481 45.9816 36.2637 46.0999C34.4724 47.0663 32.9044 48.3986 31.6613 50.0102C30.4183 51.6219 29.5282 53.4769 29.0486 55.4549C28.4557 58.1232 28.1293 60.8438 28.0742 63.5765C28.0064 64.8099 27.9384 66.0001 27.8336 67.2026C27.809 67.4687 27.6861 67.7161 27.4888 67.8963C27.2915 68.0765 27.034 68.1766 26.7668 68.177L26.7853 68.1585ZM18.3183 46.5747C21.2983 48.2111 23.6611 50.7776 25.0462 53.8824C25.618 55.1336 26.0822 56.4313 26.4337 57.7613C26.5684 56.798 26.7559 55.8427 26.995 54.8999C27.8704 51.3484 29.8794 48.179 32.7178 45.8717C30.8899 45.2638 29.2799 44.134 28.0865 42.6218C26.5529 40.5345 25.5 38.1338 25.0031 35.5917C24.359 38.1217 23.3317 40.5382 21.9568 42.7575C21.0334 44.2774 19.7921 45.5795 18.3183 46.5747Z" fill="#333333"/>
<path d="M191.006 75.423C190.76 75.4226 190.522 75.3379 190.331 75.183C190.141 75.0281 190.009 74.8124 189.958 74.5719C189.721 73.3246 189.558 72.0644 189.471 70.7979C189.168 67.5788 188.854 63.9342 186.634 61.4367C185.583 60.3887 184.361 59.5275 183.02 58.8898C181.559 58.0039 180.001 57.288 178.377 56.7561C178.117 56.6852 177.894 56.5194 177.751 56.2916C177.608 56.0638 177.555 55.7906 177.604 55.5261C177.653 55.2616 177.8 55.0251 178.015 54.8634C178.23 54.7018 178.497 54.6267 178.765 54.6532C181.386 54.9061 183.699 52.4085 184.969 50.0158C187.032 46.164 187.892 41.7814 187.436 37.4356C187.374 36.9114 187.3 36.3872 187.214 35.8754C187.165 35.5949 187.229 35.3064 187.393 35.0734C187.556 34.8403 187.806 34.6818 188.086 34.6328C188.367 34.5837 188.655 34.6481 188.888 34.8117C189.121 34.9754 189.28 35.2249 189.329 35.5054C189.428 36.0666 189.508 36.6216 189.569 37.1889C189.68 38.1448 189.767 39.1006 189.847 40.038C189.952 41.222 190.056 42.4492 190.223 43.6332C190.661 46.7166 191.456 48.9798 192.764 50.7003C193.483 51.6819 194.414 52.4885 195.488 53.0597C196.562 53.631 197.752 53.9523 198.967 53.9996C199.217 54.0003 199.459 54.0881 199.651 54.2479C199.843 54.4076 199.973 54.6293 200.019 54.8748C200.065 55.1203 200.024 55.3741 199.903 55.5926C199.782 55.8111 199.589 55.9804 199.356 56.0716C196.408 57.2248 194.108 60.2342 193.189 64.1192C192.309 67.4424 191.922 70.8772 192.042 74.3129C192.054 74.5732 191.971 74.829 191.809 75.0331C191.647 75.2371 191.417 75.3756 191.16 75.423H191.006ZM182.206 56.0161C182.823 56.3368 183.44 56.6759 184.056 57.0089C185.612 57.7653 187.026 58.7833 188.237 60.0183C189.485 61.4921 190.362 63.2428 190.796 65.1244C190.895 64.6434 191.012 64.1501 191.129 63.6382C191.781 60.4991 193.476 57.6733 195.94 55.6214C193.994 54.9218 192.296 53.6676 191.056 52.0138C189.908 50.4422 189.09 48.6551 188.65 46.7598C188.195 48.2541 187.594 49.7 186.856 51.0765C185.825 53.1492 184.209 54.8733 182.206 56.0346V56.0161Z" fill="#333333"/>
<path d="M87.1761 28.5554C86.924 28.557 86.6794 28.4698 86.4852 28.3091C86.2909 28.1484 86.1595 27.9245 86.1139 27.6765C86.0683 27.4286 86.1114 27.1725 86.2357 26.9532C86.36 26.7339 86.5577 26.5654 86.7938 26.4772C98.6681 22.0034 111.608 21.1767 123.955 24.103C124.232 24.1692 124.472 24.3428 124.621 24.5857C124.77 24.8285 124.817 25.1207 124.75 25.398C124.684 25.6752 124.51 25.9147 124.268 26.0639C124.025 26.2131 123.733 26.2597 123.455 26.1935C111.528 23.3671 99.0288 24.1659 87.5585 28.4875C87.4354 28.5302 87.3063 28.5531 87.1761 28.5554Z" fill="#333333"/>
<path d="M163.909 146.082C163.834 146.09 163.757 146.09 163.681 146.082C163.403 146.021 163.161 145.853 163.007 145.613C162.853 145.374 162.801 145.083 162.861 144.805C167.048 125.621 171.377 105.782 170.027 85.8633C168.534 63.8479 159.593 45.0083 145.489 34.1671C145.377 34.0813 145.284 33.9743 145.213 33.8522C145.143 33.7301 145.097 33.5954 145.079 33.4557C145.061 33.316 145.07 33.174 145.106 33.0379C145.143 32.9018 145.206 32.7742 145.292 32.6624C145.378 32.5507 145.485 32.457 145.607 32.3866C145.729 32.3162 145.864 32.2705 146.003 32.2521C146.143 32.2338 146.285 32.2432 146.421 32.2798C146.557 32.3163 146.685 32.3793 146.797 32.4651C161.387 43.6825 170.637 63.0894 172.173 85.7153C173.542 105.936 169.182 125.929 164.958 145.268C164.901 145.502 164.766 145.71 164.576 145.858C164.385 146.006 164.15 146.085 163.909 146.082Z" fill="#333333"/>
<path d="M139.656 199.702C139.441 199.703 139.231 199.64 139.052 199.52C138.873 199.401 138.735 199.23 138.655 199.031C138.574 198.831 138.555 198.612 138.601 198.402C138.646 198.192 138.754 198 138.91 197.852C150.102 187.011 154.888 171.884 158.391 157.151C158.47 156.89 158.646 156.669 158.882 156.532C159.119 156.396 159.399 156.355 159.665 156.418C159.93 156.481 160.162 156.643 160.313 156.871C160.463 157.099 160.521 157.376 160.475 157.645C156.898 172.692 151.996 188.164 140.402 199.388C140.204 199.586 139.936 199.699 139.656 199.702Z" fill="#333333"/>
<path d="M43.1952 205.444C42.9708 205.444 42.7519 205.374 42.5693 205.243C42.3868 205.113 42.2498 204.928 42.1776 204.716C36.8927 189.262 38.4776 173.604 40.6853 160.315C41.302 156.578 42.0297 152.798 42.7265 149.141C44.6937 138.811 46.7287 128.124 46.8459 117.505C46.8423 117.363 46.8681 117.221 46.9218 117.089C46.9754 116.957 47.0557 116.838 47.1575 116.738C47.2594 116.639 47.3806 116.561 47.5137 116.511C47.6469 116.46 47.789 116.438 47.9312 116.445C48.0719 116.445 48.2109 116.474 48.3405 116.529C48.47 116.583 48.5874 116.663 48.686 116.764C48.7846 116.864 48.8623 116.983 48.9148 117.113C48.9673 117.244 48.9935 117.383 48.9919 117.524C48.8747 128.34 46.8212 139.107 44.8355 149.542C44.1387 153.186 43.4233 156.942 42.8004 160.642C40.6667 173.37 39.1435 188.306 43.8796 202.995C48.702 201.669 53.7465 202.039 58.6799 202.379L61.0603 202.545C66.6104 202.903 72.9375 202.816 77.6674 199.462C77.7818 199.37 77.9137 199.303 78.055 199.265C78.1962 199.226 78.3438 199.217 78.4887 199.238C78.6337 199.258 78.7729 199.308 78.8978 199.385C79.0227 199.461 79.1306 199.562 79.2149 199.682C79.2992 199.802 79.358 199.937 79.3878 200.081C79.4177 200.224 79.418 200.372 79.3886 200.515C79.3592 200.659 79.3007 200.795 79.2168 200.915C79.1329 201.035 79.0254 201.136 78.9008 201.213C73.6282 204.913 66.8571 205.037 60.9185 204.654L58.5134 204.488C53.4628 204.118 48.2335 203.735 43.5097 205.289C43.4143 205.358 43.3079 205.41 43.1952 205.444Z" fill="#333333"/>
<path d="M57.2499 203.92C56.9942 203.919 56.7474 203.826 56.554 203.658C56.3607 203.491 56.2335 203.26 56.1953 203.007C53.7907 187.2 53.6787 171.128 55.8624 155.289C55.8814 155.149 55.9277 155.015 55.9988 154.893C56.0698 154.771 56.1642 154.665 56.2764 154.579C56.3886 154.494 56.5166 154.431 56.6529 154.396C56.7893 154.36 56.9313 154.351 57.071 154.37C57.2107 154.389 57.3452 154.435 57.467 154.506C57.5888 154.578 57.6954 154.672 57.7808 154.784C57.8661 154.896 57.9284 155.024 57.9643 155.161C58.0002 155.297 58.0089 155.439 57.9899 155.579C55.8317 171.215 55.9418 187.082 58.3167 202.687C58.3387 202.827 58.3328 202.97 58.2994 203.108C58.266 203.246 58.2058 203.376 58.1222 203.49C58.0386 203.605 57.9332 203.702 57.8121 203.775C57.691 203.849 57.5566 203.898 57.4164 203.92H57.2499Z" fill="#333333"/>
<path d="M87.9904 205.265C87.4786 205.265 86.9668 205.265 86.4549 205.197C85.3636 205.197 84.315 204.773 83.5319 204.013C81.9347 202.206 83.3592 199.597 83.8958 198.617C89.8097 187.782 89.0943 173.604 82.3232 163.3C81.8114 165.211 81.059 167.37 80.3252 169.466C80.2667 169.634 80.1672 169.785 80.0358 169.904C79.9044 170.024 79.7453 170.109 79.5728 170.151C79.4007 170.193 79.221 170.193 79.0491 170.15C78.8771 170.107 78.7182 170.022 78.5861 169.904C71.4624 163.355 66.1968 155.039 63.3233 145.798L60.8566 149.424C60.7455 149.589 60.591 149.719 60.4103 149.801C60.2297 149.883 60.0299 149.913 59.8331 149.888C59.6363 149.863 59.4502 149.784 59.2956 149.66C59.141 149.535 59.024 149.371 58.9573 149.184C54.8348 137.606 53.0897 125.315 53.8265 113.047C53.8516 112.765 53.984 112.503 54.1963 112.316C54.4086 112.129 54.6845 112.031 54.9673 112.041C55.1083 112.05 55.2463 112.086 55.3732 112.148C55.5001 112.211 55.6134 112.297 55.7068 112.403C55.8002 112.509 55.8719 112.632 55.9174 112.766C55.963 112.9 55.9817 113.041 55.9725 113.182C55.297 124.443 56.7618 135.73 60.2893 146.446L62.8485 142.69C62.9659 142.521 63.1296 142.389 63.3198 142.309C63.5101 142.23 63.719 142.207 63.9221 142.242C64.1251 142.278 64.3138 142.371 64.4656 142.511C64.6174 142.65 64.7261 142.83 64.7787 143.03C67.2017 152.205 72.0623 160.554 78.8452 167.191C79.6557 165.03 80.2887 162.807 80.7383 160.543C80.7688 160.335 80.8601 160.14 81.0007 159.983C81.1413 159.826 81.3248 159.714 81.5287 159.66C81.7326 159.607 81.9476 159.615 82.147 159.683C82.3464 159.751 82.5214 159.877 82.6501 160.044C91.1849 171.101 92.4738 187.381 85.7828 199.641C85.2525 200.615 84.6111 201.972 85.1661 202.582C85.5988 202.898 86.1226 203.065 86.6585 203.057C91.9866 203.501 97.6846 201.275 102.291 196.94C105.991 193.443 109.013 188.732 111.782 182.139C111.86 181.957 111.986 181.8 112.147 181.685C112.308 181.57 112.497 181.501 112.695 181.486C116.538 181.187 120.338 180.475 124.029 179.364C124.163 179.323 124.305 179.308 124.445 179.322C124.585 179.335 124.721 179.376 124.845 179.443C124.969 179.509 125.078 179.6 125.167 179.709C125.256 179.819 125.322 179.944 125.361 180.079C125.444 180.352 125.415 180.646 125.281 180.897C125.146 181.148 124.918 181.335 124.646 181.418C121.015 182.509 117.284 183.23 113.509 183.57C110.69 190.168 107.582 194.935 103.759 198.531C99.1215 202.853 93.4665 205.265 87.9904 205.265Z" fill="#333333"/>
<path d="M32.1809 213.596H12.6199C12.3353 213.596 12.0625 213.483 11.8612 213.282C11.66 213.08 11.5469 212.807 11.5469 212.523C11.5469 212.238 11.66 211.965 11.8612 211.764C12.0625 211.563 12.3353 211.45 12.6199 211.45H32.1809C32.4655 211.45 32.7385 211.563 32.9397 211.764C33.1409 211.965 33.2539 212.238 33.2539 212.523C33.2539 212.807 33.1409 213.08 32.9397 213.282C32.7385 213.483 32.4655 213.596 32.1809 213.596Z" fill="#333333"/>
<path d="M206.485 213.349H47.2527C46.9681 213.349 46.6953 213.236 46.494 213.035C46.2928 212.834 46.1797 212.561 46.1797 212.276C46.1797 211.992 46.2928 211.719 46.494 211.517C46.6953 211.316 46.9681 211.203 47.2527 211.203H206.485C206.77 211.203 207.043 211.316 207.244 211.517C207.445 211.719 207.558 211.992 207.558 212.276C207.558 212.561 207.445 212.834 207.244 213.035C207.043 213.236 206.77 213.349 206.485 213.349Z" fill="#333333"/>
<path d="M284.279 213.596H221.878C221.593 213.596 221.32 213.483 221.119 213.282C220.918 213.08 220.805 212.807 220.805 212.523C220.805 212.238 220.918 211.965 221.119 211.764C221.32 211.563 221.593 211.45 221.878 211.45H284.279C284.564 211.45 284.837 211.563 285.038 211.764C285.239 211.965 285.352 212.238 285.352 212.523C285.352 212.807 285.239 213.08 285.038 213.282C284.837 213.483 284.564 213.596 284.279 213.596Z" fill="#333333"/>
<path d="M100.854 107.163C100.577 107.164 100.311 107.057 100.111 106.865C99.9105 106.673 99.7926 106.411 99.7814 106.134L99.3066 94.8053C99.3008 94.6643 99.3228 94.5237 99.3715 94.3913C99.4201 94.2588 99.4944 94.1373 99.5901 94.0336C99.6857 93.93 99.8009 93.8462 99.929 93.7871C100.057 93.7279 100.195 93.6947 100.336 93.6891C100.478 93.6816 100.619 93.7025 100.752 93.7506C100.885 93.7986 101.008 93.8728 101.112 93.9688C101.216 94.0647 101.299 94.1805 101.358 94.3094C101.416 94.4382 101.449 94.5775 101.453 94.7189L101.927 106.047C101.933 106.188 101.911 106.329 101.863 106.461C101.814 106.594 101.74 106.715 101.644 106.819C101.548 106.923 101.433 107.006 101.305 107.066C101.177 107.125 101.038 107.158 100.897 107.163H100.854Z" fill="#333333"/>
<path d="M99.9784 95.2678C98.4656 94.435 97.1043 93.353 95.9516 92.0672C95.4513 91.5603 95.0681 90.9499 94.8292 90.2789C94.714 89.9431 94.6876 89.5833 94.7524 89.2343C94.8173 88.8853 94.971 88.559 95.1991 88.287C95.7929 87.7909 96.5545 87.5414 97.3268 87.5901C99.1535 87.5347 100.982 87.5841 102.803 87.7381C103.459 87.7487 104.109 87.8675 104.727 88.0896C105.036 88.204 105.314 88.3891 105.539 88.63C105.764 88.8709 105.929 89.161 106.022 89.4772C106.219 90.3713 105.621 91.2347 105.017 91.9439C104.412 92.653 103.907 93.1772 103.309 93.7322C102.359 94.6203 100.99 95.8289 99.9784 95.2678Z" fill="#333333"/>
<path d="M75.0527 45.5696C75.2199 42.9091 75.8242 40.2944 76.8412 37.8303C77.037 37.1697 77.4783 36.6092 78.0745 36.2639C79.0427 35.8322 80.1156 36.5661 80.8803 37.3061C81.9623 38.3572 82.9411 39.5095 83.8034 40.7472C84.05 41.1048 84.3029 41.5673 84.1117 41.9805C83.9638 42.2092 83.7482 42.386 83.495 42.4862L76.7671 46.1863C76.4957 46.3774 76.1674 46.4709 75.8359 46.4514C75.5276 46.3651 75.2624 45.9519 75.0527 45.5696Z" fill="#333333"/>
<path d="M127.026 38.7924C128.242 37.1277 129.656 35.618 131.238 34.2968C131.966 33.6801 132.916 33.0634 133.847 33.3594C134.213 33.52 134.537 33.7617 134.796 34.0662C135.054 34.3707 135.24 34.73 135.339 35.117C136.022 36.911 136.343 38.8225 136.283 40.7411C136.31 40.9901 136.271 41.242 136.171 41.4714C136.07 41.7008 135.911 41.8998 135.709 42.0484C135.38 42.1722 135.02 42.1916 134.679 42.1039C132.586 41.7617 130.523 41.2503 128.512 40.5746C128.037 40.4447 127.595 40.2179 127.211 39.9085C127.049 39.7775 126.941 39.5914 126.906 39.3857C126.872 39.1799 126.915 38.9687 127.026 38.7924Z" fill="#333333"/>
<path d="M176.681 167.925C176.593 167.934 176.504 167.934 176.416 167.925C176.14 167.854 175.903 167.676 175.758 167.431C175.612 167.186 175.57 166.894 175.639 166.617C181.578 143.181 185.091 119.195 186.122 95.0396C186.128 94.8987 186.162 94.7604 186.222 94.6325C186.281 94.5046 186.365 94.3898 186.469 94.2944C186.573 94.1991 186.695 94.1251 186.827 94.0768C186.96 94.0285 187.101 94.0068 187.242 94.0128C187.383 94.0189 187.521 94.0527 187.649 94.1122C187.777 94.1717 187.892 94.2559 187.987 94.3598C188.082 94.4637 188.156 94.5854 188.204 94.7179C188.253 94.8504 188.274 94.9912 188.268 95.1321C187.226 119.435 183.693 143.567 177.723 167.148C177.657 167.373 177.52 167.571 177.332 167.711C177.144 167.851 176.916 167.926 176.681 167.925Z" fill="white"/>
<path d="M167.61 193.122C167.433 193.123 167.259 193.079 167.102 192.996C166.946 192.913 166.813 192.792 166.715 192.645C166.617 192.498 166.556 192.329 166.539 192.153C166.522 191.977 166.549 191.799 166.617 191.636L172.081 178.451C172.132 178.317 172.21 178.195 172.309 178.091C172.409 177.988 172.528 177.905 172.66 177.849C172.792 177.792 172.934 177.763 173.078 177.762C173.221 177.761 173.364 177.79 173.496 177.845C173.629 177.9 173.749 177.982 173.849 178.084C173.95 178.187 174.029 178.308 174.081 178.442C174.134 178.576 174.159 178.718 174.155 178.862C174.152 179.006 174.119 179.147 174.06 179.278L168.596 192.456C168.517 192.653 168.38 192.821 168.205 192.94C168.029 193.058 167.822 193.122 167.61 193.122Z" fill="white"/>
<path d="M194.343 158.372C194.256 158.381 194.17 158.381 194.084 158.372C193.947 158.338 193.818 158.278 193.704 158.194C193.591 158.11 193.495 158.005 193.422 157.884C193.349 157.763 193.301 157.629 193.28 157.49C193.26 157.35 193.266 157.208 193.3 157.071C197.667 139.465 200.372 121.488 201.379 103.377C201.383 103.235 201.415 103.096 201.475 102.967C201.534 102.838 201.62 102.723 201.725 102.628C201.831 102.533 201.955 102.461 202.089 102.416C202.224 102.371 202.366 102.354 202.507 102.366C202.648 102.374 202.787 102.409 202.914 102.47C203.041 102.532 203.155 102.618 203.249 102.723C203.343 102.828 203.415 102.951 203.461 103.085C203.508 103.218 203.527 103.359 203.519 103.5C202.505 121.745 199.782 139.854 195.385 157.589C195.32 157.816 195.184 158.015 194.995 158.156C194.807 158.297 194.578 158.373 194.343 158.372Z" fill="white"/>
<path d="M210.216 161.061C210.138 161.07 210.06 161.07 209.982 161.061C209.705 160.999 209.464 160.83 209.311 160.591C209.159 160.352 209.107 160.062 209.168 159.785C212.71 143.927 214.605 127.746 214.823 111.499C214.828 111.217 214.943 110.949 215.144 110.752C215.344 110.555 215.615 110.444 215.896 110.444C216.037 110.446 216.175 110.475 216.305 110.531C216.434 110.586 216.551 110.667 216.649 110.768C216.747 110.868 216.824 110.988 216.876 111.118C216.927 111.249 216.953 111.389 216.95 111.53C216.732 127.922 214.82 144.248 211.246 160.247C211.189 160.478 211.057 160.683 210.87 160.83C210.684 160.977 210.454 161.059 210.216 161.061Z" fill="white"/>
<path d="M222.666 156.559C222.571 156.559 222.475 156.547 222.383 156.522C222.109 156.446 221.876 156.264 221.735 156.017C221.594 155.77 221.556 155.477 221.63 155.203C223.475 148.504 224.473 141.601 224.603 134.655C224.608 134.374 224.723 134.105 224.923 133.908C225.124 133.711 225.394 133.6 225.676 133.6C225.961 133.607 226.232 133.726 226.43 133.932C226.627 134.137 226.735 134.413 226.73 134.698C226.6 141.822 225.577 148.901 223.684 155.77C223.622 155.994 223.49 156.192 223.307 156.334C223.123 156.477 222.899 156.555 222.666 156.559Z" fill="white"/>
<path d="M184.124 195.219C183.973 195.219 183.823 195.185 183.686 195.12C183.557 195.063 183.441 194.98 183.345 194.878C183.248 194.775 183.172 194.655 183.122 194.523C183.072 194.391 183.049 194.251 183.054 194.11C183.059 193.969 183.091 193.83 183.15 193.702L189.458 179.66C189.575 179.4 189.791 179.197 190.057 179.096C190.324 178.995 190.62 179.004 190.88 179.12C191.14 179.237 191.343 179.453 191.444 179.719C191.545 179.986 191.536 180.282 191.419 180.542L185.105 194.584C185.019 194.772 184.882 194.933 184.708 195.045C184.534 195.158 184.331 195.218 184.124 195.219Z" fill="white"/>
<path d="M199.603 192.191C199.404 192.189 199.211 192.134 199.042 192.031C198.799 191.883 198.625 191.644 198.558 191.368C198.491 191.091 198.536 190.8 198.684 190.557C201.235 186.399 203.41 182.022 205.184 177.477C205.23 177.34 205.304 177.213 205.4 177.105C205.497 176.997 205.615 176.909 205.746 176.848C205.877 176.786 206.02 176.752 206.165 176.748C206.31 176.743 206.454 176.767 206.589 176.82C206.725 176.872 206.848 176.952 206.951 177.053C207.055 177.155 207.137 177.276 207.192 177.41C207.248 177.544 207.275 177.688 207.273 177.833C207.272 177.978 207.24 178.121 207.182 178.254C205.363 182.918 203.132 187.411 200.515 191.679C200.419 191.835 200.285 191.964 200.125 192.053C199.966 192.143 199.786 192.19 199.603 192.191Z" fill="white"/>
<path d="M214.625 192.962C214.404 192.958 214.189 192.887 214.009 192.758C213.895 192.676 213.798 192.571 213.724 192.451C213.65 192.331 213.6 192.198 213.578 192.059C213.556 191.92 213.561 191.778 213.594 191.64C213.626 191.503 213.686 191.374 213.768 191.26C218.216 185.111 221.727 178.336 224.184 171.156C224.286 170.901 224.482 170.694 224.732 170.579C224.981 170.464 225.266 170.449 225.526 170.538C225.787 170.626 226.003 170.812 226.131 171.055C226.259 171.299 226.288 171.582 226.213 171.847C223.689 179.23 220.081 186.196 215.507 192.518C215.407 192.657 215.274 192.771 215.121 192.848C214.967 192.925 214.797 192.964 214.625 192.962Z" fill="white"/>
<path d="M228.229 196.755C228.085 196.754 227.942 196.725 227.81 196.668C227.677 196.61 227.558 196.527 227.459 196.422C227.257 196.22 227.145 195.948 227.145 195.663C227.145 195.379 227.257 195.106 227.459 194.905C232.571 189.965 236.17 183.672 237.837 176.762C237.903 176.485 238.075 176.245 238.318 176.095C238.56 175.945 238.852 175.898 239.129 175.963C239.406 176.029 239.646 176.202 239.796 176.444C239.946 176.686 239.993 176.978 239.928 177.255C238.163 184.567 234.354 191.226 228.945 196.452C228.752 196.638 228.497 196.746 228.229 196.755Z" fill="white"/>
</svg>
