<svg width="264" height="244" viewBox="0 0 264 244" fill="none" xmlns="http://www.w3.org/2000/svg">
<path d="M133.222 12.4664C118.422 7.49595 105.638 -2.46341 90.6711 1.18733C75.7043 4.83806 62.7356 14.2979 51.1667 24.7074C38.4446 36.1468 26.4996 49.6644 21.8745 66.3887C15.5042 89.2613 23.6382 114.761 15.7077 137.128C11.8596 148.006 4.37934 157.528 2.43064 168.93C-0.0360737 183.471 6.97556 197.914 15.3809 209.914C19.1303 215.267 23.3237 220.497 28.8245 223.882C38.2905 229.697 50.1985 229.21 60.9657 226.793C71.7329 224.376 82.1733 220.213 93.1502 219.22C125.637 216.266 154.787 241.057 187.298 243.733C210.048 245.583 233.42 235.716 248.35 217.931C256.983 207.608 262.965 194.189 261.916 180.591C260.066 156.751 238.335 140.211 217.583 129.475C203.856 122.365 188.242 114.835 183.111 99.9298C179.948 90.7105 181.594 80.5846 181.31 70.8165C180.361 38.1264 153.677 19.33 133.222 12.4664Z" fill="#EBEBEB"/>
<path d="M57.5183 118.8C51.0925 113.25 44.3892 107.342 41.5586 99.2269C38.4753 90.4639 40.5041 80.782 42.5392 71.7107C44.5495 62.7483 46.5579 53.7859 48.5641 44.8236C49.8591 39.0576 51.148 33.2917 52.7945 27.6244C54.4147 22.0422 56.3795 16.5659 58.6776 11.2269C65.1466 18.0104 70.191 25.5647 74.7113 34.4572C88.278 33.3687 101.918 35.2847 114.66 40.069C116.195 39.5756 117.367 38.3299 118.508 37.1644C123.462 32.0652 129.174 27.7614 135.442 24.4053C137.619 30.3131 138.026 36.7882 137.477 43.0845C136.928 49.3808 135.46 55.5414 134.233 61.8562C138.616 73.6406 140.228 86.2756 138.944 98.7829C144.963 103.673 149.921 109.815 154.361 116.26C163.05 128.864 169.933 142.869 173.867 157.793C177.801 172.716 178.726 188.553 175.859 203.661C187.927 201.686 198.951 195.628 207.087 186.499C215.302 177.181 220.207 165.408 221.037 153.014C221.789 141.55 219.119 129.518 223.244 118.85C224.768 114.915 227.142 111.394 229.707 108.082C231.884 105.27 234.271 102.532 237.305 100.75C241.757 98.1415 247.171 97.8764 252.253 98.4869C254.43 98.7521 256.705 99.2146 258.358 100.695C260.103 102.255 260.862 104.672 261.312 107.003C262.872 115.094 261.719 123.512 259.505 131.436C257.291 139.36 254.041 146.927 251.309 154.679C245.969 169.849 242.491 186.006 233.876 199.486C226.926 210.352 216.609 219.097 204.565 223.037C192.521 226.978 178.8 225.856 167.565 218.819C162.317 224.172 156.464 229.093 149.681 232.029C142.897 234.964 134.948 235.729 127.684 232.473C126.128 234.852 124.191 236.959 121.949 238.707C120.552 239.909 118.863 240.722 117.052 241.063C115.246 241.297 113.235 240.631 112.255 239.052C111.175 237.313 111.57 235.063 111.601 232.997C111.656 228.476 109.751 224.209 107.771 220.17C106.729 218.03 105.021 215.563 102.739 215.983C100.969 216.303 99.9519 218.301 99.7916 220.139C99.4894 223.531 101.148 226.75 101.759 230.098C102.269 232.913 102.039 235.811 101.093 238.51C100.711 239.847 99.9086 241.025 98.8049 241.871C96.4492 243.412 93.3411 241.976 91.3554 240.317C90.2454 240.317 89.3142 239.496 88.4879 238.719C86.607 236.95 84.7261 235.18 82.6109 232.997C81.4886 234.915 79.3055 236.123 76.3023 235.722C62.2401 222.981 53.1504 205.667 50.6485 186.857C49.2116 176.01 50.001 164.934 52.0792 154.173C54.4349 142.148 58.4063 130.122 57.5183 118.8Z" fill="white"/>
<path d="M73.7617 34.5125C73.7926 39.1315 76.5183 43.3372 79.8915 46.3774C84.8804 50.8668 91.7194 53.4076 98.25 52.279C104.781 51.1505 110.725 45.9704 112.064 39.2918C100.671 36.6862 89.08 35.036 77.4125 34.3584C75.8954 34.2659 74.2736 34.2227 73.7617 34.5125Z" fill="#F6DFA8"/>
<path d="M150.02 112.824C142.959 121.273 138.038 131.812 137.168 142.918C136.299 154.025 139.758 165.643 147.331 173.598C154.904 181.553 166.695 185.315 177.074 182.195C176.611 156.109 166.461 130.332 150.02 112.824Z" fill="#F6DFA8"/>
<path d="M221.61 140.143C218.471 124.603 226.5 107.398 240.246 100.22C243.422 98.5608 247.029 97.383 250.526 97.9935C254.621 98.7088 258.074 101.848 259.967 105.659C261.86 109.47 262.348 113.885 262.138 118.165C261.589 129.179 256.723 139.385 252.622 149.566C248.112 160.767 244.439 172.288 241.633 184.032C237.008 180.036 238.334 172.932 238.642 166.765C238.951 160.599 237.65 153.581 233.641 148.937C229.904 144.565 222.294 143.529 221.61 140.143Z" fill="#EDB24E"/>
<path d="M61.9215 64.2982C61.3142 64.0058 60.6278 63.9204 59.9674 64.0552C59.3069 64.1899 58.7088 64.5374 58.2646 65.0444C57.8301 65.5965 57.6085 66.2863 57.6402 66.9882C57.6719 67.6901 57.9548 68.3571 58.4373 68.8678C58.7678 69.1383 59.1556 69.33 59.5713 69.4283C59.9869 69.5266 60.4195 69.529 60.8362 69.4352C61.4128 69.3427 61.953 69.0937 62.3978 68.7153C62.8426 68.3368 63.1748 67.8435 63.3584 67.2891C63.4836 66.7019 63.4104 66.0897 63.1504 65.5484C62.8904 65.0072 62.4582 64.5675 61.9215 64.2982Z" fill="#333333"/>
<path d="M101.709 69.1328C101.103 68.8341 100.415 68.7453 99.753 68.8804C99.091 69.0154 98.4927 69.3668 98.0522 69.879C97.6177 70.4311 97.3961 71.121 97.4278 71.8228C97.4595 72.5247 97.7424 73.1918 98.2249 73.7024C98.5554 73.973 98.9432 74.1647 99.3589 74.263C99.7745 74.3613 100.207 74.3636 100.624 74.2698C101.2 74.1774 101.741 73.9284 102.185 73.5499C102.63 73.1715 102.962 72.6781 103.146 72.1237C103.273 71.5364 103.201 70.9234 102.941 70.3816C102.681 69.8399 102.247 69.4005 101.709 69.1328Z" fill="#333333"/>
<path d="M77.4865 237.35C77.2244 237.352 76.9711 237.256 76.7773 237.079C56.0322 218.579 45.9804 186.512 51.1728 155.369C51.7093 152.156 52.4062 148.9 53.0598 145.749C54.9099 136.906 56.8647 127.767 55.5266 118.874C47.3556 114.138 41.5033 104.314 40.2021 93.0971C38.9687 82.6136 41.4355 71.8833 43.5877 62.3927L49.7544 35.2588C51.7216 26.6253 53.7567 17.6403 57.8699 9.54334C57.9522 9.3791 58.0754 9.23887 58.2277 9.13624C58.3801 9.0336 58.5563 8.97204 58.7395 8.95751C58.9222 8.94098 59.1061 8.97272 59.2728 9.04955C59.4394 9.12639 59.583 9.24563 59.6891 9.39534C65.2545 17.0905 70.2426 25.187 74.6127 33.6185C88.3972 33.1276 102.164 35.0048 115.313 39.1686C121.066 32.6099 127.753 26.9333 135.158 22.3209C135.302 22.2338 135.464 22.1814 135.631 22.1679C135.798 22.1543 135.966 22.18 136.122 22.2429C136.278 22.3057 136.417 22.4041 136.528 22.53C136.639 22.656 136.719 22.8061 136.762 22.9684C140.085 35.7152 139.58 48.3632 135.208 61.6156C140.221 73.2277 141.886 85.8943 140.141 99.2824C168.157 124.171 182.729 164.508 177.561 202.533C199.33 198.938 217.867 178.889 220.081 156.245C220.436 151.464 220.51 146.666 220.303 141.876C220.05 131.337 219.785 120.447 225.625 111.659C229.047 106.522 234.16 102.958 238.236 100.423C245.346 95.9955 250.97 95.0273 255.441 97.457C259.678 99.7572 261.528 104.598 262.33 108.249C265.166 121.199 260.085 133.835 255.164 146.064C253.53 150.134 251.84 154.339 250.489 158.459C249.355 161.906 248.411 165.489 247.498 168.942C246.487 172.76 245.451 176.706 244.15 180.517C238.871 195.99 229.35 208.885 217.257 216.827C203.924 225.603 187.656 228.045 173.738 223.364C173.486 223.259 173.283 223.063 173.17 222.814C173.057 222.566 173.043 222.284 173.129 222.025C173.216 221.766 173.398 221.55 173.638 221.42C173.877 221.289 174.158 221.255 174.422 221.323C187.724 225.806 203.295 223.451 216.073 215.039C227.746 207.349 236.996 194.843 242.115 179.827C243.391 176.083 244.421 172.174 245.42 168.393C246.345 164.897 247.27 161.277 248.448 157.768C249.823 153.587 251.532 149.344 253.172 145.243C257.97 133.317 262.928 120.977 260.233 108.687C259.653 106.06 258.13 101.342 254.418 99.3255C250.705 97.309 245.784 98.2463 239.371 102.224C235.479 104.647 230.608 108.039 227.413 112.831C221.949 121.033 222.19 131.115 222.48 141.815C222.695 146.693 222.617 151.58 222.245 156.448C219.896 180.499 199.786 201.793 176.463 204.864C176.298 204.886 176.129 204.87 175.971 204.815C175.813 204.761 175.67 204.67 175.553 204.55C175.437 204.43 175.35 204.284 175.301 204.124C175.251 203.965 175.239 203.795 175.267 203.63C180.953 165.68 166.461 125.171 138.353 100.442C138.221 100.323 138.12 100.174 138.059 100.007C137.997 99.8407 137.978 99.6618 138.001 99.4859C139.851 86.1409 138.192 73.536 133.135 62.0227C133.03 61.7784 133.019 61.5037 133.105 61.2518C137.292 48.7579 137.946 36.8375 135.097 24.8678C128.166 29.3622 121.909 34.8165 116.51 41.0679C116.374 41.2283 116.194 41.3446 115.992 41.4017C115.789 41.4588 115.575 41.4543 115.375 41.3886C102.041 37.0977 88.0533 35.1979 74.0577 35.7768C73.8529 35.7879 73.6493 35.7389 73.4718 35.6359C73.2944 35.533 73.1508 35.3805 73.0587 35.1972C68.9306 27.1815 64.2468 19.4645 59.0416 12.1026C55.5574 19.552 53.695 27.7662 51.882 35.7213L45.7152 62.8552C43.4952 72.6295 41.195 82.7369 42.3666 92.8381C43.6 103.593 49.2426 112.942 57.0559 117.246C57.1995 117.323 57.3233 117.432 57.4175 117.564C57.5117 117.697 57.5737 117.85 57.5986 118.011C59.1526 127.452 57.1423 136.974 55.1936 146.181C54.5337 149.307 53.8492 152.545 53.3435 155.708C48.2744 186.117 58.0549 217.419 78.2573 235.463C78.3628 235.557 78.4486 235.671 78.5101 235.798C78.5715 235.925 78.6072 236.063 78.6153 236.204C78.6233 236.345 78.6034 236.486 78.5568 236.619C78.5102 236.753 78.4377 236.875 78.3436 236.98C78.2388 237.104 78.1069 237.201 77.9582 237.265C77.8096 237.33 77.6482 237.359 77.4865 237.35Z" fill="#333333"/>
<path d="M133.709 235.833H132.765C132.625 235.83 132.486 235.799 132.357 235.742C132.228 235.685 132.111 235.603 132.014 235.501C131.917 235.4 131.84 235.279 131.789 235.148C131.738 235.017 131.714 234.876 131.717 234.735C131.72 234.595 131.751 234.456 131.808 234.327C131.865 234.198 131.947 234.081 132.049 233.984C132.151 233.887 132.271 233.81 132.402 233.759C132.534 233.708 132.674 233.684 132.815 233.687C144.057 233.844 154.954 229.805 163.377 222.359C166.714 219.399 168.872 216.5 169.994 213.509C170.092 213.242 170.293 213.025 170.551 212.905C170.81 212.785 171.105 212.773 171.373 212.871C171.64 212.969 171.857 213.17 171.977 213.428C172.097 213.687 172.109 213.982 172.011 214.249C170.777 217.579 168.409 220.749 164.814 223.95C156.225 231.544 145.174 235.766 133.709 235.833Z" fill="#333333"/>
<path d="M96.1588 243.418C95.2133 243.421 94.2731 243.277 93.3714 242.993C90.288 242 87.9076 239.749 85.7924 237.443C79.3097 230.398 74.2077 222.197 70.7516 213.269C70.6509 213.003 70.6592 212.708 70.7747 212.448C70.8901 212.189 71.1034 211.985 71.3683 211.882C71.4998 211.83 71.6402 211.805 71.7814 211.808C71.9227 211.811 72.0618 211.843 72.1909 211.9C72.32 211.957 72.4364 212.04 72.5334 212.142C72.6304 212.245 72.7059 212.366 72.7558 212.498C76.1164 221.171 81.0715 229.138 87.3649 235.987C89.289 238.06 91.4227 240.088 94.025 240.921C96.2883 241.649 99.3285 241.254 100.759 239.071C102.356 236.66 101.376 233.342 100.457 230.129C100.266 229.482 100.081 228.84 99.9205 228.211C99.2168 225.537 98.94 222.769 99.1003 220.009C99.2421 217.419 100.007 215.73 101.425 214.835C101.871 214.553 102.371 214.365 102.893 214.284C103.415 214.204 103.948 214.232 104.459 214.367C106.513 214.866 108.239 216.753 109.177 218.35C112.042 223.266 113.171 229.002 112.384 234.637L112.303 235.173C112.104 236.079 112.07 237.013 112.205 237.93C112.673 240.045 115.288 241.075 117.311 240.668C119.697 240.199 121.714 238.349 123.367 236.598C132.305 227.007 137.646 214.617 138.481 201.534C138.499 201.249 138.628 200.983 138.841 200.794C139.055 200.605 139.335 200.508 139.619 200.525C139.904 200.543 140.17 200.672 140.359 200.885C140.548 201.099 140.645 201.379 140.627 201.663C139.748 215.239 134.201 228.094 124.927 238.047C123.04 240.045 120.703 242.16 117.724 242.752C114.745 243.344 110.86 241.741 110.108 238.374C109.906 237.198 109.932 235.995 110.182 234.828L110.256 234.31C110.95 229.157 109.92 223.918 107.327 219.411C106.445 217.9 105.088 216.704 103.954 216.426C103.722 216.359 103.48 216.342 103.242 216.376C103.003 216.41 102.775 216.495 102.572 216.624C101.789 217.117 101.339 218.289 101.24 220.102C101.097 222.64 101.351 225.184 101.993 227.644C102.153 228.26 102.338 228.877 102.517 229.494C103.54 233.003 104.694 236.98 102.548 240.218C101.092 242.487 98.5638 243.418 96.1588 243.418Z" fill="#333333"/>
<path d="M238.735 180.881C238.486 180.881 238.246 180.794 238.054 180.637C237.862 180.48 237.73 180.261 237.68 180.018C236.934 176.262 237.193 172.414 237.44 168.696C237.686 164.977 237.927 161.499 237.261 158.058C236.637 154.904 235.255 151.95 233.234 149.45C231.213 146.95 228.614 144.979 225.661 143.708C225.398 143.6 225.188 143.392 225.078 143.129C224.968 142.867 224.967 142.571 225.075 142.308C225.183 142.045 225.391 141.835 225.654 141.725C225.916 141.615 226.212 141.614 226.475 141.722C229.757 143.131 232.647 145.318 234.895 148.093C237.144 150.868 238.684 154.148 239.382 157.651C240.098 161.351 239.845 165.168 239.598 168.844C239.351 172.519 239.111 176.12 239.802 179.599C239.85 179.874 239.789 180.157 239.631 180.388C239.473 180.619 239.231 180.778 238.957 180.832C238.885 180.859 238.811 180.875 238.735 180.881Z" fill="#333333"/>
<path d="M168.971 184.464C165.719 184.404 162.509 183.717 159.517 182.441C147.726 177.668 138.636 165.976 136.354 152.65C134.159 139.792 138.075 126.015 146.838 115.797C147.024 115.581 147.287 115.448 147.571 115.426C147.855 115.405 148.136 115.497 148.352 115.683C148.568 115.869 148.701 116.132 148.722 116.416C148.744 116.7 148.652 116.981 148.466 117.197C140.246 126.786 136.422 140.236 138.482 152.292C140.628 164.915 149.194 175.948 160.294 180.456C164.611 182.207 168.631 182.725 172.202 181.991C172.34 181.963 172.482 181.962 172.621 181.989C172.759 182.015 172.891 182.069 173.009 182.147C173.126 182.224 173.228 182.324 173.307 182.441C173.386 182.558 173.441 182.689 173.469 182.827C173.498 182.965 173.498 183.107 173.472 183.246C173.445 183.384 173.391 183.516 173.314 183.634C173.236 183.751 173.136 183.852 173.02 183.931C172.903 184.01 172.772 184.066 172.634 184.094C171.428 184.341 170.201 184.465 168.971 184.464Z" fill="#333333"/>
<path d="M94.5866 53.3953C93.1364 53.399 91.6897 53.2523 90.2698 52.9575C83.6097 51.5823 77.5108 47.136 73.5394 40.7657C73.4575 40.6463 73.4007 40.5115 73.3724 40.3695C73.344 40.2275 73.3447 40.0813 73.3743 39.9396C73.404 39.7979 73.462 39.6636 73.5449 39.5449C73.6278 39.4262 73.7339 39.3255 73.8567 39.2489C73.9796 39.1723 74.1167 39.1213 74.2597 39.099C74.4028 39.0768 74.5489 39.0837 74.6892 39.1194C74.8295 39.1551 74.9611 39.2189 75.0762 39.3068C75.1912 39.3947 75.2873 39.505 75.3585 39.6311C79.0216 45.5018 84.6087 49.5966 90.7015 50.8546C97.1396 52.1866 104.022 50.0837 108.246 45.5018C108.341 45.3974 108.456 45.3129 108.584 45.2531C108.712 45.1934 108.851 45.1597 108.992 45.154C109.133 45.1483 109.274 45.1706 109.406 45.2197C109.538 45.2688 109.66 45.3438 109.763 45.4402C109.971 45.6339 110.094 45.902 110.106 46.186C110.117 46.4701 110.016 46.7472 109.825 46.9572C107.856 49.0105 105.49 50.6406 102.87 51.7476C100.249 52.8546 97.4309 53.4153 94.5866 53.3953Z" fill="#333333"/>
<path d="M77.8625 91.4751C74.7397 90.8041 71.9572 89.0445 70.0122 86.5108C69.3873 85.8035 69.0029 84.916 68.9146 83.9763C68.9341 83.3885 69.1043 82.8155 69.4088 82.3124C69.7133 81.8092 70.1419 81.3926 70.6536 81.1026C71.6714 80.5504 72.802 80.2382 73.959 80.1899C75.8834 80.0419 77.8147 80.0048 79.7434 80.0789C80.9514 80.029 82.158 80.2047 83.3016 80.5969C83.8799 80.8044 84.3935 81.1603 84.7907 81.629C85.1879 82.0977 85.4549 82.6627 85.5649 83.2671C85.7314 84.6731 84.794 85.9373 83.9122 87.0227L82.1916 89.1441C81.6932 89.8243 81.0968 90.4269 80.4218 90.9324C80.0542 91.1916 79.6378 91.3734 79.1979 91.4667C78.7579 91.5599 78.3036 91.5628 77.8625 91.4751Z" fill="#333333"/>
<path d="M85.3366 124.936C82.8911 121.94 80.1288 119.217 77.0978 116.814C75.0257 115.174 72.6515 113.632 70.0307 113.645C69.2105 113.645 67.6318 114.261 66.9843 116.432C65.5474 121.285 65.7509 125.479 66.0469 130.542C66.0917 132.224 66.4018 133.889 66.9658 135.475C67.3913 136.561 68.1066 137.64 69.1981 137.979C70.5918 138.411 72.0102 137.498 73.2004 136.628C76.8573 133.958 81.0877 131.023 84.7446 128.353C88.7098 132.238 92.9772 136.53 97.4235 139.817C99.625 141.438 101.438 138.423 101.679 137.442C103.257 131.152 104.053 124.196 102.067 118.035C101.05 114.89 98.5089 115.606 97.1028 116.562C94.9814 118.048 89.3759 121.748 85.3366 124.936Z" fill="#333333"/>
<path d="M106.297 87.8306C106.031 87.8352 105.772 87.7406 105.572 87.5653C105.372 87.3899 105.244 87.1462 105.213 86.8817C105.182 86.6171 105.251 86.3506 105.406 86.1339C105.56 85.9172 105.79 85.7658 106.051 85.7092C110.329 84.7213 114.697 84.1757 119.087 84.0812C119.37 84.0809 119.642 84.1897 119.846 84.385C120.051 84.5803 120.172 84.847 120.185 85.1295C120.188 85.2709 120.163 85.4116 120.112 85.5435C120.061 85.6753 119.984 85.7957 119.886 85.8977C119.788 85.9997 119.671 86.0814 119.541 86.1379C119.411 86.1945 119.272 86.2248 119.13 86.2272C114.889 86.3145 110.669 86.8436 106.538 87.8059C106.459 87.8233 106.378 87.8315 106.297 87.8306Z" fill="#333333"/>
<path d="M113.112 99.7263C112.876 99.7254 112.646 99.6474 112.458 99.5042C110.108 97.6778 107.596 96.0698 104.953 94.7003C104.828 94.6351 104.717 94.5459 104.627 94.4378C104.536 94.3297 104.467 94.2048 104.425 94.0702C104.383 93.9357 104.367 93.7941 104.38 93.6535C104.392 93.513 104.432 93.3763 104.497 93.2511C104.562 93.126 104.651 93.015 104.76 92.9243C104.868 92.8337 104.993 92.7652 105.127 92.7228C105.262 92.6804 105.403 92.665 105.544 92.6773C105.684 92.6897 105.821 92.7296 105.946 92.7948C108.702 94.2226 111.321 95.8987 113.772 97.8022C113.95 97.9391 114.081 98.1284 114.146 98.3436C114.211 98.5587 114.206 98.7888 114.133 99.0013C114.06 99.2139 113.923 99.3982 113.739 99.5283C113.556 99.6583 113.337 99.7276 113.112 99.7263Z" fill="#333333"/>
<path d="M50.1982 82.5949C50.0586 82.5957 49.9202 82.5685 49.7912 82.5147C45.3282 80.6856 40.6155 79.538 35.8111 79.1107C35.5274 79.0853 35.2653 78.9483 35.0826 78.7297C34.8998 78.5111 34.8114 78.2289 34.8368 77.9452C34.8621 77.6614 34.9992 77.3993 35.2177 77.2166C35.4363 77.0339 35.7185 76.9455 36.0023 76.9708C41.0205 77.4199 45.943 78.6193 50.6052 80.529C50.8353 80.6233 51.0254 80.7945 51.1432 81.0135C51.261 81.2324 51.2991 81.4854 51.2511 81.7293C51.203 81.9732 51.0718 82.1929 50.8797 82.3507C50.6877 82.5086 50.4468 82.5949 50.1982 82.5949Z" fill="#333333"/>
<path d="M35.8668 94.2627C35.6172 94.2656 35.3743 94.1814 35.1801 94.0245C34.9858 93.8676 34.8524 93.6479 34.8027 93.4032C34.753 93.1585 34.7902 92.9041 34.9079 92.6839C35.0256 92.4637 35.2164 92.2914 35.4475 92.1968C39.7839 90.3694 44.3892 89.2613 49.0822 88.9161C49.2237 88.9037 49.3663 88.9195 49.5016 88.9626C49.637 89.0058 49.7624 89.0753 49.8706 89.1673C49.9789 89.2593 50.0678 89.3718 50.1322 89.4984C50.1966 89.625 50.2352 89.7632 50.2458 89.9048C50.2565 90.0465 50.2388 90.1888 50.194 90.3236C50.1492 90.4584 50.0781 90.5829 49.9847 90.69C49.8914 90.7971 49.7777 90.8846 49.6503 90.9474C49.5229 91.0102 49.3843 91.0471 49.2426 91.056C44.7856 91.3895 40.4121 92.4433 36.2923 94.1763C36.1586 94.2362 36.0133 94.2656 35.8668 94.2627Z" fill="#333333"/>
<path d="M161.62 63.0771C168.298 59.303 172.72 51.5884 172.652 43.7443C172.862 47.7157 173.09 51.7611 174.471 55.492C175.853 59.2229 178.591 62.6146 182.309 63.7061C179.047 64.3536 176.383 66.9129 174.743 69.8729C173.102 72.833 172.331 76.237 171.579 79.5671C171.961 73.2153 167.928 66.8635 161.62 63.0771Z" fill="white"/>
<path d="M171.579 80.6524H171.431C171.164 80.6157 170.921 80.4798 170.75 80.2719C170.578 80.064 170.491 79.7991 170.506 79.5301C170.858 73.7271 167.151 67.6405 161.065 64.0083C160.904 63.9136 160.77 63.7784 160.677 63.6161C160.584 63.4539 160.536 63.2702 160.536 63.0833C160.536 62.8964 160.584 62.7127 160.677 62.5504C160.77 62.3882 160.904 62.253 161.065 62.1583C167.386 58.5877 171.598 51.1999 171.548 43.7689C171.545 43.4875 171.652 43.216 171.847 43.013C172.042 42.8099 172.309 42.6916 172.591 42.6836C172.87 42.6798 173.14 42.7831 173.345 42.9724C173.551 43.1617 173.676 43.4225 173.694 43.7011C173.898 47.5553 174.108 51.5329 175.446 55.1343C176.864 58.9762 179.534 61.8006 182.581 62.6948C182.812 62.7615 183.015 62.9042 183.155 63.0998C183.296 63.2955 183.366 63.5327 183.356 63.7734C183.345 64.0141 183.254 64.2441 183.096 64.4266C182.939 64.609 182.725 64.7332 182.488 64.7791C179.837 65.3033 177.345 67.363 175.655 70.4217C174.077 73.2893 173.324 76.6194 172.572 79.8323C172.518 80.058 172.391 80.26 172.212 80.4079C172.033 80.5557 171.811 80.6416 171.579 80.6524ZM163.618 63.0894C167.493 65.7027 170.406 69.5125 171.912 73.9368C172.386 72.3532 173.021 70.8221 173.805 69.3672C175.083 66.9301 177.047 64.9211 179.454 63.589C176.657 61.747 174.549 59.0296 173.46 55.862C172.961 54.4938 172.584 53.0844 172.332 51.6501C170.688 56.2772 167.642 60.2762 163.618 63.0894Z" fill="#333333"/>
<path d="M19.3955 136.752C16.3553 135.309 14.3758 132.435 13.4384 129.463C12.5011 126.49 12.4764 123.296 12.4579 120.212C12.0255 123.374 11.0181 126.43 9.48552 129.228C7.84516 132.009 5.28595 134.445 1.06787 136.061C4.31776 137.769 6.53781 140.766 7.85133 143.955C9.16486 147.143 9.60886 150.547 10.0652 153.92C10.4229 150.966 10.799 147.951 12.1249 145.231C13.4508 142.511 15.8743 140.057 19.3955 136.752Z" fill="white"/>
<path d="M10.0461 154.987C9.78586 154.986 9.5346 154.892 9.33856 154.721C9.14252 154.55 9.01491 154.313 8.97922 154.056C8.54138 150.8 8.09121 147.433 6.83935 144.349C5.8835 142 4.02113 138.799 0.567733 137.005C0.386445 136.907 0.236848 136.76 0.136597 136.58C0.0363449 136.4 -0.0103841 136.195 0.00193347 135.99C0.0142511 135.784 0.085094 135.586 0.206106 135.42C0.327119 135.253 0.493249 135.125 0.684894 135.05C4.26779 133.674 6.85168 131.59 8.56605 128.679C10.2804 125.769 10.9711 122.543 11.4028 120.046C11.4515 119.785 11.5951 119.551 11.8059 119.39C12.0168 119.229 12.2799 119.152 12.5444 119.173C12.8089 119.195 13.056 119.314 13.2381 119.507C13.4202 119.7 13.5243 119.953 13.5303 120.219C13.5303 123.209 13.5673 126.299 14.4615 129.16C14.8592 130.577 15.5432 131.898 16.4713 133.04C17.3994 134.183 18.5518 135.123 19.8574 135.802C20.015 135.877 20.1519 135.99 20.2561 136.13C20.3603 136.27 20.4288 136.433 20.4555 136.606C20.4822 136.779 20.4664 136.955 20.4095 137.12C20.3526 137.285 20.2562 137.434 20.1288 137.553C16.8049 140.674 14.3505 143.103 13.074 145.712C11.7974 148.321 11.4583 151.231 11.1129 154.062C11.0801 154.321 10.9546 154.559 10.7596 154.733C10.5645 154.906 10.3132 155.003 10.0522 155.005L10.0461 154.987ZM3.35511 136.221C5.81475 138.118 7.7085 140.652 8.83122 143.547C9.34532 144.854 9.75767 146.198 10.0646 147.568C10.3362 146.601 10.6932 145.66 11.1314 144.756C12.4203 142.098 14.628 139.78 17.588 136.968C15.0902 135.229 13.264 132.687 12.4141 129.765C12.1403 128.85 11.9342 127.916 11.7974 126.971C11.4186 127.936 10.965 128.87 10.4407 129.765C8.7783 132.578 6.30996 134.827 3.35511 136.221Z" fill="#333333"/>
<path d="M27.6395 226.466C24.1368 226.466 20.6896 224.215 18.8272 220.712C16.8538 217.012 16.9772 212.924 17.4212 210.143C17.6789 208.394 18.2008 206.696 18.969 205.104L18.7655 204.938C15.787 202.434 14.2268 198.154 14.6954 193.838C15.2011 189.169 17.7357 185.512 19.7769 183.262C19.8691 183.15 19.983 183.058 20.1118 182.991C20.2406 182.924 20.3816 182.884 20.5262 182.874C20.6708 182.863 20.8161 182.882 20.9533 182.929C21.0905 182.976 21.2167 183.05 21.3243 183.147C21.4319 183.245 21.5188 183.363 21.5795 183.494C21.6402 183.626 21.6737 183.769 21.6777 183.914C21.6818 184.059 21.6565 184.203 21.6032 184.338C21.5499 184.473 21.4699 184.595 21.3679 184.698C19.5179 186.715 17.2732 189.977 16.8292 194.066C16.4468 197.636 17.7295 201.238 20.0976 203.267C20.2641 203.045 20.4306 202.835 20.6032 202.65C22.6259 200.3 25.5367 199.086 28.2315 199.486C28.8205 199.571 29.3866 199.773 29.8969 200.079C30.4072 200.385 30.8515 200.789 31.2039 201.269C31.4279 201.583 31.5814 201.941 31.6537 202.32C31.7261 202.699 31.7157 203.089 31.6233 203.464C31.4025 204.223 30.9389 204.888 30.3036 205.357C27.7567 207.448 23.9333 207.725 20.8067 206.264C20.1838 207.612 19.7581 209.043 19.5425 210.513C19.1479 212.979 19.0307 216.562 20.7204 219.763C22.2066 222.55 25.0371 224.388 27.7012 224.376C27.8425 224.372 27.9831 224.397 28.1147 224.449C28.2462 224.501 28.3661 224.579 28.4672 224.677C28.5683 224.776 28.6487 224.894 28.7035 225.025C28.7584 225.155 28.7866 225.295 28.7865 225.436C28.7882 225.577 28.762 225.717 28.7096 225.848C28.6572 225.979 28.5795 226.098 28.481 226.199C28.3825 226.299 28.2651 226.38 28.1356 226.435C28.006 226.491 27.8668 226.52 27.7259 226.522L27.6395 226.466ZM21.9291 204.383C24.2848 205.406 27.0783 205.184 28.9407 203.655C29.217 203.477 29.4322 203.219 29.5574 202.915C29.5739 202.829 29.5721 202.741 29.5519 202.656C29.5317 202.571 29.4936 202.491 29.4402 202.422C29.0669 201.958 28.5312 201.654 27.9417 201.571C25.9745 201.275 23.7976 202.187 22.2498 204.007C22.1573 204.142 22.0278 204.266 21.9291 204.383Z" fill="#333333"/>
<path d="M186.194 138.071C185.988 138.069 185.782 138.055 185.578 138.028C184.858 137.914 184.17 137.653 183.556 137.262C182.941 136.87 182.414 136.356 182.007 135.753C180.706 133.773 180.681 131.263 180.811 129.296C180.973 126.774 181.376 124.273 182.013 121.828C178.734 118.088 174.495 115.316 169.754 113.811C169.492 113.72 169.276 113.532 169.15 113.286C169.024 113.039 168.998 112.754 169.078 112.489C169.157 112.224 169.336 112 169.577 111.863C169.818 111.727 170.102 111.689 170.37 111.758C175.059 113.235 179.301 115.869 182.704 119.417C184.686 113.309 188.123 107.775 192.719 103.291C192.819 103.19 192.939 103.11 193.071 103.055C193.203 103.001 193.344 102.974 193.487 102.975C193.629 102.976 193.77 103.005 193.901 103.061C194.032 103.118 194.151 103.199 194.25 103.302C194.349 103.404 194.427 103.525 194.479 103.658C194.53 103.791 194.555 103.933 194.552 104.075C194.548 104.218 194.516 104.358 194.458 104.488C194.399 104.618 194.315 104.735 194.211 104.832C189.555 109.372 186.156 115.04 184.344 121.285C186.539 123.943 188.259 126.959 189.426 130.202C190.529 133.286 190.24 135.753 188.605 137.171C187.935 137.75 187.08 138.069 186.194 138.071ZM183.728 123.937C183.337 125.747 183.081 127.584 182.963 129.432C182.852 131.164 182.864 133.132 183.814 134.569C184.052 134.92 184.359 135.219 184.716 135.448C185.073 135.677 185.473 135.831 185.892 135.901C186.132 135.945 186.378 135.937 186.614 135.877C186.85 135.818 187.071 135.708 187.261 135.555C188.568 134.445 187.736 131.744 187.452 130.942C186.552 128.441 185.298 126.082 183.728 123.937Z" fill="#333333"/>
<path d="M147.054 137.905C146.797 137.901 146.55 137.805 146.358 137.634C146.166 137.464 146.042 137.23 146.008 136.975C145.973 136.721 146.031 136.463 146.171 136.247C146.311 136.032 146.524 135.874 146.77 135.802C150.447 134.787 153.935 133.183 157.1 131.053C157.336 130.895 157.626 130.837 157.905 130.892C158.184 130.946 158.43 131.11 158.589 131.346C158.748 131.583 158.806 131.872 158.751 132.152C158.696 132.431 158.532 132.677 158.296 132.836C154.941 135.093 151.242 136.792 147.344 137.868C147.249 137.892 147.152 137.905 147.054 137.905Z" fill="white"/>
<path d="M144.106 151.453C143.847 151.455 143.596 151.363 143.4 151.195C143.204 151.026 143.075 150.792 143.037 150.536C143 150.28 143.056 150.019 143.196 149.801C143.335 149.583 143.549 149.423 143.798 149.35C150.143 147.439 156.711 145.453 162.372 141.802C162.612 141.648 162.903 141.595 163.182 141.655C163.46 141.715 163.704 141.883 163.858 142.123C164.013 142.363 164.066 142.654 164.006 142.932C163.946 143.211 163.777 143.455 163.538 143.609C157.617 147.42 150.908 149.449 144.421 151.41C144.318 151.44 144.212 151.454 144.106 151.453Z" fill="white"/>
<path d="M149.872 163.497C149.611 163.5 149.358 163.407 149.16 163.236C148.962 163.066 148.834 162.829 148.798 162.57C148.763 162.311 148.823 162.049 148.967 161.831C149.111 161.613 149.33 161.456 149.582 161.388C155.709 159.654 161.567 157.083 166.991 153.747C167.112 153.674 167.247 153.625 167.387 153.603C167.528 153.581 167.671 153.588 167.809 153.621C167.947 153.655 168.077 153.716 168.192 153.8C168.306 153.884 168.403 153.99 168.477 154.111C168.551 154.233 168.6 154.367 168.621 154.508C168.643 154.648 168.637 154.792 168.603 154.93C168.569 155.068 168.508 155.198 168.424 155.312C168.34 155.427 168.235 155.524 168.113 155.597C162.521 159.04 156.48 161.692 150.162 163.479C150.067 163.5 149.969 163.506 149.872 163.497Z" fill="white"/>
<path d="M160.405 173.851C160.144 173.854 159.891 173.761 159.693 173.59C159.495 173.42 159.367 173.183 159.331 172.924C159.296 172.665 159.356 172.403 159.5 172.185C159.644 171.967 159.863 171.81 160.115 171.742C163.279 170.832 166.219 169.274 168.749 167.166C168.968 166.993 169.246 166.912 169.525 166.94C169.803 166.969 170.059 167.105 170.238 167.32C170.417 167.535 170.505 167.811 170.484 168.09C170.463 168.368 170.334 168.628 170.124 168.813C167.36 171.112 164.149 172.812 160.695 173.808C160.601 173.837 160.503 173.851 160.405 173.851Z" fill="white"/>
</svg>
