<svg width="22" height="22" viewBox="0 0 22 22" fill="none" xmlns="http://www.w3.org/2000/svg">
<g clip-path="url(#clip0_8_599)">
<path d="M10.7134 10.0596C9.07191 10.0539 8.64767 11.5778 7.12494 12.9308C4.88949 14.9151 5.24698 16.7094 6.574 17.1132C7.90101 17.5171 9.07304 16.0532 10.5188 16.1256L10.5324 16.1256L10.546 16.1256C11.9918 16.1414 13.0801 17.6778 14.4241 17.3497C15.7681 17.0216 16.2353 15.2556 14.1243 13.1401C12.6853 11.6988 12.3504 10.1467 10.7134 10.0596Z" fill="#EDB24E"/>
<path d="M6.79123 8.72575C7.66233 9.99959 7.70079 11.4884 6.87947 12.0473C6.05814 12.6061 4.687 12.0314 3.81703 10.7564C2.94706 9.48146 2.9086 7.99493 3.72992 7.4338C4.55125 6.87267 5.92239 7.4519 6.79123 8.72575Z" fill="#EDB24E"/>
<path d="M14.7079 8.96333C13.7633 10.184 13.6354 11.6649 14.4217 12.2747C15.2079 12.8844 16.6119 12.3878 17.5599 11.1728C18.5079 9.95775 18.6335 8.47008 17.8461 7.86144C17.0587 7.2528 15.6559 7.74605 14.7079 8.96333Z" fill="#EDB24E"/>
<path d="M10.4194 5.69499C10.657 7.3037 10.0076 8.73367 8.96905 8.88526C7.93052 9.03686 6.89877 7.85804 6.66233 6.2482C6.42588 4.63835 7.07412 3.20952 8.11152 3.05679C9.14893 2.90406 10.1818 4.08401 10.4194 5.69499Z" fill="#EDB24E"/>
<path d="M11.2703 5.71988C10.9365 7.31162 11.4988 8.77666 12.5237 8.99161C13.5487 9.20656 14.6529 8.08883 14.9855 6.49596C15.3181 4.90308 14.7569 3.43918 13.7308 3.22536C12.7048 3.01155 11.6029 4.12701 11.2703 5.71988Z" fill="#EDB24E"/>
</g>
<defs>
<clipPath id="clip0_8_599">
<rect width="15.2791" height="15.0599" fill="white" transform="translate(0 10.804) rotate(-45)"/>
</clipPath>
</defs>
</svg>
