<svg width="39" height="65" viewBox="0 0 39 65" fill="none" xmlns="http://www.w3.org/2000/svg">
<path d="M18.873 65H18.62C18.1638 64.9371 17.748 64.7045 17.4551 64.3486C17.1622 63.9926 17.0138 63.5392 17.0392 63.0786C17.6399 53.1444 11.3062 42.7246 0.904419 36.5065C0.629035 36.3443 0.400715 36.1129 0.242081 35.8351C0.0834467 35.5574 0 35.2429 0 34.9229C0 34.6029 0.0834467 34.2885 0.242081 34.0107C0.400715 33.733 0.629035 33.5015 0.904419 33.3394C11.7066 27.2268 18.9046 14.5795 18.8203 1.85819C18.8146 1.37638 18.998 0.911607 19.3312 0.564045C19.6644 0.216484 20.1205 0.013985 20.6013 0.000172874C21.0785 -0.00632603 21.54 0.170627 21.8909 0.494649C22.2418 0.818671 22.4555 1.26511 22.4878 1.74208C22.8355 8.34025 23.1939 15.1496 25.4808 21.3149C27.9047 27.8919 32.468 32.7271 37.6741 34.2578C38.0697 34.372 38.4154 34.6163 38.6556 34.9512C38.8958 35.2862 39.0164 35.6923 38.9982 36.1044C38.9799 36.5164 38.8238 36.9102 38.5549 37.2226C38.2861 37.5349 37.9201 37.7475 37.516 37.8261C32.9843 38.7235 28.7267 42.2495 25.8391 47.4858C23.1412 52.3949 21.8554 58.0957 20.5697 63.5959C20.4766 63.9824 20.261 64.3281 19.955 64.5813C19.6491 64.8345 19.2694 64.9814 18.873 65ZM5.26747 34.9335C11.8895 39.4072 16.8678 45.9292 19.4421 53.5034C20.2522 50.7924 21.3363 48.1712 22.6775 45.6806C24.8602 41.5084 28.2166 38.0692 32.3309 35.7886C27.5502 32.6353 23.9478 27.9833 22.0873 22.5606C21.2349 20.2183 20.5895 17.8056 20.1587 15.3501C17.3507 23.2714 12.145 30.1174 5.26747 34.9335Z" fill="#EDB24E"/>
</svg>
