<svg width="45" height="75" viewBox="0 0 45 75" fill="none" xmlns="http://www.w3.org/2000/svg">
<path d="M21.7765 75H21.4847C20.9583 74.9274 20.4784 74.6591 20.1405 74.2483C19.8025 73.8376 19.6313 73.3145 19.6606 72.783C20.3538 61.3205 13.0456 49.2976 1.04356 42.1229C0.725809 41.9358 0.462364 41.6687 0.279324 41.3482C0.0962846 41.0278 0 40.6649 0 40.2957C0 39.9265 0.0962846 39.5636 0.279324 39.2431C0.462364 38.9227 0.725809 38.6556 1.04356 38.4685C13.5076 31.4156 21.813 16.8225 21.7157 2.14407C21.7091 1.58813 21.9208 1.05185 22.3052 0.650822C22.6896 0.249789 23.216 0.0161366 23.7708 0.00019947C24.3214 -0.00729927 24.8539 0.196877 25.2588 0.570749C25.6637 0.94462 25.9101 1.45974 25.9474 2.01009C26.3487 9.62336 26.7621 17.4803 29.4009 24.5941C32.1977 32.183 37.463 37.762 43.4701 39.5283C43.9266 39.66 44.3255 39.9419 44.6026 40.3284C44.8797 40.7148 45.019 41.1835 44.9979 41.6589C44.9769 42.1343 44.7967 42.5887 44.4865 42.9491C44.1762 43.3095 43.754 43.5548 43.2877 43.6455C38.0588 44.6809 33.1462 48.7495 29.8143 54.7913C26.7013 60.4556 25.2178 67.0335 23.7343 73.3799C23.6269 73.8258 23.378 74.2248 23.025 74.5169C22.672 74.809 22.2339 74.9785 21.7765 75ZM6.07785 40.3079C13.7186 45.4699 19.4628 52.9952 22.4331 61.7347C23.3679 58.6066 24.6188 55.5822 26.1663 52.7084C28.6849 47.8943 32.5576 43.926 37.3049 41.2946C31.7887 37.6561 27.632 32.2884 25.4853 26.0315C24.5018 23.3289 23.7571 20.5449 23.26 17.7117C20.02 26.8516 14.0134 34.7509 6.07785 40.3079Z" fill="#EDB24E"/>
</svg>
