<svg width="53" height="65" viewBox="0 0 53 65" fill="none" xmlns="http://www.w3.org/2000/svg">
<path d="M44.1113 64.1773C41.5113 64.1773 38.9313 63.0673 36.6113 61.9573C34.2384 60.9506 32.0251 59.603 30.0413 57.9573C25.3013 53.6973 24.0413 47.2073 23.4213 40.8173C23.3213 39.8173 23.2213 38.6973 23.1413 37.5973C15.621 37.6951 8.41711 40.6395 2.98129 45.8373C2.81899 46.0025 2.62534 46.1337 2.41171 46.2231C2.19807 46.3125 1.96874 46.3583 1.73714 46.3579C1.50555 46.3576 1.27636 46.311 1.06301 46.2209C0.849666 46.1308 0.656465 45.999 0.494713 45.8332C0.332962 45.6675 0.20593 45.4711 0.121056 45.2556C0.0361816 45.0401 -0.0048186 44.8099 0.000450468 44.5784C0.00571954 44.3468 0.0571677 44.1187 0.151757 43.9073C0.246346 43.6959 0.382169 43.5055 0.551293 43.3473C6.58808 37.5702 14.5771 34.2754 22.9313 34.1173C22.6273 29.1383 22.9634 24.1408 23.9313 19.2473C25.6613 11.2973 29.5913 4.58729 35.0213 0.367288C35.386 0.0835061 35.8484 -0.0437927 36.307 0.0134059C36.7655 0.0706045 37.1825 0.307608 37.4663 0.67228C37.7501 1.03695 37.8773 1.49943 37.8202 1.95796C37.763 2.41648 37.526 2.83351 37.1613 3.11729C32.3713 6.83729 28.8913 12.8273 27.3413 19.9873C26.3942 24.6843 26.0581 29.4841 26.3413 34.2673C34.5978 35.1338 42.2313 39.0576 47.7413 45.2673C50.4313 48.3273 51.8813 51.2673 52.1813 54.2673C52.5813 58.2673 50.4813 62.1973 47.1813 63.5873C46.2059 63.9812 45.1632 64.1816 44.1113 64.1773ZM26.6413 37.8073C26.7213 38.7173 26.8013 39.6073 26.8913 40.4873C27.4513 46.1673 28.5013 51.9073 32.3713 55.3773C34.1114 56.791 36.0442 57.9493 38.1113 58.8173C40.8213 60.1173 43.6513 61.2973 45.9213 60.3373C48.1913 59.3773 49.0113 56.6873 48.8013 54.5673C48.5913 52.4473 47.4013 50.0373 45.2113 47.5673C40.4129 42.1655 33.8116 38.696 26.6413 37.8073Z" fill="black"/>
</svg>
