<svg width="20" height="17" viewBox="0 0 20 17" fill="none" xmlns="http://www.w3.org/2000/svg">
<path fill-rule="evenodd" clip-rule="evenodd" d="M1.5 0H18.5C18.8978 0 19.2794 0.158034 19.5607 0.439339C19.842 0.720643 20 1.10218 20 1.5C20 1.89782 19.842 2.27936 19.5607 2.56066C19.2794 2.84197 18.8978 3 18.5 3H1.5C1.10218 3 0.720636 2.84197 0.439331 2.56066C0.158026 2.27936 0 1.89782 0 1.5C0 1.10218 0.158026 0.720643 0.439331 0.439339C0.720636 0.158034 1.10218 0 1.5 0ZM1.5 7H18.5C18.8978 7 19.2794 7.15803 19.5607 7.43934C19.842 7.72064 20 8.10218 20 8.5C20 8.89782 19.842 9.27936 19.5607 9.56066C19.2794 9.84197 18.8978 10 18.5 10H1.5C1.10218 10 0.720636 9.84197 0.439331 9.56066C0.158026 9.27936 0 8.89782 0 8.5C0 8.10218 0.158026 7.72064 0.439331 7.43934C0.720636 7.15803 1.10218 7 1.5 7ZM1.5 14H18.5C18.8978 14 19.2794 14.158 19.5607 14.4393C19.842 14.7206 20 15.1022 20 15.5C20 15.8978 19.842 16.2794 19.5607 16.5607C19.2794 16.842 18.8978 17 18.5 17H1.5C1.10218 17 0.720636 16.842 0.439331 16.5607C0.158026 16.2794 0 15.8978 0 15.5C0 15.1022 0.158026 14.7206 0.439331 14.4393C0.720636 14.158 1.10218 14 1.5 14Z" fill="black"/>
</svg>
