<svg width="32" height="48" viewBox="0 0 32 48" fill="none" xmlns="http://www.w3.org/2000/svg">
<g clip-path="url(#clip0_1_193)">
<path fill-rule="evenodd" clip-rule="evenodd" d="M17.324 0H14.67C6.41698 0.618 -0.00201416 7.06802 -0.00201416 14.817V33.071C-1.41601e-05 41.3 7.176 48 16 48C24.824 48 32 41.3 32 33.069V14.811C32 7.06797 25.58 0.617 17.324 0ZM29 32.868C29 39.553 23.167 44.987 16 44.987C8.833 44.987 3 39.553 3 32.868V15.1C3 8.41698 8.832 2.98199 16 2.98199C23.168 2.98199 29 8.41698 29 15.1V32.865V32.868ZM16 13C15.7394 12.9975 15.4809 13.0464 15.2393 13.144C14.9977 13.2415 14.7776 13.3858 14.5919 13.5685C14.4061 13.7513 14.2582 13.9688 14.1566 14.2088C14.0551 14.4488 14.0018 14.7064 14 14.967V20.033C14.0321 20.5406 14.2564 21.0168 14.6272 21.3648C14.998 21.7129 15.4874 21.9066 15.996 21.9066C16.5045 21.9066 16.994 21.7129 17.3648 21.3648C17.7356 21.0168 17.9599 20.5406 17.992 20.033V14.967C17.988 14.4422 17.7761 13.9404 17.4026 13.5717C17.0292 13.2029 16.5248 12.9973 16 13V13Z" fill="white"/>
</g>
<defs>
<clipPath id="clip0_1_193">
<rect width="32" height="48" fill="white"/>
</clipPath>
</defs>
</svg>
