<svg xmlns="http://www.w3.org/2000/svg" width="168" height="34.347"><path data-name="Path 1" d="M5.849 9.968l1.374-1.41h8.594l1.374 1.41v4.439H5.849zM2.785 5.653L0 8.435v14.572l2.785 2.743h17.15l2.9-2.9v-2.79h-5.643v1.41l-1.536 1.536H7.383l-1.534-1.535v-4.478h16.99V8.558l-2.9-2.9zm37.246 0l-2.785 2.782v14.572l2.785 2.743h16.99l3.064-3.067V20.06h-5.972v1.534l-1.371 1.413h-8.273l-1.374-1.413V9.968l1.374-1.41h8.6l1.371 1.41v4.282h5.647V8.435l-2.745-2.782zm30.1 15.817V10.092l1.534-1.534h8.273l1.534 1.534v11.379l-1.534 1.536h-8.27zM67.07 5.653l-2.784 2.782v14.572l2.785 2.743h16.986l3.067-3.067V8.717l-3.067-3.064zm30.1 15.817V10.092l1.531-1.534h9.809v14.449h-9.805zM94.107 5.653L91.32 8.435v14.572l2.787 2.743h14.407v4.279l-1.534 1.534H95.641l-1.413 1.41v1.374h17.189l2.745-2.785V5.653zm29.863 4.315l1.371-1.41h8.6l1.371 1.41v4.439H123.97zm-3.07-4.315l-2.782 2.782v14.572l2.782 2.743h17.155l2.9-2.9v-2.79h-5.65v1.41l-1.534 1.536h-8.27l-1.531-1.535v-4.478h16.99V8.558l-2.9-2.9zm24.258 0v20.1h5.852V8.558h9.8l1.536 1.534v15.657H168V8.558l-2.9-2.9zM27.121 25.749h5.527V.001h-5.527z" fill="#fff"/></svg>