<svg data-name="Group 1775" xmlns="http://www.w3.org/2000/svg" width="31.163" height="31.163"><defs><clipPath id="a"><path data-name="Rectangle 1515" fill="none" d="M0 0h31.163v31.163H0z"/></clipPath></defs><g data-name="Group 1771" clip-path="url(#a)"><path data-name="Path 47406" d="M15.581 0a15.581 15.581 0 1 0 15.581 15.581A15.581 15.581 0 0 0 15.581 0m-5.157 24.237H6.915V12.454h3.509zM8.648 10.721a2.123 2.123 0 0 1 0-4.245 2.123 2.123 0 0 1 0 4.245m15.6 7.364v6.152h-3.47v-6.368a2.3 2.3 0 0 0-2.3-2.383 2.489 2.489 0 0 0-2.513 2.383v6.368H12.5V12.454h3.466V14.1a4.01 4.01 0 0 1 3.334-1.776h.953a4 4 0 0 1 3.985 3.985z" fill="#fff" fill-rule="evenodd"/></g></svg>