<svg data-name="Group 1774" xmlns="http://www.w3.org/2000/svg" width="31.163" height="31.163"><defs><clipPath id="a"><path data-name="Rectangle 1514" fill="none" d="M0 0h31.163v31.163H0z"/></clipPath></defs><g data-name="Group 1769" clip-path="url(#a)"><path data-name="Path 47405" d="M15.581 0a15.581 15.581 0 1 0 15.582 15.581A15.581 15.581 0 0 0 15.581 0m8.054 11.737C24.3 21 14.321 26.631 6.234 22.024c0 0 3.992.2 5.681-1.74 0 0-2.457.2-3.685-2.764a2.469 2.469 0 0 0 1.842-.1 4 4 0 0 1-3.122-3.89 2.522 2.522 0 0 0 1.945.461 3.926 3.926 0 0 1-1.381-5.325s3.378 4.3 8.24 4.146a4.058 4.058 0 0 1 6.96-3.532 10.245 10.245 0 0 0 2.405-1.075 4.427 4.427 0 0 1-1.791 2.252 7.628 7.628 0 0 0 2.2-.614 4.278 4.278 0 0 1-1.894 1.894" fill="#fff" fill-rule="evenodd"/></g></svg>