<?xml version="1.0" encoding="UTF-8"?> <svg xmlns="http://www.w3.org/2000/svg" version="1.1" id="Layer_1" x="0" y="0" viewBox="0 0 168 93" style="enable-background:new 0 0 168 93" xml:space="preserve"><style>.st0{fill:#1a1a18}.st2,.st4{fill-rule:evenodd;clip-rule:evenodd;fill:#ffec00}.st4{fill:#fff}</style><path class="st0" d="M21.4 72.4v-6.5h4.7v.7h-3.8v2h3.6v.8h-3.6v2.2h4v.8zM30.5 72.4v-.7c-.4.5-.9.8-1.5.8-.3 0-.5-.1-.8-.2-.2-.1-.4-.2-.5-.4-.1-.2-.2-.4-.2-.6V67.7h.8V71.1c.1.2.2.4.3.5.2.1.4.2.6.2.2 0 .5-.1.7-.2.2-.1.4-.3.4-.5.1-.2.1-.5.1-.9v-2.5h.8v4.7h-.7zM32.4 72.4v-4.7h.7v.7c.2-.3.4-.6.5-.7.2-.1.3-.2.5-.2.3 0 .5.1.8.3l-.3.7c-.2-.1-.4-.2-.6-.2-.2 0-.3.1-.5.2-.1.1-.2.3-.3.4-.1.3-.1.6-.1.9v2.5h-.7zM35.2 70c0-.9.2-1.5.7-1.9.4-.3.9-.5 1.5-.5s1.2.2 1.6.6c.4.4.6 1 .6 1.8 0 .6-.1 1.1-.3 1.4-.2.3-.4.6-.8.8-.3.2-.7.3-1.1.3-.7 0-1.2-.2-1.6-.6-.4-.5-.6-1.1-.6-1.9zm.8 0c0 .6.1 1.1.4 1.4.3.3.6.5 1 .5s.7-.2 1-.5c.3-.3.4-.8.4-1.4 0-.6-.1-1-.4-1.3-.3-.3-.6-.5-1-.5s-.7.1-1 .4c-.3.4-.4.8-.4 1.4zM40.2 70c0-.9.2-1.5.7-1.9.4-.3.9-.5 1.5-.5s1.2.2 1.6.6c.4.4.6 1 .6 1.8 0 .6-.1 1.1-.3 1.4-.2.3-.4.6-.8.8-.3.2-.7.3-1.1.3-.7 0-1.2-.2-1.6-.6-.4-.5-.6-1.1-.6-1.9zm.8 0c0 .6.1 1.1.4 1.4.3.3.6.5 1 .5s.7-.2 1-.5c.3-.3.4-.8.4-1.4 0-.6-.1-1-.4-1.3-.3-.3-.6-.5-1-.5s-.7.1-1 .4c-.2.4-.4.8-.4 1.4zM45.6 74.2v-6.5h.7v.6c.2-.2.4-.4.6-.5.2-.1.5-.2.8-.2.4 0 .8.1 1.1.3.3.2.5.5.7.9.2.4.2.8.2 1.2 0 .5-.1.9-.3 1.3-.2.4-.4.7-.8.9-.3.2-.7.3-1 .3-.3 0-.5-.1-.7-.2-.2-.1-.4-.3-.5-.4v2.3h-.8zm.7-4.2c0 .6.1 1.1.4 1.3.2.3.5.4.9.4s.7-.1.9-.5c.3-.3.4-.8.4-1.4 0-.6-.1-1.1-.4-1.4-.2-.3-.5-.4-.9-.4-.3 0-.6.2-.9.5-.3.5-.4.9-.4 1.5zM53.7 71.8c-.3.3-.6.4-.9.5-.3.1-.6.2-.9.2-.5 0-.9-.1-1.2-.4-.3-.3-.4-.6-.4-1 0-.2.1-.4.2-.6.1-.2.2-.3.4-.5l.6-.3c.2 0 .4-.1.7-.1.6-.1 1.1-.2 1.4-.3v-.2c0-.3-.1-.6-.2-.7-.2-.2-.5-.3-.9-.3s-.7.1-.8.2c-.2.1-.3.4-.4.7h-.8c.1-.3.2-.6.4-.8.2-.2.4-.4.7-.5.3-.1.7-.2 1.1-.2.4 0 .7 0 1 .1.3.1.4.2.6.4.1.1.2.3.2.5v1.8c0 .7 0 1.2.1 1.4 0 .2.1.4.2.6H54c-.2-.1-.3-.3-.3-.5zm-.1-1.8c-.3.1-.7.2-1.3.3-.3 0-.6.1-.7.2-.1.1-.2.1-.3.3-.1.1-.1.2-.1.4s.1.4.2.5c.2.1.4.2.7.2.3 0 .6-.1.8-.2.2-.1.4-.3.5-.6.1-.2.1-.4.1-.8V70zM58.3 72.4v-6.5h.8v5.7h3.3v.8zM63.3 66.8v-.9h.8v.9h-.8zm0 5.6v-4.7h.8v4.7h-.8zM65.3 66.8v-.9h.8v.9h-.8zm0 5.6v-4.7h.8v4.7h-.8zM69.1 71.7l.1.7c-.2 0-.4.1-.6.1-.3 0-.5 0-.7-.1-.2-.1-.3-.2-.3-.4-.1-.1-.1-.5-.1-.9v-2.7h-.6v-.6h.6v-1.2l.8-.5v1.6h.8v.6h-.8v3.1c0 .1.1.1.1.2.1 0 .2.1.3.1h.4zM7 81.7v-6.6h4.7v.8H7.9v2h3.6v.8H7.9v2.2h4v.8zM16.1 81.7V81c-.4.5-.9.8-1.5.8-.3 0-.5-.1-.8-.2-.2-.1-.4-.2-.5-.4-.1-.2-.2-.4-.2-.6V77h.8V80.4c.1.2.2.4.3.5.2.1.4.2.6.2.2 0 .5-.1.7-.2.2-.1.4-.3.4-.5.1-.2.1-.5.1-.9V77h.8v4.7h-.7zM18 81.7V77h.7v.7c.2-.3.4-.6.5-.7.2-.1.3-.2.5-.2.3 0 .5.1.8.3l-.3.7c-.2-.1-.4-.2-.6-.2-.2 0-.3.1-.5.2-.1.1-.2.3-.3.4-.1.3-.1.6-.1.9v2.5H18zM20.8 79.3c0-.9.2-1.5.7-1.9.4-.3.9-.5 1.5-.5s1.2.2 1.6.6c.4.4.6 1 .6 1.8 0 .6-.1 1.1-.3 1.4-.2.3-.4.6-.8.8-.3.2-.7.3-1.1.3-.7 0-1.2-.2-1.6-.6-.4-.5-.6-1.1-.6-1.9zm.8 0c0 .6.1 1.1.4 1.4.3.3.6.5 1 .5s.7-.2 1-.5c.3-.3.4-.8.4-1.4 0-.6-.1-1-.4-1.3-.3-.3-.6-.5-1-.5s-.7.1-1 .4c-.3.3-.4.8-.4 1.4zM25.8 79.3c0-.9.2-1.5.7-1.9.4-.3.9-.5 1.5-.5s1.2.2 1.6.6c.4.4.6 1 .6 1.8 0 .6-.1 1.1-.3 1.4-.2.3-.4.6-.8.8-.3.2-.7.3-1.1.3-.7 0-1.2-.2-1.6-.6-.4-.5-.6-1.1-.6-1.9zm.8 0c0 .6.1 1.1.4 1.4.3.3.6.5 1 .5s.7-.2 1-.5c.3-.3.4-.8.4-1.4 0-.6-.1-1-.4-1.3-.3-.3-.6-.5-1-.5s-.7.1-1 .4c-.2.3-.4.8-.4 1.4zM31.2 83.5V77h.7v.6c.2-.2.4-.4.6-.5.2-.1.5-.2.8-.2.4 0 .8.1 1.1.3.3.2.5.5.7.9.2.4.2.8.2 1.2 0 .5-.1.9-.3 1.3-.2.4-.4.7-.8.9-.3.2-.7.3-1 .3-.3 0-.5-.1-.7-.2-.2-.1-.4-.3-.5-.4v2.3h-.8zm.7-4.2c0 .6.1 1.1.4 1.3.2.3.5.4.9.4s.7-.1.9-.5c.3-.3.4-.8.4-1.4 0-.6-.1-1.1-.4-1.4-.2-.3-.5-.4-.9-.4-.3 0-.6.2-.9.5-.3.5-.4.9-.4 1.5zM39.3 81.1c-.3.3-.6.4-.9.5-.3.1-.6.2-.9.2-.5 0-.9-.1-1.2-.4-.3-.3-.4-.6-.4-1 0-.2.1-.4.2-.6.1-.2.2-.3.4-.5l.6-.3c.2 0 .4-.1.7-.1.6-.1 1.1-.2 1.4-.3v-.2c0-.3-.1-.6-.2-.7-.2-.2-.5-.3-.9-.3s-.7.1-.8.2c-.2.1-.3.4-.4.7l-.8-.1c.1-.3.2-.6.4-.8.2-.2.4-.4.7-.5.3-.1.7-.2 1.1-.2.4 0 .7 0 1 .1.3.1.4.2.6.4.1.1.2.3.2.5v1.8c0 .7 0 1.2.1 1.4 0 .2.1.4.2.6h-.8c-.2 0-.3-.2-.3-.4zm-.1-1.8c-.3.1-.7.2-1.3.3-.3 0-.6.1-.7.2-.1.1-.2.1-.3.3-.1.1-.1.2-.1.4s.1.4.2.5c.2.1.4.2.7.2.3 0 .6-.1.8-.2.2-.1.4-.3.5-.6.1-.2.1-.4.1-.8v-.3zM43.5 80.2l.8-.1c0 .3.2.6.4.7.2.2.5.3.9.3s.6-.1.8-.2c.2-.1.3-.3.3-.5s-.1-.3-.2-.4c-.1-.1-.4-.2-.8-.3-.6-.1-1-.3-1.2-.4-.2-.1-.4-.3-.5-.4-.1-.2-.2-.4-.2-.6 0-.2 0-.4.1-.6.1-.2.2-.3.4-.4.1-.1.3-.2.5-.2.2-.1.4-.1.7-.1.4 0 .7.1 1 .2.3.1.5.2.6.4.1.2.2.4.3.7l-.8.1c0-.2-.1-.4-.3-.6-.2-.1-.4-.2-.7-.2-.4 0-.6.1-.8.2-.2.1-.2.3-.2.4 0 .1 0 .2.1.3.1.1.2.2.3.2.1 0 .3.1.7.2.6.2 1 .3 1.2.4.2.1.4.2.5.4.1.2.2.4.2.7 0 .3-.1.5-.2.8-.2.2-.4.4-.7.5-.3.1-.6.2-1 .2-.6 0-1.1-.1-1.4-.4s-.7-.8-.8-1.3zM50.1 80.9l.1.7c-.2 0-.4.1-.6.1-.3 0-.5 0-.7-.1-.2-.1-.3-.2-.3-.4-.1-.1-.1-.5-.1-.9v-2.7h-.6V77h.6v-1.2l.8-.5v1.6h.8v.6h-.8V80.7c0 .1.1.1.1.2.1 0 .2.1.3.1.1 0 .3 0 .4-.1zM50.9 81.7V77h.7v.7c.2-.3.4-.6.5-.7.2-.1.3-.2.5-.2.3 0 .5.1.8.3l-.3.7c-.2-.1-.4-.2-.6-.2-.2 0-.3.1-.5.2-.1.1-.2.3-.3.4-.1.3-.1.6-.1.9v2.5h-.7zM57 81.7V81c-.4.5-.9.8-1.5.8-.3 0-.5-.1-.8-.2-.2-.1-.4-.2-.5-.4-.1-.2-.2-.4-.2-.6V77h.8V80.4c.1.2.2.4.3.5.2.1.4.2.6.2.2 0 .5-.1.7-.2.2-.1.4-.3.4-.5.1-.2.1-.5.1-.9V77h.8v4.7H57zM59 81.7v-6.6h.8v3.8l1.9-2h1l-1.8 1.8 2 3h-1l-1.6-2.5-.5.6v1.9zM65.3 80.9l.1.7c-.2 0-.4.1-.6.1-.3 0-.5 0-.7-.1-.2-.1-.3-.2-.3-.4-.1-.1-.1-.5-.1-.9v-2.7h-.6V77h.6v-1.2l.8-.5v1.6h.8v.6h-.8V80.7c0 .1.1.1.1.2.1 0 .2.1.3.1.1 0 .2 0 .4-.1zM69.1 81.7V81c-.4.5-.9.8-1.5.8-.3 0-.5-.1-.8-.2-.2-.1-.4-.2-.5-.4-.1-.2-.2-.4-.2-.6V77h.8V80.4c.1.2.2.4.3.5.2.1.4.2.6.2.2 0 .5-.1.7-.2.2-.1.4-.3.4-.5.1-.2.1-.5.1-.9V77h.8v4.7h-.7zM74.2 81.7V81c-.4.5-.9.8-1.5.8-.3 0-.5-.1-.8-.2-.2-.1-.4-.2-.5-.4-.1-.2-.2-.4-.2-.6V77h.8V80.4c.1.2.2.4.3.5.2.1.4.2.6.2.2 0 .5-.1.7-.2.2-.1.4-.3.4-.5.1-.2.1-.5.1-.9V77h.8v4.7h-.7zM76.2 81.7V77h.7v.7c.2-.3.4-.6.5-.7.2-.1.3-.2.5-.2.3 0 .5.1.8.3l-.3.7c-.2-.1-.4-.2-.6-.2-.2 0-.3.1-.5.2-.1.1-.2.3-.3.4v3.5h-.8zM79.2 76.1v-.9h.8v.9h-.8zm0 5.6V77h.8v4.7h-.8zM80.9 78.9h2.5v.8h-2.5zM1.9 85.4v-.9h.8v.9h-.8zM.8 92.8l.2-.7c.2 0 .3.1.4.1.2 0 .3-.1.4-.2.1-.1.1-.4.1-.8v-5h.8v5c0 .6-.1 1-.2 1.2-.2.3-.5.4-1 .4H.8zM7 90.4c-.3.3-.6.4-.9.5-.3.1-.6.1-.9.1-.5 0-.9-.1-1.2-.4-.3-.3-.4-.6-.4-1 0-.2.1-.4.2-.6.1-.2.2-.3.4-.5l.6-.3c.2 0 .4-.1.7-.1.6-.1 1.1-.2 1.4-.3v-.2c0-.3-.1-.6-.2-.7-.2-.2-.5-.3-.9-.3s-.7.1-.8.2c-.2.1-.3.4-.4.7l-.8-.1c.1-.3.2-.6.4-.8.2-.2.4-.4.7-.5.3-.1.7-.2 1.1-.2.4 0 .7 0 1 .1.3.1.4.2.6.4.1.1.2.3.2.5V89c0 .7 0 1.2.1 1.4 0 .2.1.4.2.6h-1c-.1-.2-.1-.4-.1-.6zm-.1-1.8c-.3.1-.7.2-1.3.3-.3 0-.6.1-.7.1-.1.1-.2.1-.3.3-.1.1-.1.2-.1.4s.1.4.2.5c.2.1.4.2.7.2.3 0 .6-.1.8-.2.2-.1.4-.3.5-.6.1-.2.1-.4.1-.8v-.2zM11.5 85.3v-.9h.8v.9h-.8zm0 5.6v-4.7h.8v4.7h-.8zM13.5 90.9v-4.7h.7v.7c.3-.5.8-.8 1.5-.8.3 0 .5.1.8.2.2.1.4.2.5.4.1.2.2.4.2.6V91h-.8v-2.9c0-.3 0-.6-.1-.7-.1-.2-.2-.3-.3-.4-.2-.1-.3-.1-.6-.1s-.6.1-.9.3c-.2.2-.4.6-.4 1.2V91h-.6zM19.9 90.9l-1.8-4.7h.8l1 2.8c.1.3.2.6.3 1 .1-.2.2-.5.3-.9l1-2.9h.8l-1.8 4.7h-.6zM26.3 89.4l.8.1c-.1.5-.4.9-.7 1.1-.4.3-.8.4-1.4.4-.7 0-1.2-.2-1.6-.6-.4-.4-.6-1-.6-1.8s.2-1.4.6-1.8c.4-.4.9-.7 1.6-.7.6 0 1.1.2 1.5.6.4.4.6 1 .6 1.8v.2h-3.5c0 .5.2.9.4 1.2.3.3.6.4 1 .4.3 0 .5-.1.8-.2.2-.1.4-.3.5-.7zm-2.6-1.3h2.6c0-.4-.1-.7-.3-.9-.3-.3-.6-.5-1-.5s-.7.1-.9.4c-.2.3-.4.6-.4 1zM27.8 89.5l.8-.1c0 .3.2.6.4.7.2.2.5.3.9.3s.6-.1.8-.2c.2-.1.3-.3.3-.5s-.1-.3-.2-.4c-.1-.1-.4-.2-.8-.3-.6-.1-1-.3-1.2-.4-.2-.1-.4-.3-.5-.4-.3-.3-.3-.5-.3-.7 0-.2 0-.4.1-.6.1-.2.2-.3.4-.4.1-.1.3-.2.5-.2.2-.1.4-.1.7-.1.4 0 .7.1 1 .2.3.1.5.2.6.4.1.2.2.4.3.7l-.8.1c0-.2-.1-.4-.3-.6-.2-.1-.4-.2-.7-.2-.4 0-.6.1-.8.2-.2.1-.2.3-.2.4 0 .1 0 .2.1.3.1.1.2.2.3.2.1 0 .3.1.7.2.6.2 1 .3 1.2.4.2.1.4.2.5.4.1.2.2.4.2.7 0 .3-.1.5-.2.8-.2.2-.4.4-.7.5-.3.1-.6.2-1 .2-.6 0-1.1-.1-1.4-.4-.4-.3-.6-.7-.7-1.2zM34.4 90.2l.1.7c-.2 0-.4.1-.6.1-.3 0-.5 0-.7-.1-.2-.1-.3-.2-.3-.4-.1-.1-.1-.5-.1-.9v-2.7h-.6v-.6h.6v-1.2l.8-.5v1.6h.8v.6h-.8V90c0 .1.1.1.1.2.1 0 .2.1.3.1.2 0 .3-.1.4-.1zM38.4 89.4l.8.1c-.1.5-.4.9-.7 1.1-.4.3-.8.4-1.4.4-.7 0-1.2-.2-1.6-.6-.4-.4-.6-1-.6-1.8s.2-1.4.6-1.8c.4-.4.9-.7 1.6-.7.6 0 1.1.2 1.5.6.4.4.6 1 .6 1.8v.2h-3.5c0 .5.2.9.4 1.2.3.3.6.4 1 .4.3 0 .5-.1.8-.2.3-.1.4-.3.5-.7zm-2.6-1.3h2.6c0-.4-.1-.7-.3-.9-.3-.3-.6-.5-1-.5s-.7.1-.9.4c-.2.3-.4.6-.4 1zM43.5 89.4l.8.1c-.1.5-.4.9-.7 1.1-.4.3-.8.4-1.4.4-.7 0-1.2-.2-1.6-.6-.4-.4-.6-1-.6-1.8s.2-1.4.6-1.8c.4-.4.9-.7 1.6-.7.6 0 1.1.2 1.5.6.4.4.6 1 .6 1.8v.2h-3.5c0 .5.2.9.4 1.2.3.3.6.4 1 .4.3 0 .5-.1.8-.2.2-.1.4-.3.5-.7zm-2.6-1.3h2.6c0-.4-.1-.7-.3-.9-.3-.3-.6-.5-1-.5s-.7.1-.9.4c-.3.3-.4.6-.4 1zM45.3 90.9v-4.7h.7v.7c.2-.3.4-.6.5-.7.2-.1.3-.2.5-.2.3 0 .5.1.8.3l-.3.7c-.2-.1-.4-.2-.6-.2-.2 0-.3.1-.5.2-.1.1-.2.3-.3.4-.1.3-.1.6-.1.9v2.5h-.7zM48.4 85.3v-.9h.8v.9h-.8zm0 5.6v-4.7h.8v4.7h-.8zM50.4 90.9v-4.7h.7v.7c.1-.2.3-.4.6-.6.2-.1.5-.2.8-.2.3 0 .6.1.9.2.2.1.4.3.5.6.4-.5.9-.8 1.5-.8.5 0 .8.1 1.1.4.3.3.4.7.4 1.2v3.2H56v-3c0-.3 0-.6-.1-.7-.1-.1-.1-.3-.3-.3-.1-.1-.3-.1-.5-.1-.3 0-.6.1-.8.3-.2.2-.3.6-.3 1.1v2.7h-.8v-3.1c0-.4-.1-.6-.2-.8-.1-.2-.3-.3-.6-.3-.2 0-.4.1-.6.2-.2.1-.3.3-.4.5-.1.2-.1.6-.1 1v2.4h-.9zM58 85.3v-.9h.8v.9H58zm0 5.6v-4.7h.8v4.7H58zM59.7 89.5l.8-.1c0 .3.2.6.4.7.2.2.5.3.9.3s.6-.1.8-.2c.2-.1.3-.3.3-.5s-.1-.3-.2-.4c-.1-.1-.4-.2-.8-.3-.6-.1-1-.3-1.2-.4-.2-.1-.4-.3-.5-.4-.1-.2-.2-.4-.2-.6 0-.2 0-.4.1-.6.1-.2.2-.3.4-.4.1-.1.3-.2.5-.2.2-.1.4-.1.7-.1.4 0 .7.1 1 .2.3.1.5.2.6.4.1.2.2.4.3.7l-.8.1c0-.2-.1-.4-.3-.6-.2-.1-.4-.2-.7-.2-.4 0-.6.1-.8.2-.2.1-.2.3-.2.4 0 .1 0 .2.1.3.1.1.2.2.3.2.1 0 .3.1.7.2.6.2 1 .3 1.2.4.2.1.4.2.5.4.1.2.2.4.2.7 0 .3-.1.5-.2.8-.2.2-.4.4-.7.5h-1.2c-.6 0-1.1-.1-1.4-.4s-.6-.6-.6-1.1zM64.7 90.9v-4.1H64v-.6h.7v-.5c0-.3 0-.6.1-.7.1-.2.2-.4.4-.5.2-.1.5-.2.8-.2.2 0 .5 0 .7.1l-.1.7h-.5c-.2 0-.4.1-.5.2-.1.1-.2.3-.2.6v.4h.9v.6h-.9V91h-.7zM66.7 88.6c0-.9.2-1.5.7-1.9.4-.3.9-.5 1.5-.5s1.2.2 1.6.6c.4.4.6 1 .6 1.8 0 .6-.1 1.1-.3 1.4-.2.3-.4.6-.8.8-.3.1-.6.2-1 .2-.7 0-1.2-.2-1.6-.6-.4-.4-.7-1-.7-1.8zm.9 0c0 .6.1 1.1.4 1.4.3.3.6.5 1 .5s.7-.2 1-.5c.3-.3.4-.8.4-1.4 0-.6-.1-1-.4-1.3-.3-.3-.6-.5-1-.5s-.7.1-1 .4c-.3.3-.4.8-.4 1.4zM72.1 90.9v-4.7h.7v.7c.3-.5.8-.8 1.5-.8.3 0 .5.1.8.2.2.1.4.2.5.4.1.2.2.4.2.6V91H75v-2.9c0-.3 0-.6-.1-.7.1-.2 0-.4-.2-.4-.2-.1-.3-.1-.6-.1s-.6.1-.9.3c-.2.2-.4.6-.4 1.2V91h-.7zM80.2 90.9v-.6c-.3.5-.7.7-1.3.7-.4 0-.7-.1-1-.3-.3-.2-.6-.5-.7-.9-.2-.4-.3-.8-.3-1.3s.1-.9.2-1.3c.2-.4.4-.7.7-.9.3-.2.7-.3 1.1-.3.3 0 .5.1.8.2.2.1.4.3.5.5v-2.3h.8v6.5h-.8zm-2.5-2.3c0 .6.1 1.1.4 1.4.3.3.6.4.9.4.3 0 .6-.1.9-.4.2-.3.4-.7.4-1.3 0-.6-.1-1.1-.4-1.4-.2-.3-.6-.5-.9-.5-.4 0-.7.1-.9.4s-.4.8-.4 1.4zM82.2 85.3v-.9h.8v.9h-.8zm0 5.6v-4.7h.8v4.7h-.8zM87.3 90.9v-.6c-.3.5-.7.7-1.3.7-.4 0-.7-.1-1-.3-.3-.2-.6-.5-.7-.9-.2-.4-.3-.8-.3-1.3s.1-.9.2-1.3c.2-.4.4-.7.7-.9.3-.2.7-.3 1.1-.3.3 0 .5.1.8.2.2.1.4.3.5.5v-2.3h.7v6.5h-.7zm-2.5-2.3c0 .6.1 1.1.4 1.4.3.3.6.4.9.4.3 0 .6-.1.9-.4.2-.3.4-.7.4-1.3 0-.6-.1-1.1-.4-1.4-.2-.3-.6-.5-.9-.5-.4 0-.7.1-.9.4s-.4.8-.4 1.4z"></path><path style="fill-rule:evenodd;clip-rule:evenodd;fill:#134093" d="M0 .2h89.6v59.9H0z"></path><path class="st2" d="M45.5 8.9H48l-2 1.5.8 2.5-2.1-1.5-2.1 1.5.8-2.5-2.1-1.5h2.6l.8-2.4zM45.6 48.8h2.6l-2.1 1.6.8 2.5-2.1-1.6-2.1 1.6.9-2.5-2.1-1.6H44l.8-2.4zM55.5 46.2H58l-2 1.5.8 2.5-2.1-1.5-2.1 1.5.8-2.5-2.1-1.5h2.6l.8-2.4zM55.5 11.5H58l-2 1.6.8 2.4-2.1-1.5-2.1 1.5.8-2.4-2.1-1.6h2.6l.8-2.4zM62.8 18.8h2.6l-2.1 1.6.8 2.5-2.1-1.5-2 1.5.8-2.5-2.1-1.6h2.6l.7-2.4zM62.8 38.9h2.6l-2.1 1.6.8 2.5-2.1-1.6-2 1.6.8-2.5-2.1-1.6h2.6l.7-2.4zM65.6 28.7h2.5l-2 1.6.8 2.5-2.1-1.5-2.1 1.5.8-2.5-2.1-1.6H64l.8-2.4zM35.4 11.5H38l-2.1 1.6.8 2.5-2.1-1.6-2.1 1.6.9-2.5-2.1-1.6h2.5l.8-2.4zM28.2 18.9h2.6l-2.1 1.5.9 2.5-2.1-1.5-2.1 1.5.8-2.5-2.1-1.5h2.6l.8-2.4zM25.6 28.8h2.6l-2.1 1.5.8 2.5-2.1-1.5-2 1.5.8-2.5-2.1-1.5H24l.8-2.4zM28.2 39h2.6l-2.1 1.5.9 2.5-2.1-1.5-2.1 1.5.8-2.5-2.1-1.5h2.6l.8-2.5zM35.5 46.2h2.6L36 47.8l.8 2.4-2.1-1.5-2.1 1.5.9-2.4-2.1-1.6h2.5l.8-2.4z"></path><path d="M139.5 12.1c7 .6 13.4 2.9 19 6.4 0 0 .2.1.4.3-7-10-18.4-17.1-31.7-18.3a43.51 43.51 0 0 0-31 9.1c6.4 1.3 12 4.5 16.3 9 7.7-4.9 17.2-7.4 27-6.5z" style="fill-rule:evenodd;clip-rule:evenodd;fill:#0076bd"></path><path class="st4" d="M166.4 39.6c0 .1 0 .1 0 0 0 .1 0 .1 0 0z"></path><path d="M166.5 40.1c0-.1-.1-.7-.1-.9-.7-7.5-3.3-14.5-7.5-20.5-.2-.1-.4-.2-.4-.3-5.6-3.5-12-5.8-19-6.4-9.9-.9-19.3 1.6-27 6.5 4.8 5 7.9 11.6 8.5 18.9.2 1.8.2 3.6 0 5.5-.3 2.9-.9 5.7-2 8.3-1.8 4.8-4.8 8.9-8.5 12.2l.1-.1c14.3-8.3 32.1-11.9 49.7-9.2-1.6 1.5-4 2.8-5.9 3.8 2.4-.6 10.7-3.9 10.8-4.2-.1 0 1.9-6.2 1.3-13.6z" style="fill-rule:evenodd;clip-rule:evenodd"></path><path class="st4" d="M165.7 39.1c-5.5-3.8-10.1-6-19.8-6.9-7.3-.7-14.4.5-20.8 3.2.2 1.8.2 3.6 0 5.4-.8 8.9-5.6 16.5-12.4 21.3 17.6-10.1 33.6-11.5 47.1-9.4.9.1 3.7.6 5 1 1.6-8 1.1-13.2.9-14.6z"></path><path class="st0" d="M130.2 72.4v-6.5h4.7v.8H131v2h3.6v.7H131v2.2h4v.8zM139.3 70.9l.8.1c-.1.5-.4.9-.7 1.1-.4.3-.8.4-1.4.4-.7 0-1.2-.2-1.6-.6-.4-.4-.6-1-.6-1.8s.2-1.4.6-1.8c.4-.4.9-.7 1.6-.7.6 0 1.1.2 1.5.6.4.4.6 1 .6 1.8v.2h-3.5c0 .5.2.9.4 1.2.3.3.6.4 1 .4.3 0 .5-.1.7-.2.3-.1.5-.4.6-.7zm-2.6-1.3h2.6c0-.4-.1-.7-.3-.9-.3-.3-.6-.5-1-.5s-.7.1-.9.4c-.2.3-.4.6-.4 1zM140.8 71l.8-.1c0 .3.2.6.4.7.2.2.5.3.9.3s.6-.1.8-.2c.2-.1.3-.3.3-.5s-.1-.3-.2-.4c-.1-.1-.4-.2-.8-.3-.6-.1-1-.3-1.2-.4-.2-.1-.4-.3-.5-.4-.1-.2-.2-.4-.2-.6 0-.2 0-.4.1-.6.1-.2.2-.3.4-.4.1-.1.3-.2.5-.2.2-.1.4-.1.7-.1.4 0 .7.1 1 .2.3.1.5.2.6.4.1.2.2.4.3.7l-.8.1c0-.2-.1-.4-.3-.6-.2-.1-.4-.2-.7-.2-.4 0-.6.1-.8.2-.2.1-.2.3-.2.4 0 .1 0 .2.1.3.1.1.2.2.3.2.1 0 .3.1.7.2.6.2 1 .3 1.2.4.2.1.4.2.5.4.1.2.2.4.2.7 0 .3-.1.5-.2.8-.2.2-.4.4-.7.5-.3.1-.6.2-1 .2-.6 0-1.1-.1-1.4-.4-.5-.4-.7-.8-.8-1.3zM147.4 71.7l.1.7c-.2 0-.4.1-.6.1-.3 0-.5 0-.7-.1-.2-.1-.3-.2-.3-.4-.1-.1-.1-.5-.1-.9v-2.7h-.6v-.6h.6v-1.2l.8-.5v1.6h.8v.6h-.8V71.5c0 .1.1.1.1.2.1 0 .2.1.3.1.2-.1.3-.1.4-.1zM148.2 66.8v-.9h.8v.9h-.8zm0 5.6v-4.7h.8v4.7h-.8zM113.1 80.9l.1.7c-.2 0-.4.1-.6.1-.3 0-.5 0-.7-.1-.2-.1-.3-.2-.3-.4-.1-.1-.1-.5-.1-.9v-2.7h-.6V77h.6v-1.2l.8-.5v1.6h.8v.6h-.8V80.7c0 .1.1.1.1.2.1 0 .2.1.3.1.1 0 .2 0 .4-.1zM116.9 81.6V81c-.4.5-.9.8-1.5.8-.3 0-.5-.1-.8-.2-.2-.1-.4-.2-.5-.4-.1-.2-.2-.4-.2-.6V77h.8V80.4c.1.2.2.4.3.5.2.1.4.2.6.2.2 0 .5-.1.7-.2.2-.1.4-.3.4-.5.1-.2.1-.5.1-.9V77h.8v4.7h-.7zM118.9 75.1h.8v6.5h-.8zM124.2 80.1l.8.1c-.1.5-.4.9-.7 1.1-.4.3-.8.4-1.4.4-.7 0-1.2-.2-1.6-.6-.4-.4-.6-1-.6-1.8s.2-1.4.6-1.8c.4-.4.9-.7 1.6-.7.6 0 1.1.2 1.5.6.4.4.6 1 .6 1.8v.2h-3.5c0 .5.2.9.4 1.2.3.3.6.4 1 .4.3 0 .5-.1.8-.2.2-.1.3-.3.5-.7zm-2.7-1.3h2.6c0-.4-.1-.7-.3-.9-.3-.3-.6-.5-1-.5s-.7.1-.9.4c-.2.3-.3.6-.4 1zM127.3 81.6l-1.8-4.7h.8l1 2.8c.1.3.2.6.3 1 .1-.2.2-.5.3-.9l1-2.9h.8l-1.8 4.7h-.6zM130.5 76.1v-.9h.8v.9h-.8zm0 5.5v-4.7h.8v4.7h-.8zM132.6 81.6v-6.5h.8v3.7l1.9-1.9h1l-1.8 1.8 2 2.9h-1l-1.6-2.4-.5.6v1.8zM140.2 81.6V81c-.4.5-.9.8-1.5.8-.3 0-.5-.1-.8-.2-.2-.1-.4-.2-.5-.4-.1-.2-.2-.4-.2-.6V77h.8V80.4c.1.2.2.4.3.5.2.1.4.2.6.2.2 0 .5-.1.7-.2.2-.1.4-.3.4-.5.1-.2.1-.5.1-.9V77h.8v4.7h-.7zM144.7 81.6v-6.5h.8v2.3c.4-.4.8-.6 1.4-.6.3 0 .7.1.9.2.3.1.4.3.6.6.1.2.2.6.2 1.1v3h-.8v-3c0-.4-.1-.7-.3-.9-.2-.2-.4-.3-.7-.3-.2 0-.5.1-.7.2-.2.1-.4.3-.4.5-.1.2-.1.5-.1.9v2.6h-.9zM153 80.1l.8.1c-.1.5-.4.9-.7 1.1-.4.3-.8.4-1.4.4-.7 0-1.2-.2-1.6-.6-.4-.4-.6-1-.6-1.8s.2-1.4.6-1.8c.4-.4.9-.7 1.6-.7.6 0 1.1.2 1.5.6.4.4.6 1 .6 1.8v.2h-3.5c0 .5.2.9.4 1.2.3.3.6.4 1 .4.3 0 .5-.1.7-.2.3-.1.4-.3.6-.7zm-2.7-1.3h2.6c0-.4-.1-.7-.3-.9-.3-.3-.6-.5-1-.5s-.7.1-.9.4c-.2.3-.3.6-.4 1zM157.9 81.1c-.3.3-.6.4-.9.5-.3.1-.6.2-.9.2-.5 0-.9-.1-1.2-.4-.3-.3-.4-.6-.4-1 0-.2.1-.4.2-.6.1-.2.2-.3.4-.5l.6-.3c.2 0 .4-.1.7-.1.6-.1 1.1-.2 1.4-.3v-.2c0-.3-.1-.6-.2-.7-.2-.2-.5-.3-.9-.3s-.7.1-.8.2c-.2.1-.3.4-.4.7l-.8-.1c.1-.3.2-.6.4-.8.2-.2.4-.4.7-.5.3-.1.7-.2 1.1-.2.4 0 .7 0 1 .1.3.1.4.2.6.4.1.1.2.3.2.5v1.8c0 .7 0 1.2.1 1.4 0 .2.1.4.2.6h-1s-.1-.2-.1-.4zm-.1-1.8c-.3.1-.7.2-1.3.3-.3 0-.6.1-.7.2-.1.1-.2.1-.3.3-.1.1-.1.2-.1.4s.1.4.2.5c.2.1.4.2.7.2.3 0 .6-.1.8-.2.2-.1.4-.3.5-.6.1-.2.1-.4.1-.8v-.3zM159.9 81.6v-6.5h.8v3.7l1.9-1.9h1l-1.8 1.8 2 2.9h-1l-1.6-2.4-.5.6v1.8zM164.1 80.2l.8-.1c0 .3.2.6.4.7.2.2.5.3.9.3s.6-.1.8-.2c.2-.1.3-.3.3-.5s-.1-.3-.2-.4c-.1-.1-.4-.2-.8-.3-.6-.1-1-.3-1.2-.4-.2-.1-.4-.3-.5-.4-.1-.2-.2-.4-.2-.6 0-.2 0-.4.1-.6.1-.2.2-.3.4-.4.1-.1.3-.2.5-.2.2-.1.4-.1.7-.1.4 0 .7.1 1 .2.3.1.5.2.6.4.1.2.2.4.3.7l-.8.1c0-.2-.1-.4-.3-.6-.2-.1-.4-.2-.7-.2-.4 0-.6.1-.8.2-.2.1-.2.3-.2.4 0 .1 0 .2.1.3.1.1.2.2.3.2.1 0 .3.1.7.2.6.2 1 .3 1.2.4.2.1.4.2.5.4.1.2.2.4.2.7 0 .3-.1.5-.2.8-.2.2-.4.4-.7.5-.3.1-.6.2-1 .2-.6 0-1.1-.1-1.4-.4-.5-.4-.7-.8-.8-1.3z"></path></svg> 