<?xml version="1.0" encoding="UTF-8"?> <svg xmlns="http://www.w3.org/2000/svg" width="208.443" height="33.073"><path d="M7.536 12.743 9.3 10.932h11.07l1.772 1.811v5.718H7.536zM3.586 7.19 0 10.772v18.771l3.586 3.533h22.088l3.742-3.74v-3.593h-7.274v1.815l-1.979 1.985H9.509L7.536 27.56v-5.765h21.88V10.932L25.674 7.19zM34.833 0h7.12v33.073h-7.12zM51.409 7.19l-3.585 3.582v18.771l3.585 3.533h21.882l3.948-3.953v-3.38h-7.691v1.973l-1.769 1.827H57.127l-1.769-1.82v-14.98l1.769-1.816h11.07l1.768 1.816v5.514h7.274v-7.485L73.707 7.19z" fill="#1899c8"></path><path d="m162.265 12.743 1.766-1.816H175.1l1.772 1.816v5.718h-14.607zm-3.949-5.558-3.586 3.582v18.776l3.586 3.533h22.088l3.742-3.74v-3.593h-7.274v1.815l-1.98 1.985h-10.654l-1.973-1.979v-5.769h21.881V10.932l-3.742-3.742zM189.53 0h7.12v33.073h-7.12zM201.324 0h7.12v33.073h-7.12zM120.965 1.51l-3.588 3.572v24.467l3.585 3.523h24.9l3.949-3.937v-3.369h-7.691v1.968l-1.767 1.815h-13.671l-1.768-1.815V7.051l1.768-1.811h14.095l1.766 1.811v5.5h7.275V5.082l-3.541-3.572z" fill="#37363e"></path><path d="M90.075 27.56V12.906l1.975-1.974h10.654l1.976 1.974V27.56l-1.976 1.983H92.05zM86.127 7.19l-3.586 3.582v18.771l3.586 3.533h21.879l3.951-3.949V11.136l-3.951-3.946z" fill="#1899c8"></path></svg> 