<svg xmlns="http://www.w3.org/2000/svg" width="280.669" height="31.354" viewBox="0 0 280.669 31.354">
  <g id="Group_2578" data-name="Group 2578" transform="translate(-211 -642)">
    <path id="Path_47934" data-name="Path 47934" d="M1230.414,351.224v23.922h-22.665l-3.3-3.458V351.224h6.424v18.639l1.747,1.824h11.146V351.224Z" transform="translate(-780.088 297.949)" fill="#35333c"/>
    <path id="Path_47935" data-name="Path 47935" d="M969.817,364.452v-9.977l-3.319-3.438H946.905l-3.182,3.291v17.241l3.182,3.245H966.5l3.319-3.435v-3.295h-6.453v1.667l-1.755,1.818h-9.451l-1.75-1.818v-5.3Zm-19.409-8.309,1.567-1.668h9.818l1.571,1.668V361.4H950.408Z" transform="translate(-732.723 297.983)" fill="#09c"/>
    <path id="Path_47936" data-name="Path 47936" d="M1280.907,364.28V354.193l-3.319-3.475H1258l-3.182,3.326v17.43l3.182,3.281h19.593l3.319-3.473v-3.331h-6.453v1.686l-1.755,1.838h-9.451l-1.75-1.838V364.28Zm-19.409-8.4,1.567-1.687h9.818l1.571,1.687v5.311H1261.5Z" transform="translate(-789.238 298.04)" fill="#35333c"/>
    <rect id="Rectangle_1788" data-name="Rectangle 1788" width="6.315" height="30.092" transform="translate(242.592 642.703)" fill="#09c"/>
    <rect id="Rectangle_1789" data-name="Rectangle 1789" width="6.315" height="30.795" transform="translate(454.793 642)" fill="#35333c"/>
    <path id="Path_47937" data-name="Path 47937" d="M1186.581,343.14v6.766h-16.6l-3.191,3.313v17.434l3.191,3.285h22.9v-30.8Zm-.133,25.687-1.77,1.825h-9.438l-1.769-1.825V355.212l1.769-1.825h9.438l1.77,1.825Z" transform="translate(-773.246 299.417)" fill="#35333c"/>
    <path id="Path_47938" data-name="Path 47938" d="M1000.229,374.973l-3.179-3.22V354.647l3.179-3.264h19.778l3.134,3.264v6.826h-6.453v-5.025l-1.567-1.655h-9.82l-1.569,1.655v13.646l1.569,1.659h9.451l1.567-1.659v-1.8h6.823v3.079l-3.5,3.6Z" transform="translate(-742.41 297.92)" fill="#09c"/>
    <path id="Path_47939" data-name="Path 47939" d="M1058.228,350.718h-19.407l-3.182,3.326v17.43l3.182,3.281h19.407l3.505-3.667V354.383Zm-2.95,18.918-1.753,1.838h-9.451l-1.752-1.838V356.026l1.752-1.833h9.451l1.753,1.833Z" transform="translate(-749.42 298.04)" fill="#09c"/>
    <path id="Path_47940" data-name="Path 47940" d="M1151.434,351.037h-19.407l-3.182,3.327v17.43l3.182,3.281h19.407l3.5-3.667V354.7Zm-2.95,18.918-1.753,1.838h-9.451l-1.752-1.838V356.345l1.752-1.832h9.451l1.753,1.832Z" transform="translate(-766.354 297.983)" fill="#35333c"/>
    <path id="Path_47941" data-name="Path 47941" d="M1114.264,352.669V373.5H1107.8V349.132c-3.566-1.825-6.784-1.124-10.432-.786V373.5h-7.024V349.1c-3.083-1.965-5.979-.673-9.411-1.347V373.5h-6.73v-.759a.245.245,0,0,1-.081-.168c-.08-9.574-.134-19.175-.214-28.748h32.526C1109.035,346.746,1111.61,349.666,1114.264,352.669Z" transform="translate(-756.373 299.293)" fill="#35333c"/>
  </g>
</svg>
