<?xml version="1.0" encoding="UTF-8"?> <svg xmlns="http://www.w3.org/2000/svg" width="242.948" height="30.484"><g data-name="Group 2579"><path data-name="Path 46139" d="M6.886 11.91 8.5 10.247h10.117l1.619 1.662v5.224H6.886zM3.279 6.83 0 10.105v17.15l3.279 3.228h20.184l3.421-3.416v-3.279h-6.647v1.659l-1.808 1.808H8.691l-1.805-1.808v-5.27h20v-9.93L23.463 6.83z" fill="#1899c8"></path><path data-name="Rectangle 910" fill="#1899c8" d="M31.92.713h6.505v29.77H31.92z"></path><path data-name="Path 46140" d="m46.269 6.83-3.277 3.275v17.15l3.277 3.228h20l3.609-3.609v-3.086h-7.032v1.8l-1.613 1.664h-9.74l-1.615-1.664v-13.68l1.615-1.661h10.118l1.615 1.66v5.04h6.647v-6.842L66.645 6.83z" fill="#1899c8"></path><path data-name="Path 46141" d="M81.089 25.447v-13.4l1.805-1.8h9.738l1.8 1.8v13.4l-1.8 1.808h-9.738zM77.482 6.83l-3.279 3.275v17.15l3.279 3.228h19.994l3.611-3.609V10.437L97.476 6.83z" fill="#1899c8"></path><path data-name="Path 46142" d="M133.939 13.807a2.718 2.718 0 0 0-1.983-.758H114.79a1.46 1.46 0 0 1-1.049-.486l-1.1-1.3a1.384 1.384 0 0 1-.387-1.082V7.634a1.068 1.068 0 0 1 .332-.758l1.488-1.57a1.218 1.218 0 0 1 .937-.378h21.128V.713h-11.042v.044H110.85a1.556 1.556 0 0 0-1.1.434l-3.911 4.006a1.5 1.5 0 0 0-.442 1.084v6.821a1.7 1.7 0 0 0 .5 1.246l3.242 3.195a1.6 1.6 0 0 0 1.156.488h17.225a1.11 1.11 0 0 1 .774.27l1.873 1.624a.888.888 0 0 1 .275.65v3.14a.854.854 0 0 1-.275.54l-1.763 1.626a1.56 1.56 0 0 1-1.1.432h-10.365v-.046h-11.047v4.214h26.147c.607 0 .467-.216.854-.594l4.078-3.9a1.405 1.405 0 0 0 .495-1.028v-6.6a2.036 2.036 0 0 0-.55-1.57z" fill="#37363e"></path><path data-name="Path 46143" d="m187.894 6.83-3.274 3.273v17.152l3.275 3.228h20l3.609-3.609v-3.086h-7.027v1.8l-1.615 1.664h-9.741l-1.617-1.664v-13.68l1.617-1.661h10.116l1.615 1.66v5.04h6.647v-6.844l-3.228-3.273z" fill="#37363e"></path><path data-name="Path 46144" d="m242.819 28.539-6.152-11.326 5.118-7.691a1.46 1.46 0 0 0 .3-.889v-.719c0-.463-.3-.633-.774-.633h-4.817a.9.9 0 0 0-.989.592l-4.689 8.2h-8.937V.713h-6.507v29.77h6.507V19.832h8.979l5.594 10.059a1.018 1.018 0 0 0 1.032.592h4.731c.645 0 .732-.253.732-.719v-.633a1.318 1.318 0 0 0-.129-.592" fill="#37363e"></path><path data-name="Path 46145" d="m157.452 6.83-3.419 3.417v3.277h6.647v-1.656l1.808-1.81h9.738l1.8 1.81v5.269H156.42l-2.387 2.389v7.537l3.419 3.421h20.75l2.715-2.715V10.058l-3.279-3.228zm16.577 19.989a.243.243 0 0 1-.243.243h-11.487l-1.619-1.658v-5.225h13.349z" fill="#37363e"></path><path data-name="Path 46146" d="M148.331.699h-5.169l-.078-.7-.858 7.237h-3.69v3.289h3.471v19.957h6.324V10.526l4.725-.318V7.272h-4.725z" fill="#37363e"></path></g></svg> 