<svg id="Group_1446" data-name="Group 1446" xmlns="http://www.w3.org/2000/svg" width="34" height="17" viewBox="0 0 34 17">
  <path id="Path_47260" data-name="Path 47260" d="M.289-9.028l7.705-7.684A.583.583,0,0,1,8.572-17a.827.827,0,0,1,.771.768.58.58,0,0,1-.289.576L2.7-9.22H33.229A.708.708,0,0,1,34-8.452a.759.759,0,0,1-.771.768H2.7L9.054-1.345a.829.829,0,0,1,.289.576A.827.827,0,0,1,8.572,0a.816.816,0,0,1-.578-.192L.289-7.972A.528.528,0,0,1,0-8.452a.58.58,0,0,1,.289-.576" transform="translate(0 17)" fill="#fff" fill-rule="evenodd"/>
</svg>
