<svg width="41" height="68" viewBox="0 0 41 68" fill="none" xmlns="http://www.w3.org/2000/svg">
<path d="M19.8408 68H19.5749C19.0953 67.9342 18.6581 67.6909 18.3502 67.3185C18.0423 66.9461 17.8863 66.4718 17.913 65.99C18.5445 55.5973 11.886 44.6965 0.950799 38.1914C0.661293 38.0217 0.421265 37.7796 0.254495 37.4891C0.087726 37.1985 0 36.8695 0 36.5348C0 36.2 0.087726 35.871 0.254495 35.5804C0.421265 35.2899 0.661293 35.0478 0.950799 34.8781C12.307 28.4835 19.8741 15.2524 19.7854 1.94396C19.7794 1.4399 19.9723 0.953681 20.3225 0.590078C20.6728 0.226475 21.1523 0.0146305 21.6578 0.000180853C22.1595 -0.006618 22.6447 0.178502 23.0136 0.517479C23.3825 0.856455 23.607 1.3235 23.641 1.82249C24.0066 8.72518 24.3833 15.8488 26.7875 22.2987C29.3357 29.1793 34.133 34.2375 39.6061 35.839C40.022 35.9584 40.3854 36.214 40.6379 36.5644C40.8904 36.9148 41.0173 37.3397 40.9981 37.7707C40.9789 38.2017 40.8148 38.6138 40.5321 38.9405C40.2495 39.2673 39.8647 39.4897 39.4399 39.5719C34.6758 40.5107 30.1999 44.1995 27.1642 49.6775C24.3279 54.8131 22.9762 60.777 21.6246 66.5311C21.5267 66.9354 21.3 67.2971 20.9783 67.562C20.6567 67.8268 20.2575 67.9805 19.8408 68ZM5.5376 36.5458C12.4992 41.226 17.7328 48.049 20.4391 55.9728C21.2908 53.1366 22.4305 50.3945 23.8404 47.7889C26.1351 43.4242 29.6636 39.8262 33.9889 37.4404C28.963 34.1415 25.1758 29.2749 23.22 23.6019C22.3238 21.1515 21.6454 18.6273 21.1925 16.0586C18.2405 24.3455 12.7678 31.5075 5.5376 36.5458Z" fill="#EDB24E"/>
</svg>
