<svg width="47" height="54" viewBox="0 0 47 54" fill="none" xmlns="http://www.w3.org/2000/svg">
<path d="M19.5924 27.2823L1.34162 26.8051C1.16065 26.801 0.982273 26.761 0.816763 26.6875C0.651254 26.614 0.501882 26.5084 0.377241 26.3769C0.252601 26.2453 0.155116 26.0902 0.0904744 25.9208C0.0258329 25.7513 -0.00469419 25.5706 0.0005843 25.3893C-0.000758139 25.2059 0.0353175 25.0242 0.106651 24.8553C0.177984 24.6864 0.283051 24.5339 0.415357 24.4073C0.547664 24.2806 0.704422 24.1824 0.875996 24.1188C1.04757 24.0551 1.23032 24.0273 1.41301 24.0371L19.6638 24.5143C20.03 24.5143 20.3812 24.6602 20.6401 24.9197C20.8991 25.1793 21.0445 25.5313 21.0445 25.8983C21.0445 26.2654 20.8991 26.6174 20.6401 26.8769C20.3812 27.1365 20.03 27.2823 19.6638 27.2823H19.5924Z" fill="#EDB24E"/>
<path d="M45.532 27.4493L32.8358 27.0754C32.6548 27.0703 32.4766 27.0293 32.3115 26.9549C32.1464 26.8804 31.9976 26.774 31.8737 26.6417C31.7498 26.5093 31.6532 26.3537 31.5895 26.1838C31.5258 26.0139 31.4963 25.8331 31.5027 25.6517C31.5211 25.2873 31.6791 24.9442 31.9437 24.6937C32.2083 24.4433 32.5592 24.3049 32.9231 24.3074L45.6193 24.6813C45.9855 24.6813 46.3367 24.8271 46.5956 25.0866C46.8545 25.3462 47 25.6982 47 26.0653C47 26.4324 46.8545 26.7844 46.5956 27.0439C46.3367 27.3035 45.9855 27.4493 45.6193 27.4493H45.532Z" fill="#EDB24E"/>
<path d="M26.3607 19.2647C25.9965 19.2626 25.6477 19.1172 25.3895 18.8598C25.1312 18.6025 24.9842 18.2537 24.98 17.8887L24.8531 1.39198C24.853 1.02555 24.9971 0.673899 25.2541 0.413309C25.5111 0.152719 25.8603 0.00421078 26.2258 2.30023e-05C26.4068 -0.00102542 26.5861 0.0337751 26.7536 0.102458C26.9211 0.171142 27.0733 0.272367 27.2016 0.40025C27.33 0.528132 27.4318 0.680145 27.5013 0.847616C27.5708 1.01509 27.6065 1.19468 27.6065 1.37606L27.7335 17.9046C27.7356 18.0863 27.7019 18.2667 27.6345 18.4354C27.567 18.6042 27.4671 18.7579 27.3403 18.8879C27.2136 19.0179 27.0626 19.1216 26.8958 19.1931C26.7291 19.2646 26.55 19.3024 26.3687 19.3045L26.3607 19.2647Z" fill="#EDB24E"/>
<path d="M26.4642 54C26.1021 54 25.7545 53.8575 25.4962 53.6031C25.238 53.3487 25.0897 53.0028 25.0835 52.6399L24.8137 33.5501C24.8084 33.1831 24.9489 32.829 25.2041 32.5657C25.4593 32.3024 25.8084 32.1515 26.1746 32.1462C26.5408 32.141 26.894 32.2818 27.1567 32.5376C27.4193 32.7934 27.5699 33.1433 27.5751 33.5104L27.8449 52.6001C27.847 52.7818 27.8134 52.9622 27.7459 53.1309C27.6785 53.2996 27.5785 53.4534 27.4518 53.5834C27.325 53.7134 27.174 53.817 27.0073 53.8885C26.8406 53.96 26.6614 53.9979 26.4801 54H26.4642Z" fill="#EDB24E"/>
</svg>
